<svg width="64" height="51" viewBox="0 0 64 51" fill="none" xmlns="http://www.w3.org/2000/svg">
<path d="M63.0995 25.4743C61.3449 17.9536 59.1849 7.07357 52.4314 1.00469L48.8573 4.2254L42.1876 0.772195L38.8525 5.00107L31.0708 1.58413L24.0301 4.22469L19.5836 0.771484L10.3196 6.32988L8.02389 3.20017C4.99513 6.97474 2.51454 12.9227 1.404 22.1491C-2.70188 56.2822 18.0131 50.7573 36.9001 49.8643C55.7879 48.972 66.1453 38.5321 63.0995 25.4743Z" fill="#E73D01"/>
<path d="M22.523 35.4698C21.873 35.4698 21.3168 35.2386 20.8543 34.7761C20.3918 34.3136 20.1602 33.757 20.1594 33.1062V18.9244C20.1594 18.2744 20.391 17.7182 20.8543 17.2557C21.3176 16.7932 21.8738 16.5616 22.523 16.5608H41.4321C42.0821 16.5608 42.6387 16.7924 43.102 17.2557C43.5653 17.719 43.7965 18.2752 43.7957 18.9244V33.1062C43.7957 33.7562 43.5645 34.3128 43.102 34.7761C42.6395 35.2394 42.0829 35.4706 41.4321 35.4698H22.523ZM31.9776 27.1971L41.4321 21.2881V18.9244L31.9776 24.8335L22.523 18.9244V21.2881L31.9776 27.1971Z" fill="#0D0A18"/>
</svg>
