<svg width="64" height="51" viewBox="0 0 64 51" fill="none" xmlns="http://www.w3.org/2000/svg">
<path d="M62.8471 25.4543C61.0925 17.9336 58.9325 7.05355 52.179 0.984667L48.6049 4.20538L41.9352 0.752175L38.6001 4.98105L30.8184 1.56411L23.7777 4.20467L19.3312 0.751465L10.0672 6.30986L7.77149 3.18015C4.74274 6.95472 2.26214 12.9027 1.1516 22.129C-2.95428 56.2622 17.7607 50.7372 36.6477 49.8443C55.5355 48.952 65.893 38.512 62.8471 25.4543Z" fill="#E73D01"/>
<path d="M44.1554 25.7315C44.1554 19.0215 38.7095 13.5757 31.9995 13.5757C25.2895 13.5757 19.8437 19.0215 19.8437 25.7315C19.8437 31.6149 24.0253 36.5137 29.5684 37.6442V29.3782H27.1372V25.7315H29.5684V22.6925C29.5684 20.3465 31.4768 18.438 33.8229 18.438H36.8619V22.0848H34.4307C33.7621 22.0848 33.2151 22.6318 33.2151 23.3003V25.7315H36.8619V29.3782H33.2151V37.8265C39.3538 37.2187 44.1554 32.0404 44.1554 25.7315Z" fill="#0D0A18"/>
</svg>
