<svg width="64" height="51" viewBox="0 0 64 51" fill="none" xmlns="http://www.w3.org/2000/svg">
<path d="M63.0995 25.4345C61.3449 17.9138 59.1849 7.03377 52.4314 0.964891L48.8573 4.18561L42.1876 0.7324L38.8525 4.96128L31.0708 1.54433L24.0301 4.18489L19.5836 0.731689L10.3196 6.29009L8.02389 3.16038C4.99513 6.93494 2.51454 12.883 1.404 22.1093C-2.70188 56.2424 18.0131 50.7175 36.9001 49.8245C55.7879 48.9322 66.1453 38.4923 63.0995 25.4345Z" fill="#E73D01"/>
<path d="M33.4608 13.8215C34.784 13.8251 35.4555 13.8321 36.0353 13.8486L36.2635 13.8568C36.527 13.8662 36.7869 13.878 37.1009 13.8921C38.3523 13.9509 39.2061 14.1485 39.9553 14.439C40.7315 14.7377 41.3855 15.1423 42.0394 15.795C42.6377 16.3828 43.1005 17.094 43.3954 17.8791C43.6859 18.6283 43.8835 19.4822 43.9423 20.7347C43.9564 21.0476 43.9682 21.3075 43.9776 21.5721L43.9847 21.8003C44.0023 22.3789 44.0094 23.0505 44.0117 24.3736L44.0129 25.251V26.7917C44.0158 27.6495 44.0067 28.5074 43.9858 29.365L43.9788 29.5932C43.9694 29.8578 43.9576 30.1177 43.9435 30.4306C43.8847 31.6831 43.6848 32.5358 43.3954 33.2862C43.1005 34.0713 42.6377 34.7825 42.0394 35.3702C41.4516 35.9685 40.7404 36.4313 39.9553 36.7263C39.2061 37.0168 38.3523 37.2144 37.1009 37.2732L36.2635 37.3085L36.0353 37.3155C35.4555 37.332 34.784 37.3402 33.4608 37.3426L32.5835 37.3438H31.0439C30.1857 37.3468 29.3274 37.3378 28.4694 37.3167L28.2413 37.3096C27.9621 37.2991 27.6829 37.2869 27.4039 37.2732C26.1525 37.2144 25.2986 37.0168 24.5483 36.7263C23.7636 36.4312 23.0528 35.9684 22.4654 35.3702C21.8667 34.7826 21.4035 34.0714 21.1081 33.2862C20.8176 32.537 20.6201 31.6831 20.5612 30.4306L20.526 29.5932L20.5201 29.365C20.4984 28.5074 20.4886 27.6496 20.4907 26.7917V24.3736C20.4874 23.5157 20.4961 22.6579 20.5166 21.8003L20.5248 21.5721C20.5342 21.3075 20.546 21.0476 20.5601 20.7347C20.6189 19.4822 20.8165 18.6295 21.107 17.8791C21.403 17.0937 21.867 16.3824 22.4665 15.795C23.0536 15.1971 23.764 14.7343 24.5483 14.439C25.2986 14.1485 26.1513 13.9509 27.4039 13.8921C27.7167 13.878 27.9778 13.8662 28.2413 13.8568L28.4694 13.8498C29.327 13.8289 30.1849 13.8198 31.0427 13.8227L33.4608 13.8215ZM32.2518 19.7021C30.6922 19.7021 29.1964 20.3216 28.0936 21.4245C26.9908 22.5273 26.3712 24.023 26.3712 25.5826C26.3712 27.1423 26.9908 28.638 28.0936 29.7408C29.1964 30.8436 30.6922 31.4632 32.2518 31.4632C33.8114 31.4632 35.3072 30.8436 36.41 29.7408C37.5128 28.638 38.1323 27.1423 38.1323 25.5826C38.1323 24.023 37.5128 22.5273 36.41 21.4245C35.3072 20.3216 33.8114 19.7021 32.2518 19.7021ZM32.2518 22.0543C32.7151 22.0542 33.174 22.1454 33.6021 22.3227C34.0302 22.4999 34.4192 22.7597 34.7469 23.0873C35.0746 23.4149 35.3345 23.8038 35.5119 24.2319C35.6893 24.6599 35.7806 25.1187 35.7807 25.5821C35.7808 26.0454 35.6896 26.5042 35.5124 26.9323C35.3351 27.3604 35.0753 27.7494 34.7477 28.0771C34.4201 28.4048 34.0312 28.6648 33.6032 28.8422C33.1751 29.0196 32.7163 29.1109 32.253 29.111C31.3172 29.111 30.4198 28.7392 29.7581 28.0775C29.0964 27.4159 28.7246 26.5184 28.7246 25.5826C28.7246 24.6469 29.0964 23.7494 29.7581 23.0877C30.4198 22.426 31.3172 22.0543 32.253 22.0543M38.4275 17.9379C38.0376 17.9379 37.6637 18.0928 37.388 18.3685C37.1123 18.6442 36.9574 19.0182 36.9574 19.4081C36.9574 19.798 37.1123 20.1719 37.388 20.4476C37.6637 20.7233 38.0376 20.8782 38.4275 20.8782C38.8175 20.8782 39.1914 20.7233 39.4671 20.4476C39.7428 20.1719 39.8977 19.798 39.8977 19.4081C39.8977 19.0182 39.7428 18.6442 39.4671 18.3685C39.1914 18.0928 38.8175 17.9379 38.4275 17.9379Z" fill="#0D0A18"/>
</svg>
