<svg width="125" height="102" viewBox="0 0 125 102" fill="none" xmlns="http://www.w3.org/2000/svg">
<path d="M120.646 84.7281C120.646 93.8165 88.7081 101.187 49.3073 101.187C9.91044 101.187 -22.0276 93.8165 -22.0276 84.7281C-22.0276 82.1084 -19.3754 79.6319 -14.657 77.4318C-5.86151 77.9063 2.92118 78.5615 11.6911 79.3966C17.5282 79.9558 23.3943 80.5963 29.2358 80.3016C41.4966 79.6869 53.3047 74.9845 65.5738 75.9894C74.4402 76.7141 83.0261 80.4046 91.8761 79.8711C97.2816 79.5437 102.486 77.6378 107.912 77.877C110.837 78.0058 113.691 78.7602 116.582 79.2421C119.213 80.9568 120.646 82.8038 120.646 84.7281Z" fill="#472215"/>
<path d="M111.566 87.7153C111.566 92.0641 84.3615 95.5879 50.8053 95.5879C50.4996 95.5879 50.1975 95.5879 49.8954 95.5844C49.1537 95.5844 48.4151 95.5809 47.68 95.5778C47.5659 95.5778 47.4518 95.5778 47.3408 95.5748C15.3961 95.3417 -9.95569 91.9148 -9.95569 87.7157C-9.95569 84.9838 0.776374 82.5785 17.0782 81.1641C26.7259 80.329 38.3278 79.8396 50.8057 79.8396C61.6792 79.8396 71.884 80.2089 80.713 80.8611C99.1355 82.2118 111.566 84.7738 111.566 87.7153Z" fill="#401A19"/>
<path d="M87.7645 86.2511C87.7645 91.3617 70.862 95.511 49.8977 95.5844C49.7066 95.5879 49.5119 95.5879 49.3203 95.5879C48.7698 95.5879 48.2258 95.5844 47.6823 95.5778C47.5683 95.5778 47.4542 95.5778 47.3432 95.5748C27.0304 95.3251 10.8766 91.2491 10.8766 86.2515C10.8766 84.3748 13.1558 82.6282 17.0801 81.1641C26.7278 80.329 38.3297 79.8396 50.8077 79.8396C61.6811 79.8396 71.886 80.2089 80.7149 80.8611C85.1562 82.3816 87.7645 84.2448 87.7645 86.2511Z" fill="#62231A"/>
<path d="M49.3203 88.7304C70.5522 88.7304 87.7641 86.5001 87.7641 83.749C87.7641 80.9978 70.5522 78.7676 49.3203 78.7676C28.0884 78.7676 10.8766 80.9978 10.8766 83.749C10.8766 86.5001 28.0884 88.7304 49.3203 88.7304Z" fill="#211521"/>
<path d="M25.5275 74.0125V76.231L24.0551 77.7484C24.0551 77.7484 22.8774 77.5363 22.5828 76.7304C22.2881 75.9246 20.9633 74.9135 20.3744 74.6586C19.7856 74.4032 18.9021 75.2951 17.4887 74.5272C16.0754 73.7589 15.6631 73.8798 14.6325 73.0407C13.6019 72.2013 16.1049 69.3048 16.3995 68.6845C16.6942 68.0642 15.6631 67.2247 14.9271 67.1911C14.1907 67.1575 12.2771 67.0702 11.3935 67.1885C10.51 67.3068 10.6571 69.6903 10.6571 69.6903L12.8655 69.7911C12.8655 69.7911 11.8349 69.1101 12.4237 68.5033C13.0126 67.8965 14.1907 68.2672 14.632 68.4457C14.9439 68.5719 14.7422 69.3843 14.3378 70.2298C14.1692 70.5826 13.9652 70.941 13.7485 71.2579C13.0121 72.3336 13.3068 72.5055 13.6014 73.6279C13.8961 74.7507 14.485 75.0942 14.485 75.0942L13.0126 76.2947C13.0126 76.2947 15.3685 76.0852 16.1044 76.1188C16.8408 76.1524 18.1657 76.8465 19.4909 77.3826C20.8162 77.9182 22.5828 78.7913 23.0245 79.2868C23.4663 79.7823 22.2864 79.0816 21.55 79.8403C20.814 80.5991 18.4599 81.4555 16.1044 79.4466C13.7485 77.4376 12.7179 78.8166 10.8038 79.3632C8.88968 79.9097 6.23958 81.215 6.23958 81.215C6.23958 81.215 7.56486 79.2152 9.33144 78.5036C11.0985 77.7921 10.0674 76.7941 9.77319 75.8298C9.47854 74.8655 8.59547 74.9838 7.46487 74.9323C6.33472 74.8808 5.20897 75.1462 4.17835 73.9204C3.14774 72.6941 2.41133 73.276 1.52826 72.9185C0.644749 72.5614 -0.385868 72.1974 -0.974728 71.5369C-1.56359 70.8764 -1.12184 70.1041 -1.7107 68.9678C-2.29956 67.8319 -3.85076 68.1039 -3.62482 66.9789C-3.39888 65.8539 -3.91947 65.2227 -3.33017 64.6155C-2.74131 64.0082 -1.26894 64.3924 -1.26894 64.3924C-1.26894 64.3924 -0.238321 65.7073 -1.41604 65.9705C-2.59376 66.2337 -2.59377 65.2829 -2.59377 65.2829C-2.59377 65.2829 -2.59377 66.0753 -2.44666 66.8742C-2.34536 67.4246 -1.68471 67.474 -0.85009 67.264C-0.473518 67.1692 -0.0612698 67.0217 0.350977 66.8432C1.67624 66.2695 0.203873 65.252 -0.679638 63.1518C-1.56315 61.0515 -2.15201 62.9261 -3.03552 63.0444C-3.91903 63.1627 -4.655 64.2383 -5.83316 65.4523C-7.01088 66.6664 -5.39141 66.5817 -4.65544 67.2491C-3.91903 67.9166 -3.33017 68.7356 -2.88841 69.548C-2.44666 70.3604 -2.74131 72.09 -2.59377 73.6812C-2.44666 75.2724 -1.71025 73.7213 -0.826742 73.7619C0.0567684 73.8021 1.38204 74.4966 3.29572 75.3758C5.20985 76.2554 6.09336 76.1372 6.68222 76.6492C7.27108 77.1613 6.38757 78.3692 5.20985 78.9489C4.03213 79.5291 3.44283 80.6113 2.70686 82.1623C1.97089 83.7134 -1.2685 82.7735 -1.2685 82.7735C-1.2685 82.7735 -1.56315 81.6507 -1.56315 80.5414C-1.56315 79.4322 -1.71026 78.4748 -2.74087 77.6354C-3.77149 76.7959 -4.50789 77.7131 -5.53851 77.0325C-6.56912 76.3515 -7.59974 76.1463 -9.21922 75.2802C-10.8387 74.4141 -11.8693 76.5855 -12.6057 76.8688C-13.3417 77.1521 -14.8141 76.1345 -15.2558 74.8463C-15.6976 73.5585 -16.8753 74.2971 -18.0534 73.2926C-19.2312 72.2882 -18.0534 73.2926 -17.6117 72.2035C-17.1699 71.1143 -17.9063 71.2391 -18.6423 70.0967C-19.3783 68.9538 -17.6117 66.6576 -17.6117 66.6576C-17.6117 66.6576 -17.6117 66.6576 -19.0841 67.5412C-20.5564 68.4247 -19.3787 70.6969 -19.9676 70.036C-20.5564 69.3755 -22.0288 67.4067 -22.0288 67.4067C-22.0288 67.4067 -20.9982 70.9397 -20.1147 71.6141C-19.2312 72.2882 -20.1147 73.1988 -18.937 75.1541C-17.7592 77.1093 -16.1393 75.7569 -15.5505 76.7343C-14.9616 77.7118 -14.0781 78.3862 -13.4892 78.8882C-12.9004 79.3903 -12.9004 78.9149 -11.5751 78.8171C-10.2498 78.7189 -9.95563 77.6231 -9.07211 77.5053C-8.1886 77.387 -6.71623 78.2465 -5.3914 79.0991C-4.06614 79.9517 -4.36079 81.0478 -3.33017 82.6792C-2.29956 84.311 -2.59421 84.4559 -0.974291 85.0051C0.645185 85.5542 0.93984 85.0924 2.55932 83.7369C4.17879 82.3819 6.24003 82.4814 8.89056 83.6653C9.42437 83.9037 9.80137 84.0298 10.0762 84.0709C9.9771 85.4154 9.22617 86.6054 7.81721 86.3195C6.1788 85.9869 5.84319 87.1105 5.17153 87.713C4.50031 88.3158 7.31116 91.0329 7.47457 90.9774C10.7369 89.8682 7.47456 90.9774 8.92492 89.979C10.3753 88.9807 10.8743 88.7292 10.8743 88.7292C10.8743 88.7292 8.11275 89.979 7.81721 89.3138C7.52168 88.6485 7.10592 87.6091 7.81721 87.713C8.52852 87.8169 8.74389 88.3285 9.88858 87.713C11.0328 87.0974 11.6494 85.3814 11.6838 84.7689C11.7181 84.1564 12.3894 83.1585 13.3966 82.6591C13.9463 82.3867 14.991 81.9667 15.8283 81.6406C15.9644 81.6996 16.1058 81.7624 16.2524 81.8284C18.6083 82.8865 18.1665 83.5003 21.1113 84.1097C24.056 84.7196 22.1419 83.523 23.1725 82.302C24.2031 81.0814 24.2031 81.8738 25.5284 80.6663C26.8537 79.4588 27.4425 77.2674 27.4425 77.2674L25.5275 74.0125ZM12.0687 81.583C12.5682 81.1604 13.0284 80.9705 13.5684 80.9758C13.0839 81.1482 12.5607 81.3534 12.0687 81.583Z" fill="#001525"/>
<path d="M25.5275 74.0125V76.231L24.0551 77.7484C24.0551 77.7484 22.8774 77.5363 22.5828 76.7304C22.2881 75.9246 20.9633 74.9135 20.3744 74.6586C19.7856 74.4032 18.9021 75.2951 17.4887 74.5272C16.0754 73.7589 15.6631 73.8798 14.6325 73.0407C13.6019 72.2013 16.1049 69.3048 16.3995 68.6845C16.6942 68.0642 15.6631 67.2247 14.9271 67.1911C14.1907 67.1575 12.2771 67.0702 11.3935 67.1885C10.51 67.3068 10.6571 69.6903 10.6571 69.6903L12.8655 69.7911C12.8655 69.7911 11.8349 69.1101 12.4237 68.5033C13.0126 67.8965 14.1907 68.2672 14.632 68.4457C14.9439 68.5719 14.7422 69.3843 14.3378 70.2298C14.1692 70.5826 13.9652 70.941 13.7485 71.2579C13.0121 72.3336 13.3068 72.5055 13.6014 73.6279C13.8961 74.7507 14.485 75.0942 14.485 75.0942L13.0126 76.2947C13.0126 76.2947 15.3685 76.0852 16.1044 76.1188C16.8408 76.1524 18.1657 76.8465 19.4909 77.3826C20.8162 77.9182 22.5828 78.7913 23.0245 79.2868C23.4663 79.7823 22.2864 79.0816 21.55 79.8403C20.814 80.5991 18.4599 81.4555 16.1044 79.4466C13.7485 77.4376 12.7179 78.8166 10.8038 79.3632C8.88968 79.9097 6.23958 81.215 6.23958 81.215C6.23958 81.215 7.56486 79.2152 9.33144 78.5036C11.0985 77.7921 10.0674 76.7941 9.77319 75.8298C9.47854 74.8655 8.59547 74.9838 7.46487 74.9323C6.33472 74.8808 5.20897 75.1462 4.17835 73.9204C3.14774 72.6941 2.41133 73.276 1.52826 72.9185C0.644749 72.5614 -0.385868 72.1974 -0.974728 71.5369C-1.56359 70.8764 -1.12184 70.1041 -1.7107 68.9678C-2.29956 67.8319 -3.85076 68.1039 -3.62482 66.9789C-3.39888 65.8539 -3.91947 65.2227 -3.33017 64.6155C-2.74131 64.0082 -1.26894 64.3924 -1.26894 64.3924C-1.26894 64.3924 -0.238321 65.7073 -1.41604 65.9705C-2.59376 66.2337 -2.59377 65.2829 -2.59377 65.2829C-2.59377 65.2829 -2.59377 66.0753 -2.44666 66.8742C-2.34536 67.4246 -1.68471 67.474 -0.85009 67.264C-0.473518 67.1692 -0.0612698 67.0217 0.350977 66.8432C1.67624 66.2695 0.203873 65.252 -0.679638 63.1518C-1.56315 61.0515 -2.15201 62.9261 -3.03552 63.0444C-3.91903 63.1627 -4.655 64.2383 -5.83316 65.4523C-7.01088 66.6664 -5.39141 66.5817 -4.65544 67.2491C-3.91903 67.9166 -3.33017 68.7356 -2.88841 69.548C-2.44666 70.3604 -2.74131 72.09 -2.59377 73.6812C-2.44666 75.2724 -1.71025 73.7213 -0.826742 73.7619C0.0567684 73.8021 1.38204 74.4966 3.29572 75.3758C5.20985 76.2554 6.09336 76.1372 6.68222 76.6492C7.27108 77.1613 6.38757 78.3692 5.20985 78.9489C4.03213 79.5291 3.44283 80.6113 2.70686 82.1623C1.97089 83.7134 -1.2685 82.7735 -1.2685 82.7735C-1.2685 82.7735 -1.56315 81.6507 -1.56315 80.5414C-1.56315 79.4322 -1.71026 78.4748 -2.74087 77.6354C-3.77149 76.7959 -4.50789 77.7131 -5.53851 77.0325C-6.56912 76.3515 -7.59974 76.1463 -9.21922 75.2802C-10.8387 74.4141 -11.8693 76.5855 -12.6057 76.8688C-13.3417 77.1521 -14.8141 76.1345 -15.2558 74.8463C-15.6976 73.5585 -16.8753 74.2971 -18.0534 73.2926C-19.2312 72.2882 -18.0534 73.2926 -17.6117 72.2035C-17.1699 71.1143 -17.9063 71.2391 -18.6423 70.0967C-19.3783 68.9538 -17.6117 66.6576 -17.6117 66.6576C-17.6117 66.6576 -17.6117 66.6576 -19.0841 67.5412C-20.5564 68.4247 -19.3787 70.6969 -19.9676 70.036C-20.5564 69.3755 -22.0288 67.4067 -22.0288 67.4067C-22.0288 67.4067 -20.9982 70.9397 -20.1147 71.6141C-19.2312 72.2882 -20.1147 73.1988 -18.937 75.1541C-17.7592 77.1093 -16.1393 75.7569 -15.5505 76.7343C-14.9616 77.7118 -14.0781 78.3862 -13.4892 78.8882C-12.9004 79.3903 -12.9004 78.9149 -11.5751 78.8171C-10.2498 78.7189 -9.95563 77.6231 -9.07211 77.5053C-8.1886 77.387 -6.71623 78.2465 -5.3914 79.0991C-4.06614 79.9517 -4.36079 81.0478 -3.33017 82.6792C-2.29956 84.311 -2.59421 84.4559 -0.974291 85.0051C0.645185 85.5542 0.93984 85.0924 2.55932 83.7369C4.17879 82.3819 6.24003 82.4814 8.89056 83.6653C9.42437 83.9037 9.80137 84.0298 10.0762 84.0709C9.9771 85.4154 9.22617 86.6054 7.81721 86.3195C6.1788 85.9869 5.84319 87.1105 5.17153 87.713C4.50031 88.3158 7.31116 91.0329 7.47457 90.9774C10.7369 89.8682 7.47456 90.9774 8.92492 89.979C10.3753 88.9807 10.8743 88.7292 10.8743 88.7292C10.8743 88.7292 8.11275 89.979 7.81721 89.3138C7.52168 88.6485 7.10592 87.6091 7.81721 87.713C8.52852 87.8169 8.74389 88.3285 9.88858 87.713C11.0328 87.0974 11.6494 85.3814 11.6838 84.7689C11.7181 84.1564 12.3894 83.1585 13.3966 82.6591C13.9463 82.3867 14.991 81.9667 15.8283 81.6406C15.9644 81.6996 16.1058 81.7624 16.2524 81.8284C18.6083 82.8865 18.1665 83.5003 21.1113 84.1097C24.056 84.7196 22.1419 83.523 23.1725 82.302C24.2031 81.0814 24.2031 81.8738 25.5284 80.6663C26.8537 79.4588 27.4425 77.2674 27.4425 77.2674L25.5275 74.0125ZM12.0687 81.583C12.5682 81.1604 13.0284 80.9705 13.5684 80.9758C13.0839 81.1482 12.5607 81.3534 12.0687 81.583Z" fill="#001525"/>
<path d="M27.4437 77.2691L25.5296 74.0125V74.614L27.3204 77.6606C27.4028 77.4197 27.4437 77.2691 27.4437 77.2691Z" fill="#6E352A"/>
<path d="M14.1485 75.3708L13.0162 76.2941C13.0162 76.2941 13.3659 76.2631 13.8363 76.2269L14.4886 75.6952C14.4886 75.6952 14.3366 75.6048 14.1485 75.3708Z" fill="#6E352A"/>
<path d="M11.3976 67.79C12.2811 67.6717 14.1952 67.759 14.9312 67.7926C15.4628 67.8166 16.1455 68.2615 16.3741 68.7404C16.3851 68.7203 16.3952 68.7011 16.4031 68.6845C16.6978 68.0642 15.6667 67.2247 14.9308 67.1911C14.1944 67.1574 12.2807 67.0701 11.3972 67.1884C10.5995 67.2954 10.6418 69.2437 10.6577 69.6217C10.6841 68.9071 10.8211 67.8668 11.3976 67.79Z" fill="#6E352A"/>
<path d="M14.4288 72.7312C14.3455 73.114 14.3865 73.4388 14.6362 73.6418C15.6668 74.4813 16.0791 74.3604 17.4924 75.1283C18.9058 75.8966 19.7893 75.0047 20.3782 75.2597C20.967 75.515 22.2923 76.5261 22.5865 77.3315C22.8811 78.1373 24.0589 78.3495 24.0589 78.3495L25.5312 76.8321V76.2305L24.0589 77.748C24.0589 77.748 22.8811 77.5358 22.5865 76.7299C22.2918 75.9241 20.967 74.913 20.3782 74.6581C19.7893 74.4027 18.9058 75.2946 17.4924 74.5267C16.0791 73.7584 15.6668 73.8793 14.6362 73.0403C14.5331 72.9569 14.4666 72.8517 14.4288 72.7312Z" fill="#6E352A"/>
<path d="M14.7365 69.1482C14.6669 69.4599 14.5269 69.8392 14.3406 70.2291C14.1719 70.5818 13.968 70.9402 13.7513 71.2571C13.2893 71.932 13.2333 72.2516 13.3285 72.6728C13.387 72.4533 13.5161 72.2022 13.7513 71.8583C13.968 71.5413 14.1719 71.1829 14.3406 70.8302C14.6854 70.1095 14.8797 69.4158 14.7365 69.1482Z" fill="#6E352A"/>
<path d="M10.079 84.6736C10.0522 84.6697 10.0191 84.6609 9.99008 84.6553C9.74079 85.7366 9.0198 86.5643 7.82006 86.3207C6.18164 85.988 5.84603 87.1117 5.17437 87.7141C5.03255 87.8416 5.04708 88.0638 5.15851 88.334C5.16424 88.3279 5.16777 88.3209 5.17437 88.3152C5.84559 87.7124 6.18164 86.5887 7.82006 86.9214C9.229 87.2082 9.97994 86.0182 10.079 84.6736Z" fill="#6E352A"/>
<path d="M13.5709 81.5773C13.0309 81.572 12.5707 81.7619 12.0712 82.1845C12.5632 81.9549 13.0864 81.7497 13.5709 81.5773Z" fill="#6E352A"/>
<path d="M23.028 79.8876C22.9188 79.765 22.7281 79.6192 22.4836 79.4616C22.1863 79.4725 21.8375 79.5476 21.5539 79.8401C20.8179 80.5988 18.4638 81.4553 16.1083 79.4463C13.7525 77.4373 12.7218 78.8164 10.8077 79.3629C9.53617 79.7261 7.94399 80.4224 7.01512 80.8498C6.53196 81.3832 6.24304 81.8163 6.24304 81.8163C6.24304 81.8163 8.89314 80.511 10.8073 79.9645C12.7214 79.4179 13.752 78.0389 16.1079 80.0479C18.4638 82.0568 20.8174 81.2003 21.5534 80.4416C22.2898 79.6825 23.4698 80.3831 23.028 79.8876Z" fill="#6E352A"/>
<path d="M12.3315 69.2236C12.2139 69.4087 12.2284 69.596 12.3015 69.7649L12.8675 69.7907C12.8675 69.7907 12.5024 69.548 12.3315 69.2236Z" fill="#6E352A"/>
<path d="M-1.70438 68.9678C-2.19634 68.0192 -3.35512 68.0498 -3.59384 67.4316C-3.60133 67.4805 -3.60837 67.5294 -3.6185 67.5805C-3.84445 68.7055 -2.29324 68.4331 -1.70438 69.5694C-1.11552 70.7053 -1.55727 71.4775 -0.968411 72.1384C-0.37955 72.7989 0.651065 73.163 1.53458 73.5201C2.41809 73.8772 3.15405 73.2957 4.18467 74.522C5.21528 75.7482 6.34104 75.4824 7.47119 75.5339C8.60179 75.5854 9.48485 75.4671 9.77951 76.4314C9.91076 76.861 10.1869 77.2971 10.2979 77.7113C10.4974 77.1325 9.97638 76.4738 9.77951 75.8299C9.48485 74.8655 8.60179 74.9838 7.47119 74.9323C6.34104 74.8808 5.21528 75.1462 4.18467 73.9204C3.15405 72.6942 2.41765 73.2761 1.53458 72.9185C0.651065 72.5615 -0.37955 72.1974 -0.968411 71.5369C-1.55727 70.876 -1.11552 70.1042 -1.70438 68.9678Z" fill="#6E352A"/>
<path d="M22.8362 84.0381C22.8746 83.9268 22.864 83.7814 22.8495 83.6121C22.827 83.7618 22.8279 83.905 22.8362 84.0381Z" fill="#6E352A"/>
<path d="M7.81951 89.3147C7.69927 89.044 7.56054 88.7127 7.48435 88.4207C7.30333 88.6944 7.59533 89.412 7.81951 89.9162C7.92521 90.1546 8.34847 90.1454 8.84616 90.038C8.87215 90.0193 8.89682 90.0009 8.92677 89.9804C10.3771 88.982 10.8761 88.7306 10.8761 88.7306C10.8761 88.7306 8.11504 89.9804 7.81951 89.3147Z" fill="#6E352A"/>
<path d="M-5.82982 66.0541C-4.65209 64.8401 -3.91569 63.7645 -3.03218 63.6462C-2.14866 63.5279 -1.5598 61.6533 -0.676293 63.7535C-0.148653 65.0077 0.584663 65.8738 0.811047 66.4915C1.17176 65.8734 0.0504231 64.8794 -0.676293 63.152C-1.5598 61.0518 -2.14866 62.9263 -3.03218 63.0446C-3.91569 63.1629 -4.65165 64.2385 -5.82982 65.4526C-6.30593 65.9432 -6.32134 66.2205 -6.12667 66.4221C-6.05972 66.3139 -5.96503 66.1934 -5.82982 66.0541Z" fill="#6E352A"/>
<path d="M-18.0505 73.8949C-16.8728 74.8994 -15.6947 74.1608 -15.2529 75.4486C-14.8112 76.7364 -13.3388 77.7544 -12.6028 77.4711C-11.8669 77.1878 -10.8358 75.0164 -9.21631 75.8825C-7.59684 76.7486 -6.56622 76.9542 -5.53561 77.6348C-4.50499 78.3158 -3.76858 77.3986 -2.73797 78.2377C-1.70735 79.0771 -1.56025 80.0345 -1.56025 81.1437C-1.56025 82.253 -1.2656 83.3758 -1.2656 83.3758C-1.2656 83.3758 1.97335 84.3157 2.70976 82.7646C3.44616 81.2136 4.03503 80.1314 5.21275 79.5512C6.28609 79.0226 7.11102 77.9744 6.80404 77.4048C6.6032 77.9448 5.9703 78.5769 5.21275 78.9497C4.03503 79.5298 3.44572 80.612 2.70976 82.1631C1.97379 83.7141 -1.2656 82.7742 -1.2656 82.7742C-1.2656 82.7742 -1.56025 81.6514 -1.56025 80.5422C-1.56025 79.4329 -1.70735 78.4756 -2.73797 77.6361C-3.76858 76.7967 -4.50499 77.7138 -5.53561 77.0333C-6.56622 76.3523 -7.59684 76.1471 -9.21631 75.281C-10.8358 74.4149 -11.8664 76.5862 -12.6028 76.8696C-13.3388 77.1529 -14.8112 76.1353 -15.2529 74.847C-15.6938 73.5619 -16.8675 74.294 -18.0426 73.2991C-18.5002 73.5099 -18.9252 73.1485 -18.0505 73.8949Z" fill="#6E352A"/>
<path d="M72.295 75.7802C72.295 75.7802 72.8839 77.9717 74.2092 79.1792C75.5344 80.3866 75.5344 79.5943 76.5651 80.8149C77.5957 82.0355 75.6815 83.232 78.6263 82.6226C81.571 82.0132 81.1293 81.3994 83.4852 80.3412C83.6323 80.2753 83.7737 80.2125 83.9093 80.1535C84.7466 80.4796 85.7913 80.8996 86.3409 81.172C87.3482 81.6709 88.0194 82.6693 88.0538 83.2814C88.0881 83.8938 88.7043 85.6099 89.849 86.2254C90.9932 86.8409 91.2086 86.3289 91.9204 86.2254C92.6317 86.1219 92.2159 87.1609 91.9204 87.8262C91.6244 88.4915 88.8633 87.2417 88.8633 87.2417C88.8633 87.2417 89.3628 87.4936 90.8127 88.4915C92.263 89.4899 89.0007 88.3806 92.263 89.4899C92.4264 89.5453 95.2373 86.8278 94.566 86.2254C93.8948 85.6225 93.5588 84.4989 91.9204 84.8315C90.5119 85.1174 89.7605 83.9279 89.6614 82.5833C89.9362 82.5427 90.3132 82.4166 90.847 82.1778C93.4971 80.9939 95.5583 80.8939 97.1783 82.2494C98.7977 83.6044 99.0924 84.0667 100.712 83.5175C102.331 82.9684 102.037 82.8234 103.068 81.1916C104.098 79.5603 103.804 78.4641 105.129 77.6115C106.454 76.759 107.927 75.8994 108.81 76.0177C109.693 76.136 109.987 77.2317 111.313 77.33C112.638 77.4282 112.638 77.9031 113.227 77.4011C113.816 76.8991 114.699 76.2246 115.288 75.2472C115.877 74.2698 117.496 75.6218 118.675 73.6665C119.852 71.7112 118.969 70.8006 119.852 70.1266C120.735 69.4526 121.766 65.9192 121.766 65.9192C121.766 65.9192 120.294 67.888 119.705 68.5485C119.116 69.209 120.294 66.9372 118.822 66.0536C117.349 65.1701 117.349 65.1701 117.349 65.1701C117.349 65.1701 119.116 67.4663 118.38 68.6092C117.643 69.752 116.908 69.6272 117.349 70.7159C117.791 71.8051 118.969 70.8006 117.791 71.8051C116.613 72.8096 115.435 72.0709 114.993 73.3587C114.552 74.6465 113.079 75.6646 112.343 75.3812C111.607 75.0979 110.576 72.9266 108.957 73.7927C107.337 74.6588 106.307 74.8644 105.276 75.5449C104.245 76.226 103.509 75.3088 102.478 76.1478C101.448 76.9873 101.301 77.9446 101.301 79.0539C101.301 80.1631 101.006 81.2859 101.006 81.2859C101.006 81.2859 97.7671 82.2258 97.0307 80.6748C96.2943 79.1237 95.7054 78.0415 94.5277 77.4614C93.35 76.8812 92.4665 75.6737 93.0554 75.1617C93.6442 74.6496 94.5277 74.7679 96.4419 73.8883C98.356 73.0086 99.6808 72.3145 100.564 72.2744C101.448 72.2342 102.184 73.7852 102.331 72.1936C102.478 70.6024 102.184 68.8728 102.626 68.0604C103.068 67.248 103.657 66.4286 104.393 65.7616C105.129 65.0941 106.749 65.1788 105.571 63.9648C104.393 62.7508 103.657 61.6751 102.773 61.5568C101.89 61.4385 101.301 59.564 100.417 61.6642C99.5337 63.7644 98.0613 64.7824 99.3866 65.3556C99.7988 65.5342 100.211 65.6817 100.588 65.7764C101.422 65.9864 102.082 65.9371 102.184 65.3866C102.331 64.5877 102.331 63.7954 102.331 63.7954C102.331 63.7954 102.331 64.7462 101.154 64.483C99.9759 64.2197 101.007 62.9048 101.007 62.9048C101.007 62.9048 102.479 62.5207 103.068 63.1279C103.657 63.7347 103.136 64.3664 103.362 65.4914C103.588 66.6163 102.037 66.3439 101.448 67.4803C100.859 68.6161 101.301 69.3884 100.712 70.0493C100.123 70.7098 99.0928 71.0739 98.2093 71.431C97.3258 71.7881 96.5898 71.2066 95.5592 72.4328C94.5286 73.6591 93.4029 73.3932 92.2727 73.4447C91.1421 73.4963 90.259 73.3779 89.9644 74.3423C89.6697 75.3066 88.6391 76.3041 90.4061 77.0161C92.1732 77.7277 93.498 79.7275 93.498 79.7275C93.498 79.7275 90.8479 78.4222 88.9338 77.8756C87.0196 77.3291 85.989 75.9501 83.6331 77.9586C81.2773 79.9671 78.9236 79.1111 78.1876 78.3524C77.4512 77.5936 76.2713 78.2943 76.713 77.7988C77.1548 77.3033 78.9214 76.4307 80.2467 75.8946C81.5719 75.359 82.8967 74.6644 83.6331 74.6308C84.3691 74.5972 86.725 74.8068 86.725 74.8068L85.2526 73.6063C85.2526 73.6063 85.8415 73.2623 86.1361 72.1399C86.4308 71.0171 86.725 70.8456 85.989 69.7699C85.7723 69.4534 85.5684 69.0946 85.3997 68.7419C84.9954 67.8963 84.7941 67.0839 85.1055 66.9577C85.5473 66.7792 86.725 66.4085 87.3139 67.0153C87.9027 67.6221 86.8721 68.3031 86.8721 68.3031L89.0804 68.2023C89.0804 68.2023 89.2275 65.8188 88.3445 65.7005C87.461 65.5822 85.5468 65.6695 84.8109 65.7031C84.0749 65.7367 83.0438 66.5757 83.3385 67.1965C83.6331 67.8168 86.1361 70.7137 85.1055 71.5528C84.0749 72.3922 83.6627 72.2713 82.2493 73.0392C80.8359 73.8075 79.9524 72.9157 79.3636 73.1706C78.7747 73.426 77.4494 74.437 77.1552 75.2429C76.8606 76.0487 75.6829 76.2609 75.6829 76.2609L74.2105 74.7435V72.5249L72.295 75.7802ZM86.1683 79.4865C86.7078 79.4813 87.1685 79.6711 87.668 80.0937C87.176 79.8645 86.6528 79.6594 86.1683 79.4865Z" fill="#001525"/>
<path d="M87.3503 67.8293C87.1662 68.1048 86.8707 68.3017 86.8707 68.3017L87.4855 68.2737C87.5075 68.1293 87.4736 67.9782 87.3503 67.8293Z" fill="#6E352A"/>
<path d="M85.6667 73.9441C85.4457 74.2532 85.2505 74.3732 85.2505 74.3732L85.6773 74.7211C86.2583 74.7639 86.7229 74.8054 86.7229 74.8054L85.6667 73.9441Z" fill="#6E352A"/>
<path d="M85.3988 69.508C85.5675 69.8608 85.7714 70.2192 85.9881 70.5361C86.1973 70.8421 86.3215 71.0739 86.3875 71.276C86.5113 70.8063 86.4831 70.4907 85.9881 69.7673C85.7714 69.4504 85.5675 69.092 85.3988 68.7393C85.2367 68.4005 85.1098 68.0696 85.0332 67.7837C84.8377 68.0116 85.0332 68.7437 85.3988 69.508Z" fill="#6E352A"/>
<path d="M118.38 69.3765C118.577 69.0718 118.592 68.6841 118.513 68.2808C118.484 68.3964 118.445 68.5078 118.38 68.6082C117.671 69.7096 116.965 69.6367 117.31 70.6045C117.496 70.2937 117.937 70.0645 118.38 69.3765Z" fill="#6E352A"/>
<path d="M118.821 66.8213C119.333 67.1291 119.521 67.6049 119.578 68.0668C119.638 67.4595 119.637 66.5432 118.821 66.053C117.348 65.1694 117.348 65.1694 117.348 65.1694C117.348 65.1694 117.761 65.7077 118.104 66.3913C118.293 66.5044 118.526 66.6445 118.821 66.8213Z" fill="#6E352A"/>
<path d="M92.4475 79.2344C91.5005 78.8057 90.0845 78.2028 88.9324 77.8736C87.0182 77.3271 85.9876 75.9481 83.6317 77.957C81.2759 79.966 78.9222 79.1095 78.1862 78.3508C77.9735 78.1316 77.7242 78.036 77.4872 77.9968C77.1318 78.2094 76.8535 78.4071 76.7121 78.566C76.2703 79.0615 77.4502 78.3608 78.1867 79.1195C78.9226 79.8783 81.2763 80.7347 83.6322 78.7258C85.9881 76.7168 87.0187 78.0958 88.9328 78.6428C90.8469 79.1894 93.497 80.4947 93.497 80.4947C93.497 80.4947 93.0975 79.8935 92.4475 79.2344Z" fill="#6E352A"/>
<path d="M119.705 69.3163C120.087 68.8876 120.839 67.9102 121.322 67.2755C121.59 66.5211 121.766 65.9187 121.766 65.9187C121.766 65.9187 120.294 67.8875 119.705 68.548C119.655 68.6039 119.622 68.6318 119.594 68.6484C119.557 69.2443 119.41 69.6468 119.705 69.3163Z" fill="#6E352A"/>
<path d="M91.9199 88.5935C92.1564 88.0609 92.4687 87.2904 92.2194 87.0564C92.1402 87.3153 92.023 87.5925 91.9199 87.8247C91.6244 88.49 88.8629 87.2402 88.8629 87.2402C88.8629 87.2402 89.3623 87.4921 90.8122 88.49C90.9827 88.607 91.0858 88.6943 91.1443 88.7607C91.5279 88.817 91.8327 88.7903 91.9199 88.5935Z" fill="#6E352A"/>
<path d="M87.6686 80.8625C87.1692 80.4399 86.7085 80.25 86.1689 80.2552C86.6534 80.4277 87.1767 80.6329 87.6686 80.8625Z" fill="#6E352A"/>
<path d="M76.9093 82.5633C76.9097 82.459 76.9027 82.349 76.8815 82.2363C76.8732 82.3647 76.8745 82.4751 76.9093 82.5633Z" fill="#6E352A"/>
<path d="M74.2093 73.2915V72.5232L72.2952 75.7798C72.2952 75.7798 72.348 75.9745 72.455 76.2762L74.2093 73.2915Z" fill="#6E352A"/>
<path d="M89.9639 75.109C90.2586 74.1446 91.1416 74.2629 92.2722 74.2114C93.4024 74.1599 94.5281 74.4253 95.5588 73.1995C96.5894 71.9733 97.3258 72.5552 98.2088 72.1977C99.0924 71.8406 100.123 71.4765 100.712 70.816C101.301 70.1555 100.859 69.3833 101.448 68.247C102.037 67.1111 103.588 67.383 103.362 66.2581C103.343 66.1642 103.331 66.0752 103.321 65.9883C103.046 66.5619 101.928 66.5527 101.448 67.4786C100.859 68.6145 101.301 69.3868 100.712 70.0477C100.123 70.7082 99.0924 71.0723 98.2088 71.4294C97.3253 71.7864 96.5894 71.205 95.5588 72.4312C94.5281 73.6575 93.4024 73.3916 92.2722 73.4431C91.1416 73.4946 90.2586 73.3763 89.9639 74.3407C89.7587 75.0125 89.1989 75.7 89.4737 76.2959C89.5979 75.9092 89.8424 75.5062 89.9639 75.109Z" fill="#6E352A"/>
<path d="M83.4114 67.3294C83.6765 66.8855 84.3094 66.4926 84.8085 66.4699C85.5449 66.4363 87.4586 66.349 88.3421 66.4673C88.8922 66.541 89.0423 67.4927 89.0776 68.2008H89.078C89.078 68.2008 89.2251 65.8172 88.3421 65.6989C87.4586 65.5806 85.5444 65.668 84.8085 65.7016C84.0725 65.7352 83.0414 66.5742 83.3361 67.195C83.3537 67.2321 83.3792 67.2775 83.4114 67.3294Z" fill="#6E352A"/>
<path d="M74.2098 75.5101L75.6822 77.0275C75.6822 77.0275 76.8599 76.8153 77.1546 76.0095C77.4492 75.2036 78.7741 74.1926 79.3629 73.9372C79.9518 73.6823 80.8353 74.5737 82.2487 73.8058C83.662 73.0379 84.0742 73.1584 85.1049 72.3194C85.3762 72.098 85.4013 71.7335 85.2872 71.3062C85.2471 71.3996 85.1885 71.4825 85.1049 71.5511C84.0742 72.3905 83.662 72.2696 82.2487 73.0375C80.8353 73.8058 79.9518 72.9139 79.3629 73.1689C78.7741 73.4243 77.4488 74.4353 77.1546 75.2407C76.8599 76.0466 75.6822 76.2587 75.6822 76.2587L74.2098 74.7413V75.5101Z" fill="#6E352A"/>
<path d="M91.9207 84.8307C90.7804 85.0621 90.0713 84.3261 89.7898 83.3242C89.7467 83.3334 89.7009 83.3452 89.6621 83.3508C89.7612 84.6954 90.5121 85.8854 91.9211 85.599C93.53 85.2725 93.8832 86.3486 94.5311 86.958C94.687 86.6367 94.728 86.3691 94.5668 86.2242C93.8951 85.6217 93.5591 84.4981 91.9207 84.8307Z" fill="#6E352A"/>
<path d="M102.477 76.1467C101.447 76.9862 101.3 77.9435 101.3 79.0528C101.3 80.162 101.005 81.2848 101.005 81.2848C101.005 81.2848 97.7662 82.2247 97.0297 80.6737C96.2933 79.1226 95.7045 78.0404 94.5268 77.4603C93.8155 77.1102 93.2143 76.5313 92.9773 76.0149C92.5602 76.5654 93.4098 77.679 94.5268 78.229C95.7045 78.8092 96.2938 79.8914 97.0297 81.4424C97.7657 82.9935 101.005 82.0536 101.005 82.0536C101.005 82.0536 101.3 80.9308 101.3 79.8215C101.3 78.7123 101.447 77.7549 102.477 76.9155C103.508 76.076 104.245 76.9932 105.275 76.3126C106.306 75.6316 107.336 75.4264 108.956 74.5603C110.575 73.6942 111.606 75.8656 112.342 76.1489C113.078 76.4322 114.551 75.4146 114.992 74.1264C115.434 72.8386 116.612 73.5772 117.79 72.5727C118.744 71.759 118.153 72.2632 117.658 71.9053C116.526 72.7522 115.418 72.1183 114.993 73.3581C114.551 74.6459 113.079 75.6639 112.343 75.3806C111.607 75.0973 110.576 72.9259 108.956 73.792C107.337 74.6581 106.306 74.8637 105.276 75.5443C104.245 76.2249 103.508 75.3077 102.477 76.1467Z" fill="#6E352A"/>
<path d="M102.372 70.2842C102.366 70.6107 102.372 70.9621 102.376 71.3262C102.381 70.9722 102.376 70.6216 102.372 70.2842Z" fill="#6E352A"/>
<path d="M101.153 64.4815C100.919 64.4291 100.775 64.3348 100.69 64.2183C100.528 64.6125 100.484 65.1005 101.153 65.2503C101.872 65.4109 102.151 65.1197 102.26 64.8678C102.33 64.2772 102.331 63.7939 102.331 63.7939C102.331 63.7939 102.331 64.7447 101.153 64.4815Z" fill="#6E352A"/>
<path d="M100.417 62.4311C101.301 60.3308 101.89 62.2054 102.773 62.3237C103.657 62.442 104.393 63.5176 105.571 64.7316C105.666 64.8294 105.736 64.9159 105.797 64.9979C106.062 64.791 106.099 64.5081 105.571 63.9633C104.393 62.7493 103.657 61.6736 102.773 61.5553C101.89 61.437 101.301 59.5625 100.417 61.6627C99.6677 63.4443 98.501 64.4457 98.9714 65.059C99.2391 64.4492 99.9209 63.611 100.417 62.4311Z" fill="#6E352A"/>
<path d="M103.328 64.3591C103.305 64.611 103.285 64.8935 103.32 65.2191C103.348 64.8917 103.388 64.6141 103.328 64.3591Z" fill="#6E352A"/>
<path d="M40.999 19.4424C40.999 19.4424 44.7215 15.1106 44.7215 10.2693C44.7215 7.39338 43.4077 4.60693 42.341 2.81885C41.7961 1.90604 42.6039 0.841309 43.8415 0.841309C44.3978 0.841309 44.9162 1.067 45.2271 1.44592C46.5198 3.0214 49.9499 7.40124 51.4901 11.2882C53.4078 16.1295 54.6489 19.442 54.6489 19.442H40.999V19.4424Z" fill="#211521"/>
<path d="M89.6793 55.9054C89.8392 55.1611 89.9647 54.4176 90.0616 53.6742C93.1746 34.8099 84.4588 17.0312 69.2489 17.0312C66.6882 17.0312 64.1702 17.5795 61.7571 18.5958C57.8148 17.5795 53.6254 17.0312 49.2809 17.0312C44.9259 17.0312 40.7264 17.5822 36.7752 18.6037C34.3564 17.5826 31.8322 17.0312 29.2654 17.0312C13.3939 17.0312 4.657 36.2548 8.87856 55.9054C12.3699 72.1587 23.889 83.4076 35.1174 83.4076C36.9333 83.4076 38.6753 83.1304 40.3247 82.6113C43.2007 83.1308 46.1965 83.4076 49.2778 83.4076C52.3512 83.4076 55.34 83.1321 58.2094 82.6152C59.8553 83.1321 61.5928 83.4076 63.4043 83.4076C74.165 83.4076 85.1283 73.1349 89.1164 58.0846C89.3305 57.37 89.5208 56.6436 89.6793 55.9054Z" fill="#211521"/>
<path d="M61.0357 57.0772C61.0929 60.4743 59.8844 66.1773 58.652 71.0653C58.246 72.6692 57.8399 74.1896 57.4739 75.5071C56.6749 78.3752 54.379 80.588 51.465 81.2966L51.1026 81.3865C49.8874 81.6825 48.6185 81.6991 47.3932 81.4397L46.2419 81.197C43.2241 80.5549 40.8136 78.3023 39.9979 75.3508C39.6654 74.1464 39.2998 72.7853 38.9338 71.3447C37.675 66.3969 36.4194 60.5376 36.4766 57.0772C36.5806 51.0114 39.1421 40.3606 41.8173 33.197C42.1666 32.2619 42.5189 31.3871 42.8647 30.5882C46.7555 21.6644 48.3062 21.082 48.7564 21.1851C49.2061 21.082 50.7573 21.6644 54.6476 30.5882C55.2215 31.8991 55.8024 33.4231 56.3662 35.0732C58.7868 42.1212 60.9419 51.5208 61.0357 57.0772Z" fill="#B21E02"/>
<path d="M45.7146 58.4492L48.462 54.6064C49.0363 53.8031 50.2418 53.8105 50.806 54.6212L53.4799 58.4641C54.1339 59.4044 53.4548 60.6861 52.3026 60.6861H46.8813C45.7208 60.6861 45.0434 59.3878 45.7146 58.4492Z" fill="#47161A"/>
<path d="M58.0543 71.012C58.2525 71.0321 58.4538 71.0486 58.6519 71.0652C58.2459 72.6691 57.8398 74.1896 57.4738 75.5071C56.6748 78.3751 54.3789 80.588 51.4649 81.2965L51.1025 81.3864C49.8873 81.6824 48.6184 81.699 47.3931 81.4397L46.2418 81.1969C43.224 80.5548 40.8135 78.3022 39.9978 75.3508C39.6653 74.1463 39.2997 72.7852 38.9337 71.3446C38.9403 71.3381 38.9438 71.3346 38.9504 71.328C39.2222 71.0718 39.5917 70.9421 39.9507 70.8356C43.6534 69.7277 47.6147 70.0638 51.4649 70.413C53.6601 70.6125 55.8556 70.8125 58.0543 71.012Z" fill="#8B1803"/>
<path d="M79.328 62.364C79.1298 62.9795 78.9351 63.575 78.744 64.1442C74.3797 77.0541 70.9492 78.668 69.257 79.8327C64.0537 83.4062 59.5217 81.423 58.8504 79.8327C58.6791 79.4302 59.9951 76.0265 61.3415 71.2817C63.0839 65.133 64.8765 56.7348 63.5503 49.7008C62.6236 44.7862 60.8377 39.2233 59.0152 34.2851C56.2188 26.7054 53.3353 20.6065 53.3353 20.6065C53.3353 20.6065 60.3647 17.7917 64.4334 21.4049C67.9111 24.4926 70.9157 27.7998 73.3698 31.2638C80.1741 40.8664 82.7387 51.6735 79.328 62.364Z" fill="#B21E02"/>
<path d="M78.7445 64.1445C74.3802 77.0544 70.9497 78.6683 69.2575 79.833C64.0543 83.4065 59.5222 81.4233 58.851 79.833C58.6796 79.4305 59.9957 76.0268 61.3421 71.282C61.557 71.2986 61.7719 71.3152 61.9899 71.3287C66.4612 68.6868 71.6883 66.4307 76.6833 64.97C77.395 64.7601 78.1402 64.544 78.7445 64.1445Z" fill="#8B1803"/>
<path d="M87.7643 54.6748C84.8437 69.0886 74.9639 77.1707 74.9639 77.1707C74.9639 77.1707 77.3136 72.845 80.3923 65.0925C80.8622 63.9112 81.2581 62.7068 81.5775 61.4792C83.3736 54.6517 82.9067 47.1383 80.3923 39.2395C79.3718 36.0288 77.3744 32.6814 75.1925 29.6701C71.0467 23.944 66.2363 19.4419 66.2363 19.4419C77.1432 19.4419 83.6052 25.1449 86.5222 33.5396C86.8984 34.6209 87.2172 35.7455 87.4758 36.9102C88.9662 43.5849 88.8085 49.5341 87.7643 54.6748Z" fill="#7A1606"/>
<path d="M34.916 49.7003C33.2609 58.4678 36.4567 69.3613 38.3571 75.3673C39.1596 77.8962 39.73 79.5598 39.6159 79.8327C38.9447 81.423 34.4126 83.4062 29.2093 79.8327C27.6515 78.7614 24.6169 77.3073 20.7398 66.9961C20.2196 65.6188 19.6858 64.0813 19.1384 62.3644C15.7245 51.6604 18.2958 40.8402 25.1203 31.2306C27.5674 27.7802 30.5685 24.483 34.033 21.4049C38.1017 17.7917 45.131 20.6065 45.131 20.6065C45.131 20.6065 42.5963 25.9668 39.9779 32.8777C37.981 38.1446 35.933 44.3134 34.916 49.7003Z" fill="#B21E02"/>
<path d="M45.1303 20.6067C45.1303 20.6067 42.7943 25.547 40.2908 32.0563C40.2155 32.2523 39.9239 32.2113 39.9072 32.0022C39.9068 31.997 39.9063 31.9917 39.9059 31.9865C39.8909 31.7966 39.6443 31.7394 39.5399 31.8996C39.1717 32.4662 38.6251 32.9202 37.9944 33.1739C37.8649 33.2258 37.7218 33.1407 37.7152 33.0028C37.6887 32.4571 37.661 31.9114 37.6337 31.3657C37.624 31.1741 37.3685 31.1055 37.269 31.2701C37.2646 31.278 37.2598 31.2854 37.2549 31.2928C36.8871 31.8843 35.9618 31.6163 35.9583 30.9213C35.9552 30.3538 35.9521 29.7863 35.949 29.2192C35.9481 29.028 35.7033 28.9534 35.5901 29.1079C35.0312 29.871 34.3243 30.5289 33.5231 31.0383C32.8647 31.457 31.9913 31.0462 31.9041 30.2757L31.901 30.2499C31.8402 29.7138 31.2403 29.4074 30.7722 29.6828C29.9499 30.167 29.2069 30.7838 28.5819 31.5019C28.2159 31.9219 27.5182 31.6861 27.4737 31.1326L27.472 31.1125C27.4588 30.9357 27.2324 30.8628 27.1227 31.003C26.6788 31.5705 26.1375 32.0646 25.5275 32.4575C25.4037 32.5374 25.2377 32.4527 25.224 32.3069C25.1923 31.973 25.1606 31.6394 25.1271 31.3046C25.1223 31.2566 25.135 31.2086 25.1628 31.1693C27.6024 27.7407 30.5885 24.464 34.0323 21.4043C38.1005 17.7919 45.1303 20.6067 45.1303 20.6067Z" fill="#8B1803"/>
<path d="M38.3566 75.3675C39.1591 77.8964 39.7295 79.56 39.6154 79.8329C38.9442 81.4232 34.4121 83.4064 29.2088 79.8329C27.651 78.7616 24.6164 77.3075 20.7393 66.9963C21.1286 67.4988 21.5316 67.9947 21.9311 68.4871C22.4446 69.1192 22.9551 69.7514 23.4686 70.3839C24.0764 71.1326 24.8313 71.9546 25.8016 71.9079C26.1002 71.8948 26.4024 71.7913 26.6979 71.8446C27.9166 72.0676 27.5638 74.2835 28.7221 74.7227C29.0106 74.6603 29.2859 74.5437 29.5339 74.3848C30.4539 73.7942 31.6937 74.0653 32.1566 75.0506C32.1844 75.1095 32.2099 75.1693 32.2341 75.2295C32.4658 75.8132 33.3013 75.8739 33.5845 75.3134C33.5876 75.3072 33.5907 75.3016 33.5933 75.2954C33.7083 75.0615 33.9774 74.948 34.2157 75.0571C35.4586 75.6272 36.8737 75.8267 38.2254 75.6115C38.276 75.5307 38.3196 75.4509 38.3566 75.3675Z" fill="#8B1803"/>
<path d="M54.6375 43.803L54.9506 45.9866C59.3237 45.0912 62.6926 41.6251 63.4321 37.2606C63.9557 34.1694 67.355 32.4695 70.1747 33.8887L70.5081 34.0563C75.8616 36.7507 78.376 42.9561 76.3905 48.5718L76.21 49.0826C74.8107 53.0398 71.4387 55.9926 67.3044 56.881C64.1676 57.555 60.9119 56.454 58.845 54.0207L54.0962 48.4308C53.3545 47.5577 53.5104 44.0335 54.6375 43.803Z" fill="#47161A"/>
<path d="M44.4844 44.1469L44.2404 43.6138C39.8674 42.7185 36.1778 41.625 35.4384 37.26L35.13 31.698C34.6064 28.6068 31.515 32.4689 28.6953 33.8881L28.3619 34.0557C23.0084 36.7501 20.494 42.9555 22.4795 48.5712L22.66 49.082C24.0593 53.0392 27.4313 55.992 31.5656 56.8804C34.7024 57.5544 37.9581 56.4534 40.025 54.0201L43.6445 48.8886C44.3862 48.0159 45.6111 44.3778 44.4844 44.1469Z" fill="#47161A"/>
<path d="M76.3912 45.8578L76.2097 46.3668C74.81 50.3262 71.4394 53.2777 67.3037 54.1661C66.6928 54.2992 66.0784 54.3625 65.4675 54.3625C62.943 54.3625 60.5091 53.2677 58.8443 51.308L54.0977 45.7181C53.3556 44.8428 53.826 43.5022 54.9504 43.2726C56.3972 42.9766 57.7335 42.4008 58.898 41.6024C61.2645 39.9885 62.9364 37.4696 63.4332 34.5483C63.7992 32.3887 65.5614 30.9114 67.5521 30.6953C67.7199 30.6787 67.8877 30.6687 68.0555 30.6687C68.7637 30.6687 69.4856 30.8285 70.1736 31.1747L70.5092 31.341C75.8609 34.0358 78.3753 40.2412 76.3912 45.8578Z" fill="#EE4107"/>
<path d="M44.7718 45.7178L40.0252 51.3078C38.3604 53.2674 35.9265 54.3622 33.402 54.3622C32.7911 54.3622 32.1767 54.2989 31.5658 54.1658C27.4301 53.2774 24.0595 50.326 22.6598 46.3665L22.4788 45.8575C20.4946 40.2409 23.0091 34.0355 28.3603 31.3407L28.6959 31.1744C29.5552 30.7418 30.7065 30.2192 31.9054 29.7936C34.6414 28.8088 37.6323 28.3098 37.9948 30.4589L36.9351 32.1527C35.7508 34.046 35.6997 36.4505 36.87 38.352C37.4452 39.2867 38.16 40.1266 38.9884 40.8429C40.3613 42.0373 42.0468 42.8895 43.92 43.2719C45.0435 43.5019 45.5139 44.8425 44.7718 45.7178Z" fill="#EE4107"/>
<path d="M46.0288 58.0882L48.553 54.5574C49.0806 53.8192 50.1883 53.8262 50.7063 54.5709L53.1626 58.1013C53.7633 58.9652 53.1397 60.1425 52.0808 60.1425H47.1004C46.0346 60.143 45.4122 58.9503 46.0288 58.0882Z" fill="#EE4107"/>
<path d="M47.0603 57.7951L48.8537 55.2867C49.2285 54.7624 50.0156 54.7672 50.3838 55.2963L52.1292 57.8047C52.556 58.4185 52.1129 59.2549 51.3607 59.2549H47.8218C47.0642 59.2549 46.622 58.4076 47.0603 57.7951Z" fill="#FBFF00"/>
<path d="M81.5432 53.032C80.8408 52.9062 80.1797 53.3258 80.0013 54.0102L79.9854 54.0701C79.8044 54.7515 79.5313 55.4657 79.2574 56.0982C79.0931 56.0271 78.9121 55.9878 78.7218 55.9878H78.6091C77.8687 55.9878 77.2666 56.5845 77.2666 57.3184V59.6168L76.9896 59.9429C76.7593 59.7586 76.4664 59.6482 76.1479 59.6482H76.0356C75.2952 59.6482 74.6932 60.245 74.6932 60.9788V63.1571L74.5809 63.2449V62.938C74.5809 62.4761 74.3452 62.0549 73.9502 61.81L73.726 61.6711C73.3124 61.414 72.7905 61.4009 72.3637 61.6349C71.9369 61.8693 71.6718 62.3155 71.6718 62.7987V65.5241L71.112 65.7532V65.0823C71.112 64.3485 70.5099 63.7517 69.7696 63.7517H69.4331C68.6927 63.7517 68.0906 64.3485 68.0906 65.0823V67.0961L66.3003 68.0613V66.6329C66.3003 66.0999 65.9805 65.6197 65.4877 65.4106L65.3732 65.3617C64.9578 65.1858 64.4835 65.2272 64.1056 65.4739C63.7281 65.7209 63.5026 66.1361 63.5026 66.5849V68.7423H62.3839V65.9693C62.3839 65.2355 61.7818 64.6388 61.0415 64.6388H60.8169C60.0765 64.6388 59.4744 65.2355 59.4744 65.9693V68.7423H57.5722V65.9693C57.5722 65.2355 56.9701 64.6388 56.2297 64.6388H55.6695C54.9291 64.6388 54.3271 65.2355 54.3271 65.9693V68.2987H52.0892V65.9693C52.0892 65.2355 51.4871 64.6388 50.7468 64.6388H49.9703C49.2299 64.6388 48.6278 65.2355 48.6278 65.9693V68.2987H46.3895V65.9693C46.3895 65.2355 45.7875 64.6388 45.0471 64.6388H44.4869C43.7465 64.6388 43.1444 65.2355 43.1444 65.9693V68.7423H41.2422V65.9693C41.2422 65.2355 40.6401 64.6388 39.8998 64.6388H39.6751C38.9348 64.6388 38.3327 65.2355 38.3327 65.9693V68.7423H37.214V66.5849C37.214 66.1361 36.9885 65.7209 36.6106 65.4739C36.2323 65.2268 35.7588 65.1849 35.3413 65.3621L35.2303 65.4097C34.7361 65.6197 34.4163 66.0994 34.4163 66.6329V68.0613L32.626 67.0961V65.0823C32.626 64.3485 32.0239 63.7517 31.2835 63.7517H30.9471C30.2067 63.7517 29.6046 64.3485 29.6046 65.0823V65.7532L29.0448 65.5241V62.7987C29.0448 62.315 28.7797 61.8693 28.3529 61.6349C27.9266 61.4005 27.4042 61.4145 26.9911 61.6707L26.766 61.81C26.3714 62.0549 26.1357 62.4766 26.1357 62.938V63.2449L26.0239 63.1571V60.9788C26.0239 60.245 25.4218 59.6482 24.6814 59.6482H24.5691C24.2507 59.6482 23.9578 59.7586 23.7275 59.9429L23.4504 59.6168V57.3184C23.4504 56.5845 22.8484 55.9878 22.108 55.9878H21.9952C21.805 55.9878 21.6239 56.0271 21.4601 56.0978C21.1853 55.4631 20.9104 54.7436 20.7259 54.0478L19.7525 54.3045L20.7162 54.0102C20.5374 53.3258 19.8759 52.9071 19.1742 53.032C18.474 53.159 18.0044 53.785 18.082 54.4887C18.2277 55.8053 18.4334 56.7797 18.7109 57.4677C19.4601 59.3252 20.6977 61.2088 21.2126 61.9566V64.2245C21.2126 64.7007 21.4715 65.143 21.8886 65.3796L22.0309 65.4603C22.4383 65.6913 22.9276 65.6961 23.3399 65.4726C23.539 65.3652 23.7023 65.2132 23.8213 65.0334L24.0098 65.2421V67.8111C24.0098 68.2062 24.1851 68.5781 24.4925 68.8331L24.5484 68.8793C24.9347 69.1984 25.4623 69.2766 25.9261 69.0845C26.3894 68.892 26.7039 68.4642 26.7458 67.9674L26.7704 67.678L27.9459 68.4982L28.0274 70.6774C28.0538 71.396 28.6431 71.9591 29.369 71.9591H29.8151C30.1789 71.9591 30.5317 71.8099 30.7837 71.5501C31.036 71.2899 31.1717 70.9341 31.1563 70.5731L31.125 69.8275L32.5595 70.4238L32.7189 72.7148C32.7656 73.4107 33.3545 73.9559 34.0583 73.9559H34.5824C35.3228 73.9559 35.9248 73.3591 35.9248 72.6253V71.6291L36.7189 71.7898L36.9687 74.8403C37.0246 75.5261 37.6126 76.0635 38.3067 76.0635H38.5573C39.2977 76.0635 39.8998 75.4668 39.8998 74.7329V71.888L40.8617 71.9247L41.111 75.3834C41.1616 76.0753 41.75 76.6179 42.4503 76.6179H43.137C43.4963 76.6179 43.8469 76.4717 44.098 76.2168C44.349 75.9618 44.4882 75.6113 44.4794 75.255L44.4006 72.0705H46.4116L46.4953 75.8706C46.5107 76.5887 47.1128 77.1728 47.8373 77.1728H48.1808C48.9212 77.1728 49.5232 76.576 49.5232 75.8422V71.96H51.1947V75.8422C51.1947 76.576 51.7968 77.1728 52.5371 77.1728H52.8807C53.6047 77.1728 54.2073 76.5887 54.2227 75.871L54.3064 72.0705H56.3174L56.2385 75.255C56.2297 75.6113 56.3689 75.9618 56.62 76.2168C56.871 76.4717 57.2211 76.6179 57.581 76.6179H58.2676C58.9675 76.6179 59.5559 76.0757 59.6065 75.3821L59.8558 71.9247L60.8177 71.888V74.7329C60.8177 75.4668 61.4198 76.0635 62.1602 76.0635H62.4108C63.1049 76.0635 63.6924 75.5266 63.7488 74.8403L63.9986 71.7898L64.7926 71.6291V72.6253C64.7926 73.3591 65.3947 73.9559 66.1351 73.9559H66.6592C67.363 73.9559 67.9515 73.4107 67.9986 72.717L68.1585 70.4238L69.5929 69.8275L69.5617 70.5736C69.5467 70.9341 69.6824 71.2899 69.9343 71.5501C70.1862 71.8099 70.539 71.9591 70.9028 71.9591H71.349C72.0748 71.9591 72.6641 71.396 72.6905 70.6779L72.7716 68.4978L73.9471 67.6775L73.9717 67.967C74.0136 68.4633 74.3276 68.8916 74.7914 69.0836C75.2552 69.2757 75.7833 69.1971 76.1695 68.878L76.2263 68.8313C76.5324 68.5777 76.7077 68.2053 76.7077 67.8102V65.2412L76.8962 65.0325C77.0151 65.2124 77.179 65.3643 77.3776 65.4717C77.7899 65.6948 78.2783 65.69 78.6875 65.459L78.8293 65.3783C79.2459 65.1421 79.5049 64.6994 79.5049 64.2236V61.9558C80.0202 61.2075 81.257 59.3243 82.0066 57.4664C82.2845 56.7788 82.4897 55.8044 82.6355 54.487C82.713 53.7854 82.2435 53.159 81.5432 53.032Z" fill="#47161A"/>
<path d="M82.6343 53.2206C82.4867 54.538 82.2819 55.5128 82.0031 56.2017C81.2544 58.0583 80.019 59.9416 79.5023 60.6902V62.9594C79.5023 63.4352 79.2438 63.8779 78.8276 64.1141L78.6867 64.1939C78.2771 64.4236 77.7869 64.4301 77.3773 64.207C77.176 64.0975 77.0148 63.9477 76.8941 63.7679L76.706 63.9744V66.543C76.706 66.9389 76.5316 67.3117 76.226 67.5645L76.1687 67.6112C75.7829 67.9307 75.2522 68.0106 74.7888 67.8177C74.3255 67.6247 74.0101 67.1987 73.9696 66.6997L73.9463 66.4103L72.7681 67.2323L72.6875 69.4115C72.6606 70.13 72.0731 70.6927 71.3481 70.6927H70.9016C70.5356 70.6927 70.1832 70.543 69.9313 70.2833C69.6794 70.0235 69.5455 69.6677 69.5587 69.3085L69.5891 68.5598L68.1554 69.1587L67.9978 71.4515C67.9506 72.1434 67.36 72.689 66.6584 72.689H66.1347C65.393 72.689 64.7918 72.0936 64.7918 71.358V70.3632L63.9964 70.5229L63.748 73.5739C63.6908 74.2593 63.1037 74.7949 62.4087 74.7949H62.1567C61.4181 74.7949 60.8174 74.1995 60.8174 73.4674V70.6225L59.8537 70.6591L59.6053 74.1161C59.5551 74.808 58.964 75.3507 58.2659 75.3507H57.5775C57.2181 75.3507 56.8693 75.2044 56.6174 74.9512C56.3655 74.695 56.2281 74.3457 56.2347 73.9895L56.3087 71.1149L56.3153 70.8023H54.3042L54.2201 74.6055C54.2034 75.321 53.6026 75.9064 52.8772 75.9064H52.535C51.7929 75.9064 51.1921 75.3074 51.1921 74.5754V70.6923H49.5202V74.5754C49.5202 75.3074 48.9195 75.9064 48.1774 75.9064H47.8351C47.1102 75.9064 46.509 75.321 46.4922 74.6055L46.4081 70.8023H44.3971L44.4037 71.1149L44.4777 73.9895C44.4843 74.3457 44.3469 74.695 44.095 74.9512C43.843 75.204 43.4942 75.3507 43.1348 75.3507H42.4464C41.7483 75.3507 41.1573 74.8085 41.1071 74.1161L40.8587 70.6591L39.8954 70.6225V73.4674C39.8954 74.1995 39.2947 74.7949 38.5561 74.7949H38.3041C37.6091 74.7949 37.022 74.2593 36.9648 73.5739L36.7164 70.5229L35.9209 70.3632V71.358C35.9209 72.0932 35.3202 72.689 34.5781 72.689H34.0544C33.3528 72.689 32.7617 72.1434 32.715 71.448L32.5574 69.1587L31.1237 68.5598L31.1541 69.3085C31.1678 69.6677 31.0334 70.024 30.7815 70.2833C30.5296 70.543 30.1772 70.6927 29.8112 70.6927H29.3646C28.6397 70.6927 28.0521 70.1305 28.0253 69.4115L27.9447 67.2323L26.7665 66.4103L26.7432 66.6997C26.7031 67.1987 26.3873 67.6247 25.924 67.8177C25.4606 68.0106 24.9304 67.9307 24.5441 67.6112L24.4904 67.568C24.1816 67.3117 24.0068 66.9389 24.0068 66.543V63.9744L23.8187 63.7679C23.698 63.9477 23.5368 64.0975 23.3355 64.207C22.9259 64.4301 22.4357 64.4231 22.0296 64.1939L21.8852 64.1141C21.469 63.8779 21.2104 63.4352 21.2104 62.9594V60.6902C20.6934 59.9416 19.458 58.0583 18.7097 56.2017C18.4309 55.5128 18.2261 54.538 18.0785 53.2236C18.0314 52.7975 18.186 52.4016 18.4679 52.1257C18.6524 51.9459 18.8942 51.8162 19.173 51.7664C19.8746 51.6398 20.5361 52.0594 20.7136 52.7447L19.75 53.0376L20.7233 52.7814C20.9079 53.4768 21.1831 54.1988 21.4584 54.831C21.6196 54.7611 21.8006 54.7214 21.9922 54.7214H22.1063C22.8449 54.7214 23.4456 55.3203 23.4456 56.0524V58.3517L23.7244 58.6778C23.9561 58.4914 24.2481 58.3818 24.567 58.3818H24.6775C25.4197 58.3818 26.0204 58.9807 26.0204 59.7128V61.892L26.1314 61.9785V61.6725C26.1314 61.2102 26.3697 60.7876 26.7626 60.5444L26.9876 60.4047C27.4003 60.1485 27.9244 60.1354 28.3508 60.3681C28.7771 60.6042 29.0422 61.0504 29.0422 61.5328V64.2577L29.6029 64.4873V63.815C29.6029 63.0829 30.2037 62.484 30.9458 62.484H31.2814C32.02 62.484 32.6243 63.0829 32.6243 63.815V65.8314L34.4138 66.7962V65.3656C34.4138 64.8335 34.7327 64.3541 35.2295 64.1446L35.3405 64.0979C35.7567 63.918 36.2301 63.9613 36.6093 64.2075C36.9855 64.4537 37.2101 64.8697 37.2101 65.3189V67.475H38.3314V64.7034C38.3314 63.9713 38.9322 63.3724 39.6743 63.3724H39.8994C40.638 63.3724 41.2388 63.9713 41.2388 64.7034V67.475H43.1423V64.7034C43.1423 63.9713 43.7431 63.3724 44.4852 63.3724H45.0459C45.7845 63.3724 46.3887 63.9713 46.3887 64.7034V67.0323H48.6244V64.7034C48.6244 63.9713 49.2287 63.3724 49.9673 63.3724H50.746C51.4846 63.3724 52.0888 63.9713 52.0888 64.7034V67.0323H54.3245V64.7034C54.3245 63.9713 54.9288 63.3724 55.6674 63.3724H56.228C56.9702 63.3724 57.5709 63.9713 57.5709 64.7034V67.475H59.4745V64.7034C59.4745 63.9713 60.0752 63.3724 60.8138 63.3724H61.0389C61.7806 63.3724 62.3818 63.9713 62.3818 64.7034V67.475H63.5031V65.3189C63.5031 64.8697 63.7282 64.4537 64.1039 64.2075C64.4831 63.9613 64.9566 63.918 65.3728 64.0944L65.4869 64.1442C65.9801 64.3537 66.2995 64.833 66.2995 65.3652V66.7957L68.0889 65.831V63.8146C68.0889 63.0825 68.6932 62.4836 69.4318 62.4836H69.7674C70.5091 62.4836 71.1103 63.0825 71.1103 63.8146V64.4868L71.671 64.2572V61.5323C71.671 61.05 71.9361 60.6042 72.3625 60.3676C72.7888 60.1345 73.3125 60.1481 73.7252 60.4043L73.9502 60.544C74.3431 60.7867 74.5814 61.2093 74.5814 61.672V61.978L74.6924 61.8916V59.7124C74.6924 58.9803 75.2931 58.3814 76.0353 58.3814H76.1462C76.4651 58.3814 76.7571 58.4909 76.9888 58.6773L77.2676 58.3512V56.052C77.2676 55.3199 77.8683 54.721 78.607 54.721H78.721C78.9122 54.721 79.0936 54.7607 79.2548 54.8305C79.5301 54.1984 79.8018 53.4864 79.9833 52.8041L80 52.7443C80.178 52.0589 80.8391 51.6398 81.5407 51.766C81.8195 51.8158 82.0608 51.9459 82.2458 52.1253C82.5268 52.402 82.6814 52.798 82.6343 53.2206Z" fill="#EE4107"/>
<path d="M18.074 39.2395C15.8551 46.2168 15.2306 52.895 16.3554 59.0669C16.7281 61.1365 17.2989 63.1459 18.074 65.0925C21.1522 72.845 23.5024 77.1707 23.5024 77.1707C23.5024 77.1707 11.6961 67.5048 10.0779 50.4792C9.77933 47.3715 9.82293 44.021 10.3396 40.4405C10.5043 39.2893 10.7188 38.1115 10.9874 36.9102C13.2702 26.7086 19.9203 19.4419 32.2305 19.4419C32.2305 19.4419 26.6074 24.7057 22.2806 31.0876C20.4977 33.7129 18.9368 36.5247 18.074 39.2395Z" fill="#7A1606"/>
<path d="M21.923 30.7396C21.9199 30.7348 21.9173 30.73 21.9146 30.7252C21.7957 30.5205 21.5332 30.4563 21.3513 30.6091C20.3392 31.4612 19.4491 32.4548 18.7127 33.5501C18.4925 33.8775 17.9763 33.6518 18.0639 33.2681C18.1754 32.78 18.2863 32.2915 18.3978 31.8035C18.4815 31.4363 18.0067 31.2037 17.7675 31.4957C17.3491 32.0073 16.9496 32.5329 16.5691 33.0725C16.3343 33.4056 15.812 33.155 15.93 32.7656C16.0851 32.2531 16.2405 31.7411 16.3956 31.2286C16.5096 30.8527 16.0133 30.5925 15.7684 30.9007C14.1238 32.9704 12.714 35.2229 11.5658 37.5995C11.3817 37.981 10.7994 37.7858 10.8875 37.3724C10.9201 37.2188 10.954 37.0647 10.9884 36.9101C13.2711 26.7086 19.9212 19.4419 32.2314 19.4419C32.2314 19.4419 26.8118 24.5154 22.5194 30.7392C22.3753 30.9479 22.0543 30.9557 21.923 30.7396Z" fill="#47161A"/>
<path d="M54.6476 30.5886C55.2215 31.8996 55.8024 33.4235 56.3662 35.0737C56.349 35.4718 56.331 35.8699 56.3125 36.2685C56.2927 36.7007 55.7461 36.8871 55.4677 36.5535C54.6811 35.6102 53.7157 34.8139 52.6362 34.222C52.3309 34.0548 51.9522 34.2669 51.9328 34.6118C51.9103 35.0165 51.8707 35.4207 51.8143 35.8223C51.6751 36.8155 50.2825 36.9796 49.9121 36.0463C49.7156 35.5508 49.5527 35.0427 49.4254 34.5254C49.2994 34.0137 48.8445 33.6248 48.3133 33.6112C48.2653 33.6099 48.2164 33.606 48.1671 33.5999C47.5985 33.527 47.0466 33.7933 46.8088 34.3101C46.6797 34.59 46.5317 34.8676 46.3692 35.1195C46.1486 35.4613 45.6245 35.3884 45.5055 34.9999L45.4734 34.8956C45.3659 34.5446 44.9198 34.4459 44.6643 34.7118C44.3855 35.0021 44.0724 35.2605 43.7341 35.4801C43.4214 35.6831 43.0039 35.4661 42.9902 35.0959C42.9691 34.5123 42.9488 33.9295 42.9277 33.3458C42.9149 32.9861 42.5176 32.7678 42.204 32.9499C42.0715 33.0267 41.9424 33.1092 41.8165 33.197C42.1657 32.2619 42.5181 31.3871 42.8638 30.5882C46.7546 21.6644 48.3054 21.082 48.7555 21.1851C49.2061 21.0825 50.7568 21.6648 54.6476 30.5886Z" fill="#961E06"/>
<path d="M73.3698 31.2638C72.3749 30.7644 71.4922 30.0454 70.7963 29.1801C70.7479 29.1199 70.6554 29.1618 70.6682 29.2378C70.6699 29.2482 70.6717 29.2587 70.6735 29.2692C70.873 30.4867 69.2927 31.1878 68.4836 30.251C67.3693 28.961 66.4744 27.4842 65.8538 25.9004C66.148 26.612 66.3396 27.3641 66.4237 28.1276C66.5669 29.4215 64.9756 30.2243 64.0145 29.3369C64.0053 29.3281 63.996 29.3198 63.9868 29.3111C63.8375 29.1701 63.6027 29.3094 63.6424 29.5097C63.73 29.9533 63.7335 30.3998 63.5516 30.8272C63.4208 31.1345 63.1583 31.3585 62.8549 31.5025C62.2189 31.8042 61.8247 32.4477 61.9282 33.1387C61.9304 33.154 61.9326 33.1688 61.9348 33.1837C62.0211 33.7577 61.3711 34.1624 60.8932 33.8271C60.3237 33.4277 59.7137 33.1972 59.4516 33.4762C59.2336 33.7058 59.0993 33.9821 59.0152 34.2846C56.2188 26.7049 53.3353 20.606 53.3353 20.606C53.3353 20.606 60.3647 17.7912 64.4334 21.4044C67.9115 24.493 70.9161 27.8002 73.3698 31.2638Z" fill="#8B1803"/>
<path d="M86.8583 35.6082C87.0344 36.8341 85.3366 37.3208 84.8147 36.1958C83.9334 34.2964 83.3432 32.2639 83.0794 30.1899C82.7543 30.0314 82.7653 30.0366 82.4403 29.8782C82.0311 30.1222 81.4678 30.1026 81.0718 29.7079C80.6825 29.3203 80.2791 28.947 79.862 28.5891C79.3445 28.1447 78.5367 28.5 78.52 29.1784L78.5195 29.195C78.7803 31.1437 75.3405 29.4111 75.196 28.686C75.196 29.0151 75.1925 29.3412 75.1925 29.6708C71.0467 23.9447 66.2363 19.4426 66.2363 19.4426C77.1432 19.4426 83.6052 25.1456 86.5222 33.5403C86.6477 34.227 86.7587 34.9172 86.8583 35.6082Z" fill="#47161A"/>
<path d="M19.6627 78.8676C19.6693 78.8741 19.6728 78.8807 19.6794 78.8877L19.394 78.7681C19.4848 78.8012 19.5755 78.8314 19.6627 78.8676Z" fill="#47161A"/>
<path d="M18.0736 65.0925C21.1518 72.8451 23.502 77.1708 23.502 77.1708C23.502 77.1708 11.6957 67.5049 10.0775 50.4792C10.4836 51.4073 10.8932 52.3394 11.2993 53.2674C11.4741 53.3408 11.6653 53.3111 11.8265 53.2203C12.1163 53.057 12.477 53.1902 12.5831 53.5032C12.7514 53.9995 12.8871 54.5068 12.9888 55.0206C13.0716 55.4388 13.5913 55.5933 13.8794 55.2764C13.8868 55.2681 13.8943 55.2598 13.9022 55.2515C14.1687 54.9586 14.6545 55.0616 14.7783 55.4366C14.9135 55.847 15.0095 56.27 15.0659 56.6982C15.146 57.3094 15.4085 57.8939 15.8349 58.3427C16.0375 58.5562 16.2079 58.8024 16.3555 59.0669C16.7272 61.1366 17.298 63.1464 18.0736 65.0925Z" fill="#47161A"/>
<path d="M87.7654 54.6748C84.8449 69.0886 74.9651 77.1707 74.9651 77.1707C74.9651 77.1707 77.3148 72.845 80.3934 65.0925C80.8634 63.9112 81.2593 62.7068 81.5786 61.4792C81.6619 61.4879 81.742 61.505 81.8165 61.5307C82.1402 61.6429 82.4961 61.5128 82.6344 61.2016C82.9643 60.4577 83.3369 59.733 83.7504 59.0324C84.0882 58.4601 84.9973 58.715 84.9436 59.3755L84.9423 59.393C86.7652 58.9005 86.4935 55.5867 87.7654 54.6748Z" fill="#47161A"/>
<path d="M41.4682 45.2288C42.1425 45.6055 42.3808 46.455 41.9575 47.0972C40.9749 48.5875 38.8309 50.2909 37.3973 51.3443C35.4334 52.7919 32.6573 53.424 30.5155 52.2492C29.1893 51.5237 28.3772 49.9701 28.3803 48.5059C28.3869 47.6175 27.7659 46.8422 26.9031 46.5995C25.4395 46.1835 24.0799 44.7861 23.8786 43.2124C23.5531 40.7071 24.2781 37.9053 25.8526 35.9121C27.3699 33.9922 28.4265 33.1889 31.9051 31.1241L31.9346 31.1136C33.1251 30.6849 34.3433 31.6711 34.1636 32.9139C34.1196 33.2173 34.0588 33.5251 33.9874 33.8271C33.414 36.2578 33.9134 38.819 35.4506 40.7965C37.0013 42.792 39.9848 44.4002 41.4682 45.2288Z" fill="#FBFF00"/>
<path d="M58.0867 45.8073C57.4124 46.1841 57.1741 47.0336 57.5974 47.6757C58.58 49.1661 60.724 50.8695 62.1577 51.9229C64.1216 53.37 66.8976 54.0026 69.0394 52.8278C70.3656 52.1023 71.1777 50.5486 71.1747 49.0845C71.1681 48.1961 71.7891 47.4208 72.6519 47.1781C74.1154 46.762 75.4751 45.3647 75.6763 43.7909C76.0018 41.2856 75.2769 38.4839 73.7023 36.4906C72.185 34.5707 71.1289 33.7675 67.6499 31.7026L67.6204 31.6917C66.4299 31.263 65.2116 32.2492 65.3913 33.492C65.4354 33.7954 65.4961 34.1032 65.5675 34.4053C66.1409 36.8359 65.6415 39.3971 64.1044 41.3747C62.554 43.3705 59.5701 44.9788 58.0867 45.8073Z" fill="#FBFF00"/>
<path d="M81.3464 51.7469C80.7152 51.7203 80.1612 52.1695 79.9934 52.7719L79.9832 52.8051C79.8022 53.4874 79.53 54.1994 79.2548 54.8316C79.0936 54.7617 78.9125 54.722 78.7209 54.722H78.61C77.8714 54.722 77.2671 55.3209 77.2671 56.053V58.3523L76.9883 58.6784C76.7566 58.492 76.4646 58.3824 76.1457 58.3824H76.0347C75.293 58.3824 74.6919 58.9783 74.6919 59.7134V61.8926L74.5879 61.9725L74.5813 61.8795V61.6731C74.5813 61.5534 74.5646 61.4334 74.5342 61.3238C74.447 61.0043 74.2422 60.7249 73.9502 60.545L73.7251 60.4053C73.312 60.1491 72.7887 60.136 72.3624 60.3687C71.9361 60.6048 71.6709 61.051 71.6709 61.5334V64.2583L71.1102 64.4879V63.8156C71.1102 63.0835 70.5095 62.4846 69.7674 62.4846H69.4318C68.6932 62.4846 68.0889 63.0835 68.0889 63.8156V65.832L66.2994 66.7968V65.3662C66.2994 64.8428 65.9893 64.3683 65.507 64.1548L65.3727 64.0954C64.8182 63.8623 64.1673 64.016 63.7669 64.5163C63.581 64.7489 63.5026 65.0488 63.5026 65.3452V67.476H62.3813V64.7044C62.3813 63.9723 61.7805 63.3734 61.0384 63.3734H60.8169C60.0782 63.3734 59.474 63.9723 59.474 64.7044V67.476H57.5704V64.7044C57.5704 63.9723 56.9697 63.3734 56.2275 63.3734H55.6669C54.9283 63.3734 54.324 63.9723 54.324 64.7044V67.0334H52.0883V64.7044C52.0883 63.9723 51.4841 63.3734 50.7455 63.3734H49.9668C49.2282 63.3734 48.6239 63.9723 48.6239 64.7044V67.0334H46.3882V64.7044C46.3882 63.9723 45.784 63.3734 45.0453 63.3734H44.4847C43.7426 63.3734 43.1418 63.9723 43.1418 64.7044V67.476H41.2382V64.7009C41.2382 63.9675 40.6384 63.3734 39.8989 63.3734H39.6738C38.9317 63.3734 38.3309 63.9723 38.3309 64.7044V67.476H37.2096V65.3199C37.2096 64.6909 36.7665 64.1256 36.0882 64.0024C35.8332 63.9557 35.5681 64.0024 35.3263 64.1055L35.229 64.1452C34.7352 64.3478 34.4133 64.8253 34.4133 65.3549V66.7972L32.8722 65.9686C32.7211 65.8857 32.6238 65.7224 32.6238 65.5496V63.816C32.6238 63.084 32.0195 62.485 31.2809 62.485H30.9453C30.2036 62.485 29.6024 63.084 29.6024 63.816V64.4883L29.0417 64.2587V61.5338C29.0417 61.0514 28.7766 60.6057 28.3502 60.3691C27.9239 60.136 27.4002 60.1495 26.9871 60.4058L26.762 60.5455C26.3692 60.7882 26.1309 61.2108 26.1309 61.6735V61.9795L26.0199 61.8931V59.9531V59.7134C26.0199 58.9783 25.4187 58.3824 24.677 58.3824H24.5665C24.2476 58.3824 23.9556 58.492 23.7239 58.6784L23.4451 58.3523V56.0499C23.4451 55.3166 22.8453 54.7224 22.1058 54.7224H21.9917C21.8001 54.7224 21.6191 54.7622 21.4579 54.832C21.1826 54.1999 20.9074 53.4778 20.7228 52.7824L19.7495 53.0387L20.7131 52.7458C20.5352 52.0604 19.8737 51.6413 19.1725 51.7675C18.8937 51.8172 18.6523 51.9473 18.4673 52.1267C18.5413 52.4061 18.6219 52.6558 18.7091 52.8754C19.4579 54.732 20.6933 56.6153 21.2099 57.3639V59.6266C21.2099 60.1102 21.4729 60.5568 21.8983 60.7943L22.0291 60.8676C22.4352 61.1007 22.9254 61.1038 23.335 60.8807C23.5363 60.7742 23.6975 60.621 23.8182 60.4416L24.0063 60.6511V63.2197C24.0063 63.6122 24.1807 63.985 24.4898 64.2412L24.522 64.2692C24.6691 64.3971 24.8391 64.5027 25.0289 64.5512C25.3245 64.6263 25.6178 64.6044 25.8737 64.5106C26.3582 64.3329 26.8937 64.3635 27.3227 64.649C27.328 64.6525 27.3333 64.656 27.3386 64.6594C27.7464 64.931 27.9992 65.3802 28.0173 65.8669L28.0252 66.0848C28.0521 66.7998 28.6445 67.366 29.3663 67.366H29.8112C30.0688 67.366 30.3194 67.2935 30.5331 67.1591C30.744 67.0264 31.0021 66.9901 31.2492 67.0272L31.7729 67.1063C32.2877 67.184 32.6793 67.6061 32.715 68.1212C32.7621 68.8201 33.3527 69.3623 34.0543 69.3623H34.578C34.8647 69.3623 35.1303 69.2737 35.3488 69.1218C35.6601 68.9053 36.06 68.859 36.3979 69.0323C36.7022 69.1881 36.9035 69.4885 36.9308 69.8268L36.9647 70.2476C37.022 70.933 37.6091 71.4721 38.3041 71.4721H38.5525C39.2911 71.4721 39.8954 70.8732 39.8954 70.1411C39.8954 69.8434 40.1389 69.602 40.4393 69.602C40.7683 69.602 41.0414 69.8543 41.0643 70.1795L41.1074 70.7898C41.1576 71.4817 41.7487 72.0244 42.4468 72.0244H43.1352C43.4946 72.0244 43.8434 71.8781 44.0953 71.6249C44.2363 71.4817 44.3437 71.3054 44.4041 71.1159C44.4411 71.0159 44.4644 70.9094 44.471 70.8034C44.4776 70.7566 44.4776 70.7104 44.4776 70.6637L44.4657 70.1952C44.4574 69.87 44.7212 69.602 45.0493 69.602H45.8839C46.2015 69.602 46.4605 69.8534 46.4675 70.1677L46.4922 71.2787C46.5089 71.9973 47.1097 72.5796 47.8351 72.5796H48.1773C48.919 72.5796 49.5202 71.9838 49.5202 71.2486V70.18C49.5202 69.8604 49.7813 69.6015 50.1037 69.6015H50.608C50.9304 69.6015 51.1916 69.8604 51.1916 70.18V71.2486C51.1916 71.9838 51.7928 72.5796 52.5345 72.5796H52.8767C53.6017 72.5796 54.2029 71.9973 54.2196 71.2787L54.2394 70.1699C54.2451 69.8543 54.5046 69.6015 54.823 69.6015H55.6576C55.9835 69.6015 56.2465 69.8661 56.2412 70.1891L56.2337 70.6628C56.2337 70.7095 56.2337 70.7558 56.2403 70.8025C56.2469 70.909 56.2707 71.0155 56.3073 71.115C56.3676 71.3045 56.4751 71.4809 56.616 71.6241C56.8679 71.8768 57.2168 72.0235 57.5762 72.0235H58.2645C58.9697 72.0235 59.555 71.4826 59.6043 70.7854L59.6546 70.0769H60.816V70.1433C60.816 70.8767 61.4154 71.4708 62.1553 71.4708H62.4073C63.1071 71.4708 63.6898 70.9382 63.7466 70.2467L63.8338 69.1816L64.9785 68.7093C65.2102 69.0987 65.6431 69.3614 66.1333 69.3614H66.657C67.3635 69.3614 67.9488 68.8193 67.9968 68.1208L68.047 67.3883L69.6515 66.5331C69.7185 66.6894 69.8092 66.8326 69.9303 66.9557C70.1823 67.2185 70.5346 67.3651 70.9006 67.3651H71.345C72.0669 67.3651 72.6597 66.7994 72.6866 66.0839L72.7438 64.5699L74.0228 63.6419C74.1303 64.0212 74.4122 64.3373 74.7883 64.4905C75.2517 64.6835 75.7819 64.6036 76.1682 64.2875L76.2255 64.2377C76.5307 63.9706 76.7055 63.5869 76.7055 63.1831V60.6507L76.8936 60.4411C77.0143 60.621 77.1755 60.7738 77.3768 60.8803C77.7864 61.1034 78.2766 61.0964 78.6862 60.8672L78.839 60.7786C79.2495 60.5402 79.5018 60.1046 79.5018 59.6331V57.3639C80.0189 56.6153 81.2543 54.732 82.0026 52.8754C82.0898 52.6558 82.1704 52.4061 82.2444 52.1267C82.018 51.9067 81.7058 51.76 81.3464 51.7469Z" fill="#FBFF00"/>
<path d="M22.3808 20.3849C22.3808 20.3849 25.1784 19.2757 27.7519 18.7213C30.3258 18.1669 34.2421 18.7213 34.2421 18.7213C34.2421 18.7213 30.997 17.3903 27.64 17.9451C24.283 18.4995 22.3808 20.3849 22.3808 20.3849Z" fill="#1E4154"/>
<path d="M76.5519 20.3849C76.5519 20.3849 73.7542 19.2757 71.1808 18.7213C68.6069 18.1669 64.6906 18.7213 64.6906 18.7213C64.6906 18.7213 67.9357 17.3903 71.2927 17.9451C74.6496 18.4995 76.5519 20.3849 76.5519 20.3849Z" fill="#1E4154"/>
<path d="M47.1109 20.7297C47.1109 20.7297 44.7013 19.6204 42.4842 19.066C40.267 18.5116 36.8933 19.066 36.8933 19.066C36.8933 19.066 39.6888 17.735 42.5802 18.2894C45.4725 18.8442 47.1109 20.7297 47.1109 20.7297Z" fill="#1E4154"/>
<path d="M51.7551 20.7297C51.7551 20.7297 54.1647 19.6204 56.3819 19.066C58.599 18.5116 61.9723 19.066 61.9723 19.066C61.9723 19.066 59.1769 17.735 56.2854 18.2898C53.394 18.8442 51.7551 20.7297 51.7551 20.7297Z" fill="#1E4154"/>
<path d="M40.1319 30.2286L43.8047 21.8662C43.8047 21.8662 43.8756 21.5881 42.1755 24.1214C40.4754 26.6551 40.1319 30.2286 40.1319 30.2286Z" fill="#A14836"/>
<path d="M59.2243 31.1092L55.5515 22.7468C55.5515 22.7468 55.4806 22.4687 57.1807 25.002C58.8803 27.5357 59.2243 31.1092 59.2243 31.1092Z" fill="#A14836"/>
<path d="M47.1101 10.9569C47.1101 10.9569 48.645 14.6112 47.8218 16.1142C46.9982 17.6172 45.9914 18.1542 45.9914 18.1542L49.2524 19.562L51.7527 17.8093C51.7527 17.8093 50.1742 12.487 48.7542 10.1414C47.3343 7.79631 45.9914 5.79956 45.9914 5.79956C45.9914 5.79956 49.4325 12.5372 49.7681 14.7002C50.1037 16.8629 49.2524 18.1542 49.2524 18.1542C49.2524 18.1542 48.7608 16.5302 48.5094 14.9499C48.257 13.3692 47.1101 10.9569 47.1101 10.9569Z" fill="#1E4154"/>
<path d="M-10.7588 84.814C-10.7588 84.814 -11.002 85.688 -10.7663 86.3633C-10.5307 87.0386 -10.3638 86.764 -10.24 87.387C-10.1158 88.0099 -11.0746 88.0536 -9.85859 88.4133C-8.64255 88.7726 -8.67646 88.4744 -7.58374 88.5639C-7.51547 88.5696 -7.45029 88.5752 -7.38731 88.5809C-7.14639 88.8564 -6.84866 89.2043 -6.70287 89.4056C-6.43553 89.7736 -6.39765 90.2498 -6.51349 90.469C-6.62976 90.6881 -6.76277 91.4023 -6.46944 91.8375C-6.17611 92.2728 -5.98893 92.137 -5.70397 92.2392C-5.41945 92.3413 -5.79161 92.6207 -6.04046 92.7944C-6.28975 92.9677 -7.0473 91.9991 -7.0473 91.9991C-7.0473 91.9991 -6.91561 92.1833 -6.58969 92.8102C-6.26376 93.4375 -7.2358 92.4203 -6.26376 93.4375C-6.21487 93.4885 -4.60509 93.0913 -4.72621 92.7521C-4.84733 92.4129 -4.73546 91.9585 -5.41064 91.7563C-5.99113 91.5826 -6.01844 91.0243 -5.77268 90.5388C-5.66257 90.5781 -5.49697 90.6074 -5.24944 90.6279C-4.02107 90.7313 -3.23842 91.0963 -2.92527 91.8799C-2.61212 92.6635 -2.60023 92.8809 -1.88629 93.0044C-1.17234 93.128 -1.25074 93.0206 -0.526665 92.6547C0.197409 92.2889 0.318974 91.8519 0.987993 91.8131C1.65701 91.7742 2.38153 91.7616 2.68322 91.9737C2.98492 92.1859 2.86336 92.6229 3.33198 92.9136C3.80104 93.2044 3.70106 93.3694 4.02434 93.3091C4.34762 93.2493 4.8158 93.1865 5.23905 92.9621C5.66231 92.7372 5.97634 93.52 6.82286 93.0703C7.66937 92.6207 7.53416 92.1339 8.00234 92.0715C8.47053 92.0091 9.59407 90.9841 9.59407 90.9841C9.59407 90.9841 8.63613 91.3813 8.27938 91.4962C7.92307 91.611 8.83608 91.0518 8.47756 90.4598C8.11949 89.8683 8.1195 89.8683 8.1195 89.8683C8.1195 89.8683 8.2895 91.0068 7.77728 91.2604C7.26505 91.5141 7.01929 91.3281 6.95322 91.7913C6.8876 92.2544 7.53372 92.1344 6.8876 92.2544C6.24104 92.3745 5.96137 91.8899 5.52711 92.2509C5.09328 92.612 4.33484 92.6792 4.12255 92.4382C3.91026 92.1973 3.98603 91.2447 3.20514 91.2312C2.42469 91.2176 2.00054 91.0889 1.47643 91.1251C0.952308 91.1613 0.87348 90.7008 0.31589 90.792C-0.24126 90.8832 -0.497155 91.1866 -0.730585 91.5712C-0.963574 91.9558 -1.30888 92.288 -1.30888 92.288C-1.30888 92.288 -2.70329 91.986 -2.64912 91.3058C-2.59494 90.6253 -2.58481 90.1359 -2.8984 89.7063C-3.21155 89.2768 -3.28422 88.687 -2.95874 88.6237C-2.63326 88.5604 -2.332 88.7726 -1.43968 88.8385C-0.547364 88.9044 0.0881767 88.9206 0.422907 89.0781C0.757637 89.2353 0.703462 89.9159 1.09281 89.3929C1.48171 88.8699 1.73672 88.2129 2.07057 88.0169C2.40442 87.8209 2.79465 87.6511 3.2069 87.5625C3.61914 87.4739 4.20008 87.817 4.01994 87.1678C3.8398 86.5187 3.79399 86.0031 3.49273 85.791C3.19104 85.5788 3.36766 84.8144 2.59954 85.3715C1.83142 85.9285 1.07343 85.9957 1.44251 86.4515C1.55747 86.5933 1.67859 86.7243 1.79795 86.8304C2.06221 87.0648 2.31633 87.1757 2.46961 87.0046C2.69203 86.7562 2.85851 86.4816 2.85851 86.4816C2.85851 86.4816 2.65856 86.8112 2.27891 86.4916C1.89925 86.1721 2.55637 85.9163 2.55637 85.9163C2.55637 85.9163 3.18091 86.0686 3.2712 86.393C3.36105 86.7178 3.036 86.8356 2.88317 87.2695C2.7299 87.703 2.21416 87.3084 1.75787 87.5882C1.30158 87.8681 1.30246 88.2212 0.945707 88.336C0.588956 88.4508 0.131781 88.3775 -0.269896 88.3299C-0.671571 88.2823 -0.821317 87.9383 -1.45995 88.1636C-2.09858 88.3888 -2.45885 88.0785 -2.88696 87.8772C-3.3155 87.676 -3.61719 87.4638 -3.92858 87.741C-4.23997 88.0182 -4.83059 88.1645 -4.32761 88.7538C-3.82464 89.3431 -3.75549 90.2931 -3.75549 90.2931C-3.75549 90.2931 -4.46018 89.3265 -5.05257 88.766C-5.64495 88.2055 -5.73568 87.5276 -7.02836 87.7677C-8.32103 88.0073 -9.01075 87.2543 -9.12306 86.8487C-9.23537 86.4432 -9.81894 86.4571 -9.5516 86.3711C-9.28426 86.2852 -8.44788 86.3249 -7.84536 86.396C-7.24329 86.4672 -6.6073 86.4833 -6.32851 86.6143C-6.04971 86.7453 -5.22301 87.2748 -5.22301 87.2748L-5.51458 86.5733C-5.51458 86.5733 -5.22478 86.568 -4.87992 86.2363C-4.53506 85.9041 -4.39016 85.9014 -4.43596 85.3859C-4.44962 85.2339 -4.44962 85.0703 -4.43772 84.9153C-4.40909 84.5438 -4.31308 84.2229 -4.17126 84.2399C-3.97042 84.2635 -3.45731 84.3635 -3.36746 84.6878C-3.27762 85.0126 -3.80129 85.0489 -3.80129 85.0489L-2.96403 85.4422C-2.96403 85.4422 -2.40864 84.6442 -2.7099 84.432C-3.01159 84.2199 -3.73699 83.8789 -4.01623 83.748C-4.29546 83.617 -4.85261 83.7082 -4.87419 83.9802C-4.89577 84.2522 -4.57999 85.7417 -5.13758 85.8329C-5.69472 85.9241 -5.82156 85.8023 -6.50556 85.7945C-7.18955 85.7866 -7.32829 85.3064 -7.5996 85.2807C-7.87091 85.2549 -8.57296 85.3488 -8.85131 85.571C-9.12967 85.7932 -9.6093 85.6386 -9.6093 85.6386L-9.83436 84.8271L-9.36794 84.0579L-10.7588 84.814Z" fill="#001525"/>
<path d="M5.71338 92.5391C5.71338 92.5391 6.07321 93.4074 6.86203 93.8784C7.65085 94.3494 7.64644 94.0342 8.26172 94.5127C8.87701 94.9911 7.75347 95.481 9.48878 95.2177C11.2241 94.9545 10.9598 94.7131 12.345 94.2752C12.4313 94.2477 12.5146 94.222 12.5943 94.1975C13.0902 94.3215 13.7095 94.4813 14.0354 94.5856C14.6326 94.7772 15.0347 95.1697 15.0585 95.4133C15.0823 95.6569 15.4553 96.3357 16.1345 96.5723C16.8136 96.8094 16.9378 96.6042 17.3576 96.5575C17.7769 96.5112 17.5373 96.9277 17.3664 97.1948C17.1955 97.462 15.5584 96.984 15.5584 96.984C15.5584 96.984 15.8548 97.0804 16.7163 97.4677C17.5782 97.8549 15.6456 97.4362 17.5782 97.8549C17.6747 97.8758 19.3197 96.7744 18.9198 96.5391C18.5199 96.3038 18.3155 95.859 17.3501 96.003C16.5199 96.127 16.0702 95.6586 16.0041 95.1243C16.1662 95.106 16.3882 95.0531 16.7022 94.9545C18.2605 94.4647 19.4769 94.4101 20.4406 94.9383C21.4043 95.4661 21.5809 95.6481 22.534 95.4181C23.4871 95.188 23.3127 95.1326 23.9121 94.4756C24.5116 93.819 24.3319 93.3847 25.1097 93.0363C25.8875 92.6875 26.752 92.3352 27.2744 92.3758C27.7967 92.4164 27.9764 92.8508 28.7595 92.8805C29.5426 92.9102 29.5453 93.0992 29.8901 92.8953C30.235 92.6914 30.7529 92.4169 31.0952 92.0235C31.4374 91.6302 32.401 92.1571 33.0859 91.3705C33.7708 90.5838 33.244 90.2276 33.762 89.9534C34.2799 89.6789 34.8688 88.2653 34.8688 88.2653C34.8688 88.2653 34.0104 89.0594 33.6664 89.3266C33.3224 89.5937 34.0055 88.6809 33.1313 88.3395C32.257 87.9982 32.257 87.9982 32.257 87.9982C32.257 87.9982 33.3127 88.8996 32.8846 89.3597C32.4561 89.8199 32.021 89.7753 32.2879 90.2058C32.5548 90.6362 33.2445 90.228 32.5548 90.6362C31.865 91.0444 31.1652 90.7584 30.9115 91.2744C30.6578 91.79 29.7941 92.2056 29.3576 92.0982C28.9216 91.9908 28.301 91.1334 27.3493 91.4896C26.3979 91.8459 25.7906 91.9349 25.1854 92.213C24.5807 92.4911 24.1411 92.1313 23.5369 92.4727C22.933 92.8141 22.8511 93.1961 22.8573 93.6379C22.8634 94.0792 22.6956 94.5284 22.6956 94.5284C22.6956 94.5284 20.7881 94.9252 20.345 94.3132C19.902 93.7012 19.5483 93.2742 18.8493 93.052C18.1508 92.8294 17.6223 92.3549 17.9671 92.1471C18.312 91.9393 18.8343 91.9799 19.9597 91.6162C21.085 91.2526 21.8637 90.9671 22.3851 90.9448C22.9066 90.9226 23.3497 91.5346 23.4281 90.9003C23.506 90.266 23.3228 89.5793 23.5792 89.2532C23.8355 88.9271 24.1786 88.5967 24.6098 88.3256C25.041 88.0549 25.9976 88.0772 25.2955 87.6022C24.5935 87.1273 24.1526 86.7043 23.6307 86.6637C23.1083 86.6226 22.7502 85.8809 22.2402 86.723C21.7302 87.5651 20.8665 87.9807 21.6518 88.1994C21.8962 88.2675 22.1402 88.3234 22.3631 88.3583C22.8568 88.436 23.2466 88.4116 23.3034 88.192C23.3858 87.8729 23.3814 87.5577 23.3814 87.5577C23.3814 87.5577 23.3867 87.9362 22.6899 87.8397C21.9931 87.7432 22.5943 87.2128 22.5943 87.2128C22.5943 87.2128 23.4616 87.0496 23.8126 87.287C24.1636 87.5245 23.8602 87.7795 23.9993 88.2256C24.1389 88.6718 23.2215 88.5744 22.8802 89.0306C22.5388 89.4868 22.804 89.7911 22.4596 90.0582C22.1156 90.3254 21.5091 90.4773 20.9894 90.6257C20.4697 90.7741 20.0319 90.548 19.4303 91.0431C18.8286 91.5385 18.1623 91.4407 17.4954 91.4691C16.8282 91.4975 16.3058 91.4569 16.1376 91.8428C15.9689 92.2287 15.3659 92.6329 16.4128 92.904C17.4598 93.1747 18.2534 93.9613 18.2534 93.9613C18.2534 93.9613 16.6815 93.4606 15.5483 93.2563C14.415 93.0525 13.7989 92.5107 12.419 93.3266C11.0391 94.1429 9.64469 93.8186 9.20602 93.5217C8.76735 93.2249 8.07454 93.5121 8.33264 93.3118C8.59073 93.1114 9.62928 92.7517 10.4084 92.529C11.188 92.3064 11.9667 92.0209 12.4009 92.0021C12.8352 91.9838 14.2274 92.0502 14.2274 92.0502L13.3514 91.5826C13.3514 91.5826 13.6971 91.4416 13.8649 90.9929C14.0327 90.5441 14.2054 90.4734 13.765 90.0504C13.635 89.9259 13.5126 89.7845 13.4113 89.6452C13.1682 89.3117 13.0444 88.9896 13.2281 88.9372C13.4879 88.863 14.1812 88.7071 14.5322 88.9446C14.8832 89.1821 14.2785 89.4601 14.2785 89.4601L15.5822 89.4043C15.5822 89.4043 15.6562 88.4544 15.1338 88.4138C14.6115 88.3727 13.4818 88.4212 13.0475 88.44C12.6132 88.4587 12.0089 88.7997 12.1864 89.0446C12.3635 89.2895 13.8574 90.4245 13.2536 90.7659C12.6498 91.1072 12.4058 91.0618 11.5751 91.3775C10.7449 91.6931 10.2181 91.3443 9.87195 91.4504C9.52577 91.556 8.74885 91.9681 8.57928 92.2907C8.40971 92.6133 7.71559 92.7063 7.71559 92.7063L6.8378 92.1126L6.82547 91.2295L5.71338 92.5391Z" fill="#001525"/>
<path d="M109.934 84.2649L110.401 85.0341L110.176 85.8457C110.176 85.8457 109.696 86.0002 109.418 85.778C109.139 85.5558 108.437 85.4619 108.166 85.4877C107.895 85.5135 107.756 85.9937 107.072 86.0015C106.388 86.0089 106.261 86.1312 105.704 86.0399C105.147 85.9487 105.463 84.4592 105.441 84.1872C105.419 83.9153 104.862 83.824 104.583 83.955C104.303 84.086 103.578 84.4269 103.276 84.6391C102.975 84.8512 103.531 85.6492 103.531 85.6492L104.368 85.2559C104.368 85.2559 103.844 85.2197 103.934 84.8949C104.023 84.5701 104.536 84.4706 104.737 84.4465C104.879 84.43 104.976 84.7508 105.004 85.1219C105.016 85.2768 105.016 85.4406 105.002 85.5925C104.956 86.108 105.101 86.1106 105.446 86.4429C105.791 86.7751 106.081 86.7799 106.081 86.7799L105.789 87.4814C105.789 87.4814 106.615 86.9523 106.895 86.8209C107.174 86.6899 107.809 86.6738 108.411 86.6026C109.013 86.5315 109.85 86.4917 110.118 86.5777C110.385 86.6637 109.802 86.6498 109.689 87.0553C109.577 87.4613 108.887 88.2143 107.594 87.9742C106.301 87.7346 106.21 88.4121 105.618 88.9726C105.026 89.5331 104.321 90.4992 104.321 90.4992C104.321 90.4992 104.39 89.5493 104.893 88.96C105.396 88.3706 104.806 88.2244 104.494 87.9472C104.183 87.67 103.881 87.8821 103.453 88.0834C103.024 88.2846 102.664 88.595 102.026 88.3698C101.387 88.1445 101.237 88.4889 100.835 88.5361C100.434 88.5837 99.9767 88.657 99.6203 88.5422C99.264 88.4274 99.2645 88.0738 98.8082 87.7944C98.3519 87.5146 97.8357 87.9096 97.6829 87.4762C97.5296 87.0422 97.2046 86.9244 97.2948 86.5996C97.3847 86.2748 98.0097 86.1229 98.0097 86.1229C98.0097 86.1229 98.6668 86.3787 98.2872 86.6987C97.9075 87.0182 97.7075 86.6886 97.7075 86.6886C97.7075 86.6886 97.874 86.9632 98.0964 87.2116C98.2497 87.3827 98.5043 87.2718 98.7681 87.0374C98.8875 86.9313 99.0086 86.8004 99.1235 86.6589C99.4926 86.2032 98.7346 86.136 97.9665 85.5789C97.1984 85.0219 97.375 85.7863 97.0733 85.9985C96.7716 86.2106 96.7258 86.7262 96.5461 87.3753C96.366 88.0244 96.9469 87.6813 97.3591 87.7699C97.7714 87.8586 98.1612 88.0284 98.4955 88.2244C98.8293 88.4204 99.0843 89.077 99.4732 89.6004C99.8621 90.1233 99.808 89.4432 100.143 89.2856C100.478 89.1285 101.113 89.1123 102.006 89.046C102.898 88.98 103.199 88.7674 103.525 88.8312C103.85 88.8945 103.778 89.4847 103.464 89.9138C103.151 90.3434 103.161 90.8327 103.215 91.5133C103.269 92.1939 101.875 92.496 101.875 92.496C101.875 92.496 101.53 92.1637 101.297 91.7792C101.064 91.3946 100.808 91.0912 100.251 90.9999C99.6935 90.9087 99.6142 91.3692 99.0901 91.333C98.5659 91.2968 98.1422 91.4251 97.3614 91.4391C96.5809 91.4526 96.6567 92.4052 96.4444 92.6461C96.2321 92.8871 95.4741 92.8194 95.0398 92.4589C94.6056 92.0978 94.3259 92.5824 93.6793 92.4623C93.0328 92.3423 93.6793 92.4623 93.6137 91.9992C93.5481 91.536 93.3023 91.722 92.7901 91.4683C92.2779 91.2147 92.4479 90.0762 92.4479 90.0762C92.4479 90.0762 92.4479 90.0762 92.0898 90.6677C91.7317 91.2597 92.6448 91.8189 92.288 91.7041C91.9312 91.5893 90.9733 91.192 90.9733 91.192C90.9733 91.192 92.0973 92.217 92.565 92.2794C93.0332 92.3419 92.8984 92.829 93.7445 93.2782C94.591 93.7279 94.9051 92.9452 95.3283 93.17C95.7516 93.3948 96.2197 93.4572 96.543 93.517C96.8663 93.5768 96.7663 93.4123 97.2354 93.1215C97.7045 92.8308 97.5829 92.3938 97.8846 92.1816C98.1863 91.9695 98.9108 91.9822 99.5798 92.021C100.249 92.0599 100.37 92.4968 101.094 92.8626C101.819 93.2285 101.74 93.3359 102.454 93.2123C103.168 93.0888 103.179 92.8718 103.493 92.0878C103.807 91.3038 104.589 90.9388 105.817 90.8358C106.065 90.8148 106.23 90.7856 106.34 90.7467C106.587 91.2322 106.559 91.7901 105.978 91.9643C105.303 92.1664 105.415 92.6212 105.294 92.9604C105.172 93.2996 106.783 93.6969 106.832 93.6458C107.804 92.6291 106.832 93.6458 107.157 93.0185C107.483 92.3912 107.615 92.2074 107.615 92.2074C107.615 92.2074 106.858 93.1761 106.608 93.0028C106.359 92.8295 105.987 92.5497 106.272 92.4475C106.556 92.3453 106.743 92.4811 107.037 92.0459C107.331 91.6106 107.198 90.896 107.081 90.6773C106.965 90.4586 107.003 89.9823 107.271 89.6139C107.416 89.4131 107.714 89.0647 107.955 88.7897C108.018 88.784 108.083 88.7784 108.152 88.7727C109.245 88.6832 109.21 88.9814 110.426 88.6221C111.642 88.2628 110.684 88.2187 110.808 87.5958C110.932 86.9728 111.098 87.2474 111.334 86.5721C111.57 85.8967 111.327 85.0228 111.327 85.0228L109.934 84.2649Z" fill="#001525"/>
<path d="M93.742 91.4374L93.7296 92.3205L92.8518 92.9142C92.8518 92.9142 92.1577 92.8217 91.9881 92.4987C91.8186 92.176 91.0421 91.7639 90.6955 91.6583C90.3493 91.5527 89.8225 91.9015 88.9923 91.5854C88.1621 91.2698 87.9181 91.3147 87.3138 90.9738C86.71 90.6324 88.2039 89.4974 88.381 89.2525C88.5585 89.0076 87.9542 88.6662 87.5199 88.6479C87.0852 88.6291 85.956 88.5811 85.4336 88.6217C84.9113 88.6623 84.9852 89.6122 84.9852 89.6122L86.2885 89.6681C86.2885 89.6681 85.6838 89.39 86.0348 89.1525C86.3858 88.9151 87.0791 89.0709 87.3389 89.1451C87.5221 89.1975 87.3988 89.5197 87.1557 89.8532C87.054 89.9924 86.9315 90.1339 86.802 90.2583C86.3616 90.6813 86.5343 90.7516 86.7021 91.2008C86.8699 91.6496 87.2156 91.7906 87.2156 91.7906L86.3396 92.2581C86.3396 92.2581 87.7318 92.1913 88.1661 92.2097C88.6008 92.2284 89.379 92.5139 90.1586 92.7366C90.9382 92.9592 91.9763 93.3189 92.2344 93.5193C92.4925 93.7197 91.7996 93.4324 91.361 93.7293C90.9223 94.0261 89.5279 94.3505 88.148 93.5341C86.7681 92.7178 86.1519 93.2595 85.0187 93.4638C83.8855 93.6677 82.3136 94.1689 82.3136 94.1689C82.3136 94.1689 83.1068 93.3822 84.1541 93.1116C85.2015 92.8409 84.5981 92.4362 84.4294 92.0503C84.2607 91.6644 83.7388 91.7054 83.0716 91.6766C82.4043 91.6483 81.7384 91.746 81.1367 91.2506C80.5351 90.7551 80.0973 90.9817 79.5776 90.8332C79.0579 90.6848 78.4514 90.5329 78.1074 90.2657C77.7634 89.9986 78.0282 89.6943 77.6868 89.2381C77.3455 88.7819 76.428 88.8793 76.5677 88.4331C76.7073 87.987 76.4034 87.732 76.7544 87.4946C77.1054 87.2571 77.9727 87.4203 77.9727 87.4203C77.9727 87.4203 78.5738 87.9507 77.8771 88.0472C77.1803 88.1437 77.1856 87.7652 77.1856 87.7652C77.1856 87.7652 77.1812 88.0804 77.2636 88.3995C77.3204 88.6195 77.7102 88.6435 78.2039 88.5658C78.4267 88.5309 78.6712 88.475 78.9152 88.4069C79.7009 88.1882 78.8368 87.7726 78.3268 86.9305C77.8167 86.0885 77.4587 86.8301 76.9363 86.8712C76.414 86.9122 75.9735 87.3348 75.2715 87.8097C74.5694 88.2847 75.526 88.2624 75.9572 88.5331C76.3884 88.8037 76.7315 89.1342 76.9878 89.4607C77.2442 89.7873 77.061 90.4735 77.1389 91.1078C77.2169 91.7421 77.6604 91.1301 78.1814 91.1523C78.7029 91.1746 79.4816 91.4601 80.6069 91.8237C81.7322 92.1874 82.2546 92.1464 82.5994 92.3546C82.9443 92.5624 82.4162 93.0369 81.7172 93.2595C81.0187 93.4822 80.665 93.9087 80.2215 94.5207C79.7784 95.1327 77.8709 94.7359 77.8709 94.7359C77.8709 94.7359 77.7031 94.2872 77.7093 93.8454C77.7154 93.404 77.6335 93.0216 77.0297 92.6802C76.4259 92.3389 75.9859 92.699 75.3811 92.4205C74.7764 92.1424 74.1691 92.0534 73.2173 91.6971C72.2659 91.3409 71.6454 92.1979 71.2094 92.3057C70.7729 92.4131 69.9092 91.9979 69.6555 91.4819C69.4018 90.9664 68.7024 91.2519 68.0122 90.8437C67.3225 90.4355 68.0122 90.8437 68.2791 90.4133C68.546 89.9829 68.1104 90.0274 67.6823 89.5673C67.2538 89.1071 68.31 88.2057 68.31 88.2057C68.31 88.2057 68.31 88.2057 67.4357 88.5471C66.5614 88.8884 67.2446 89.8012 66.9001 89.5341C66.5562 89.2669 65.6978 88.4728 65.6978 88.4728C65.6978 88.4728 66.2866 89.8864 66.8046 90.161C67.3225 90.4355 66.7958 90.7918 67.4806 91.578C68.1655 92.3646 69.1292 91.8377 69.4714 92.231C69.8136 92.6244 70.3316 92.899 70.6769 93.1028C71.0217 93.3067 71.0244 93.1177 71.8075 93.088C72.5906 93.0583 72.7702 92.6244 73.2926 92.5833C73.815 92.5427 74.6795 92.895 75.4573 93.2438C76.2351 93.5926 76.055 94.0266 76.6549 94.6831C77.2543 95.3397 77.0799 95.3955 78.033 95.6256C78.9861 95.8557 79.1627 95.6736 80.1264 95.1458C81.0901 94.6181 82.3065 94.6722 83.8648 95.162C84.1788 95.2607 84.4004 95.3135 84.5624 95.3318C84.4964 95.8661 84.0467 96.3346 83.2165 96.211C82.251 96.067 82.0467 96.5118 81.6468 96.7471C81.2468 96.9824 82.8919 98.0838 82.9883 98.0628C84.9205 97.6446 82.9883 98.0628 83.8502 97.6756C84.7122 97.2884 85.0081 97.1919 85.0081 97.1919C85.0081 97.1919 83.3711 97.6699 83.1997 97.4032C83.0288 97.136 82.7892 96.7196 83.2085 96.7659C83.6278 96.8121 83.7525 97.0173 84.4316 96.7807C85.1108 96.5441 85.4843 95.8648 85.5076 95.6217C85.5314 95.3781 85.9331 94.9856 86.5303 94.794C86.8562 94.6897 87.4755 94.5299 87.9714 94.4059C88.0515 94.4303 88.1344 94.4565 88.2207 94.4836C89.6058 94.9215 89.3416 95.1624 91.0769 95.4261C92.8122 95.6893 91.6887 95.2 92.3039 94.7211C92.9192 94.2426 92.9148 94.5578 93.7036 94.0868C94.4929 93.6158 94.8523 92.7475 94.8523 92.7475L93.742 91.4374Z" fill="#001525"/>
<path d="M22.1726 94.152L22.3624 96.7276L23.7119 95.0342L24.0752 98.4895L25.4719 96.5508L27.2856 96.8917L25.5132 94.1031L28.5994 94.9378L27.6599 93.1523L29.9163 91.6296L26.7874 91.4642L26.3699 89.1841L24.8169 91.94L24.391 88.8118L22.7984 90.8832L20.6746 90.8221L22.5333 92.4643L20.1928 92.8904L22.1726 94.152Z" fill="#001525"/>
<path d="M76.6745 93.547L77.2365 91.0251L75.4545 92.2648L76.1046 88.8511L74.2068 90.3122L72.5671 89.4701L73.4594 92.6455L70.7436 90.9696L71.1277 92.9472L68.5261 93.7657L71.4761 94.8121L71.2176 97.1153L73.5017 94.9155L73.0057 98.0338L75.1299 96.5015L77.1476 97.1624L75.8408 95.0618L78.2064 95.3176L76.6745 93.547Z" fill="#001525"/>
<path d="M102.17 86.4259L102.732 83.904L100.95 85.1433L101.6 81.73L99.7021 83.1911L98.0628 82.349L98.9551 85.524L96.2394 83.8481L96.6234 85.8256L94.0214 86.6442L96.9718 87.6905L96.7129 89.9937L98.9969 87.794L98.5015 90.9122L100.626 89.38L102.643 90.0413L101.337 87.9402L103.702 88.1961L102.17 86.4259Z" fill="#001525"/>
<path d="M61.0357 92.9732C61.0357 93.3473 59.8981 93.6503 58.4953 93.6503C57.0921 93.6503 55.9544 93.3473 55.9544 92.9732C55.9544 92.5991 57.0921 92.2961 58.4953 92.2961C59.8981 92.2961 61.0357 92.5995 61.0357 92.9732Z" fill="#401A19"/>
<path d="M44.7046 92.088C44.7046 92.4621 43.567 92.765 42.1642 92.765C40.761 92.765 39.6234 92.4616 39.6234 92.088C39.6234 91.7138 40.761 91.4109 42.1642 91.4109C43.567 91.4109 44.7046 91.7138 44.7046 92.088Z" fill="#401A19"/>
<path d="M118.557 79.8396C118.557 80.2722 117.578 80.6227 116.37 80.6227C115.162 80.6227 114.183 80.2722 114.183 79.8396C114.183 79.4069 115.162 79.0564 116.37 79.0564C117.578 79.0564 118.557 79.4069 118.557 79.8396Z" fill="#211521"/>
<path d="M119.602 86.0777C122.159 86.0777 124.231 85.3354 124.231 84.4197C124.231 83.504 122.159 82.7617 119.602 82.7617C117.045 82.7617 114.972 83.504 114.972 84.4197C114.972 85.3354 117.045 86.0777 119.602 86.0777Z" fill="#211521"/>
</svg>
