<svg width="395" height="227" viewBox="0 0 395 227" fill="none" xmlns="http://www.w3.org/2000/svg">
<g filter="url(#filter0_b_3_430)">
<mask id="path-1-inside-1_3_430" fill="white">
<path d="M222.447 0.849609C223.26 0.849609 224.072 0.849609 225 0.916081C225.403 1.06154 225.688 1.19845 225.978 1.20882C226.909 1.2421 227.842 1.20978 228.773 1.23657C231.938 1.3276 235.102 1.43607 238.267 1.53225C241.184 1.62092 244.102 1.68093 247.018 1.79236C250.678 1.93221 254.336 2.11261 257.995 2.27351C260.011 2.36215 262.028 2.4284 264.043 2.53702C267.885 2.74421 271.727 2.97212 275.569 3.19594C279.133 3.40355 282.695 3.63342 286.26 3.82404C291.342 4.09581 296.399 4.67546 301.482 4.95826C306.006 5.20996 310.519 5.65321 315.034 6.05642C320.011 6.50103 324.986 6.97808 329.959 7.47445C335.52 8.02951 341.082 8.57135 346.634 9.21044C354.715 10.1408 362.794 11.0946 370.859 12.1479C377.794 13.0537 383.565 16.2011 388.132 21.4632C391.172 24.9658 393.118 29.0096 394.104 33.5191C394.177 33.8536 394.398 34.1565 394.55 34.4741C394.55 37.4339 394.55 40.3938 394.492 43.473C394.337 43.8462 394.206 44.0927 394.15 44.355C393.31 48.2931 391.678 51.8685 389.333 55.1607C386.275 59.453 383.779 64.042 382.191 69.086C381.242 72.1007 380.674 75.1826 380.615 78.3314C380.559 81.2346 381.011 84.0917 381.842 86.8828C383.213 91.4895 385.532 95.6156 388.494 99.3759C391.299 102.935 393.219 106.868 394.159 111.282C394.218 111.559 394.417 111.807 394.55 112.069C394.55 115.029 394.55 117.989 394.49 121.064C394.293 121.581 394.118 121.974 394.026 122.385C392.875 127.539 390.401 131.978 386.68 135.74C384.01 138.439 380.826 140.372 377.359 141.897C373.3 143.682 369.262 145.512 365.216 147.325C364.954 147.442 364.704 147.585 364.449 147.716C364.464 147.785 364.478 147.854 364.493 147.923C364.786 147.981 365.076 148.066 365.372 148.094C368.262 148.375 370.849 149.388 373.12 151.193C373.48 151.479 373.88 151.725 374.284 151.948C376.702 153.286 378.612 155.121 379.971 157.522C380.273 158.055 380.631 158.562 381.005 159.05C382.68 161.235 383.694 163.673 383.953 166.414C383.988 166.779 384.059 167.146 384.169 167.496C385.004 170.158 385 172.823 384.248 175.5C384.124 175.943 383.998 176.394 383.954 176.848C383.671 179.718 382.607 182.263 380.787 184.507C380.535 184.817 380.296 185.146 380.11 185.496C378.77 188.02 376.83 189.952 374.325 191.345C373.814 191.629 373.317 191.952 372.855 192.311C371.187 193.606 369.316 194.456 367.26 194.937C366.719 195.064 366.181 195.226 365.665 195.43C362.214 196.79 358.783 196.749 355.302 195.48C354.004 195.007 352.605 194.803 351.251 194.484C351.208 194.474 351.147 194.54 351.027 194.61C351.012 194.803 350.968 195.041 350.979 195.276C351.07 197.18 351.153 199.084 351.272 200.986C351.424 203.41 351.598 205.832 351.78 208.254C351.9 209.849 352.151 211.44 352.165 213.034C352.187 215.508 351.563 217.853 350.264 219.987C348.382 223.079 345.679 225.11 342.162 226.08C341.764 226.19 341.266 226.138 341.036 226.614C339.478 226.614 337.921 226.614 336.253 226.551C335.867 226.364 335.602 226.194 335.313 226.122C330.188 224.858 325.071 223.563 319.932 222.359C311.134 220.298 302.278 218.503 293.382 216.902C291 216.473 288.627 215.994 286.242 215.586C284.559 215.298 282.864 215.083 281.172 214.852C274.157 213.896 267.144 212.917 260.122 212.012C257.67 211.696 255.267 211.323 253.087 210.067C252.827 209.917 252.407 209.863 252.125 209.956C249.673 210.764 247.183 210.683 244.655 210.462C240.202 210.072 235.742 209.748 231.281 209.451C228.401 209.259 225.515 209.15 222.631 209.029C219.591 208.902 216.55 208.771 213.509 208.704C209.317 208.61 205.124 208.554 200.931 208.523C198.832 208.508 196.865 208.022 195.026 207.058C194.38 206.72 193.854 206.696 193.203 207.027C191.665 207.808 190.011 208.229 188.283 208.316C186.981 208.381 185.676 208.413 184.373 208.441C181.05 208.511 177.728 208.561 174.406 208.638C172.139 208.69 169.874 208.769 167.608 208.845C166.647 208.877 165.684 208.908 164.725 208.982C162.47 209.157 160.247 209.037 158.109 208.255C157.503 208.033 157.001 208.05 156.431 208.343C155.01 209.075 153.491 209.506 151.89 209.627C148.856 209.855 145.82 210.061 142.788 210.306C138.826 210.626 134.861 210.926 130.907 211.324C125.346 211.885 119.789 212.493 114.237 213.147C109.304 213.728 104.373 214.344 99.4555 215.047C94.9372 215.693 90.4276 216.414 85.9341 217.212C78.0151 218.618 70.112 220.112 62.2005 221.56C60.2807 221.911 58.3914 222.396 56.4036 222.383C49.6905 222.341 43.1756 216.954 43.1817 209.011C43.1841 205.751 43.3386 202.491 43.428 199.232C43.4812 197.295 43.5492 195.358 43.5965 193.421C43.6167 192.59 43.6107 191.758 43.5956 190.927C43.5915 190.701 43.5116 190.475 43.464 190.237C43.2861 190.266 43.1815 190.256 43.1109 190.3C42.0851 190.935 41.0142 191.513 40.0525 192.233C38.3899 193.479 36.5814 194.376 34.5641 194.884C33.8747 195.057 33.1894 195.265 32.5252 195.516C29.2826 196.744 26.0374 196.754 22.7703 195.615C22.1004 195.382 21.4132 195.176 20.7176 195.04C18.3556 194.576 16.2275 193.634 14.3492 192.133C13.9898 191.846 13.5907 191.599 13.1845 191.379C10.6593 190.015 8.71771 188.082 7.34671 185.577C7.1262 185.174 6.87081 184.783 6.58309 184.425C4.79258 182.194 3.74577 179.674 3.50642 176.827C3.47835 176.493 3.40406 176.157 3.30231 175.837C2.41663 173.05 2.43186 170.265 3.27509 167.473C3.3813 167.121 3.47045 166.758 3.50812 166.394C3.80128 163.561 4.8244 161.029 6.63646 158.812C6.86962 158.526 7.08781 158.221 7.26144 157.897C8.65874 155.295 10.6636 153.298 13.2792 151.894C13.6318 151.705 13.971 151.479 14.2826 151.229C16.5707 149.39 19.1821 148.356 22.1116 148.09C22.3873 148.065 22.6656 148.01 22.9297 147.927C24.7331 147.365 26.5793 147.213 28.4571 147.325C28.6535 147.337 28.8528 147.302 29.2562 147.274C28.8996 147.062 28.7305 146.938 28.5432 146.854C24.3869 144.98 20.2243 143.12 16.0722 141.237C12.6651 139.693 9.69132 137.542 7.19348 134.778C3.41881 130.602 1.16567 125.714 0.369084 120.162C0.325009 119.855 0.126743 119.57 0.000244885 119.274C0.000244419 117.546 0.000244424 115.818 0.0563578 113.964C0.204738 113.552 0.340863 113.272 0.382721 112.979C1.05285 108.283 2.82122 104.045 5.65384 100.217C6.86354 98.5825 8.01953 96.8948 9.04347 95.1415C12.2743 89.6093 14.1614 83.7064 14.0328 77.2271C13.9642 73.7674 13.3325 70.4416 12.1729 67.2023C10.6871 63.0516 8.52775 59.2483 5.88297 55.7253C2.90942 51.7645 1.00974 47.3882 0.350851 42.487C0.313249 42.2073 0.120686 41.9481 0.000244141 41.6793C0.00024442 39.9511 0.000244407 38.2229 0.0600638 36.3744C0.21317 35.9365 0.347927 35.6246 0.393744 35.3005C1.98054 24.0738 10.4363 14.9644 21.6081 12.5623C23.8176 12.0873 26.0831 11.8516 28.3312 11.5721C33.816 10.8902 39.3032 10.2249 44.7944 9.5955C49.5759 9.04745 54.3627 8.54355 59.15 8.04654C63.1648 7.62972 67.1844 7.25799 71.2005 6.85325C74.6004 6.5106 77.9979 6.14588 81.4248 6.41448C81.6983 6.43593 81.9916 6.42209 82.2533 6.34756C84.8094 5.61965 87.436 5.39703 90.0731 5.2096C95.709 4.80904 101.342 4.36116 106.978 3.96345C110.849 3.6903 114.723 3.46581 118.596 3.22599C120.177 3.12814 121.759 3.06594 123.339 2.95471C126.471 2.73411 129.598 2.5891 132.715 3.14588C133.099 3.21453 133.534 3.21984 133.905 3.11454C137.227 2.17156 140.644 2.07848 144.059 1.96209C146.759 1.87008 149.461 1.83325 152.158 1.68496C155.146 1.52066 158.115 1.51869 161.067 2.07944C161.451 2.15243 161.88 2.13237 162.264 2.04701C164.453 1.56024 166.654 1.20368 168.905 1.21285C169.21 1.2141 169.546 1.23124 169.679 0.849609C186.962 0.849609 204.244 0.849609 221.634 0.899227C222.011 1.15641 222.256 1.19122 222.447 0.849609Z"/>
</mask>
<path d="M222.447 0.849609C223.26 0.849609 224.072 0.849609 225 0.916081C225.403 1.06154 225.688 1.19845 225.978 1.20882C226.909 1.2421 227.842 1.20978 228.773 1.23657C231.938 1.3276 235.102 1.43607 238.267 1.53225C241.184 1.62092 244.102 1.68093 247.018 1.79236C250.678 1.93221 254.336 2.11261 257.995 2.27351C260.011 2.36215 262.028 2.4284 264.043 2.53702C267.885 2.74421 271.727 2.97212 275.569 3.19594C279.133 3.40355 282.695 3.63342 286.26 3.82404C291.342 4.09581 296.399 4.67546 301.482 4.95826C306.006 5.20996 310.519 5.65321 315.034 6.05642C320.011 6.50103 324.986 6.97808 329.959 7.47445C335.52 8.02951 341.082 8.57135 346.634 9.21044C354.715 10.1408 362.794 11.0946 370.859 12.1479C377.794 13.0537 383.565 16.2011 388.132 21.4632C391.172 24.9658 393.118 29.0096 394.104 33.5191C394.177 33.8536 394.398 34.1565 394.55 34.4741C394.55 37.4339 394.55 40.3938 394.492 43.473C394.337 43.8462 394.206 44.0927 394.15 44.355C393.31 48.2931 391.678 51.8685 389.333 55.1607C386.275 59.453 383.779 64.042 382.191 69.086C381.242 72.1007 380.674 75.1826 380.615 78.3314C380.559 81.2346 381.011 84.0917 381.842 86.8828C383.213 91.4895 385.532 95.6156 388.494 99.3759C391.299 102.935 393.219 106.868 394.159 111.282C394.218 111.559 394.417 111.807 394.55 112.069C394.55 115.029 394.55 117.989 394.49 121.064C394.293 121.581 394.118 121.974 394.026 122.385C392.875 127.539 390.401 131.978 386.68 135.74C384.01 138.439 380.826 140.372 377.359 141.897C373.3 143.682 369.262 145.512 365.216 147.325C364.954 147.442 364.704 147.585 364.449 147.716C364.464 147.785 364.478 147.854 364.493 147.923C364.786 147.981 365.076 148.066 365.372 148.094C368.262 148.375 370.849 149.388 373.12 151.193C373.48 151.479 373.88 151.725 374.284 151.948C376.702 153.286 378.612 155.121 379.971 157.522C380.273 158.055 380.631 158.562 381.005 159.05C382.68 161.235 383.694 163.673 383.953 166.414C383.988 166.779 384.059 167.146 384.169 167.496C385.004 170.158 385 172.823 384.248 175.5C384.124 175.943 383.998 176.394 383.954 176.848C383.671 179.718 382.607 182.263 380.787 184.507C380.535 184.817 380.296 185.146 380.11 185.496C378.77 188.02 376.83 189.952 374.325 191.345C373.814 191.629 373.317 191.952 372.855 192.311C371.187 193.606 369.316 194.456 367.26 194.937C366.719 195.064 366.181 195.226 365.665 195.43C362.214 196.79 358.783 196.749 355.302 195.48C354.004 195.007 352.605 194.803 351.251 194.484C351.208 194.474 351.147 194.54 351.027 194.61C351.012 194.803 350.968 195.041 350.979 195.276C351.07 197.18 351.153 199.084 351.272 200.986C351.424 203.41 351.598 205.832 351.78 208.254C351.9 209.849 352.151 211.44 352.165 213.034C352.187 215.508 351.563 217.853 350.264 219.987C348.382 223.079 345.679 225.11 342.162 226.08C341.764 226.19 341.266 226.138 341.036 226.614C339.478 226.614 337.921 226.614 336.253 226.551C335.867 226.364 335.602 226.194 335.313 226.122C330.188 224.858 325.071 223.563 319.932 222.359C311.134 220.298 302.278 218.503 293.382 216.902C291 216.473 288.627 215.994 286.242 215.586C284.559 215.298 282.864 215.083 281.172 214.852C274.157 213.896 267.144 212.917 260.122 212.012C257.67 211.696 255.267 211.323 253.087 210.067C252.827 209.917 252.407 209.863 252.125 209.956C249.673 210.764 247.183 210.683 244.655 210.462C240.202 210.072 235.742 209.748 231.281 209.451C228.401 209.259 225.515 209.15 222.631 209.029C219.591 208.902 216.55 208.771 213.509 208.704C209.317 208.61 205.124 208.554 200.931 208.523C198.832 208.508 196.865 208.022 195.026 207.058C194.38 206.72 193.854 206.696 193.203 207.027C191.665 207.808 190.011 208.229 188.283 208.316C186.981 208.381 185.676 208.413 184.373 208.441C181.05 208.511 177.728 208.561 174.406 208.638C172.139 208.69 169.874 208.769 167.608 208.845C166.647 208.877 165.684 208.908 164.725 208.982C162.47 209.157 160.247 209.037 158.109 208.255C157.503 208.033 157.001 208.05 156.431 208.343C155.01 209.075 153.491 209.506 151.89 209.627C148.856 209.855 145.82 210.061 142.788 210.306C138.826 210.626 134.861 210.926 130.907 211.324C125.346 211.885 119.789 212.493 114.237 213.147C109.304 213.728 104.373 214.344 99.4555 215.047C94.9372 215.693 90.4276 216.414 85.9341 217.212C78.0151 218.618 70.112 220.112 62.2005 221.56C60.2807 221.911 58.3914 222.396 56.4036 222.383C49.6905 222.341 43.1756 216.954 43.1817 209.011C43.1841 205.751 43.3386 202.491 43.428 199.232C43.4812 197.295 43.5492 195.358 43.5965 193.421C43.6167 192.59 43.6107 191.758 43.5956 190.927C43.5915 190.701 43.5116 190.475 43.464 190.237C43.2861 190.266 43.1815 190.256 43.1109 190.3C42.0851 190.935 41.0142 191.513 40.0525 192.233C38.3899 193.479 36.5814 194.376 34.5641 194.884C33.8747 195.057 33.1894 195.265 32.5252 195.516C29.2826 196.744 26.0374 196.754 22.7703 195.615C22.1004 195.382 21.4132 195.176 20.7176 195.04C18.3556 194.576 16.2275 193.634 14.3492 192.133C13.9898 191.846 13.5907 191.599 13.1845 191.379C10.6593 190.015 8.71771 188.082 7.34671 185.577C7.1262 185.174 6.87081 184.783 6.58309 184.425C4.79258 182.194 3.74577 179.674 3.50642 176.827C3.47835 176.493 3.40406 176.157 3.30231 175.837C2.41663 173.05 2.43186 170.265 3.27509 167.473C3.3813 167.121 3.47045 166.758 3.50812 166.394C3.80128 163.561 4.8244 161.029 6.63646 158.812C6.86962 158.526 7.08781 158.221 7.26144 157.897C8.65874 155.295 10.6636 153.298 13.2792 151.894C13.6318 151.705 13.971 151.479 14.2826 151.229C16.5707 149.39 19.1821 148.356 22.1116 148.09C22.3873 148.065 22.6656 148.01 22.9297 147.927C24.7331 147.365 26.5793 147.213 28.4571 147.325C28.6535 147.337 28.8528 147.302 29.2562 147.274C28.8996 147.062 28.7305 146.938 28.5432 146.854C24.3869 144.98 20.2243 143.12 16.0722 141.237C12.6651 139.693 9.69132 137.542 7.19348 134.778C3.41881 130.602 1.16567 125.714 0.369084 120.162C0.325009 119.855 0.126743 119.57 0.000244885 119.274C0.000244419 117.546 0.000244424 115.818 0.0563578 113.964C0.204738 113.552 0.340863 113.272 0.382721 112.979C1.05285 108.283 2.82122 104.045 5.65384 100.217C6.86354 98.5825 8.01953 96.8948 9.04347 95.1415C12.2743 89.6093 14.1614 83.7064 14.0328 77.2271C13.9642 73.7674 13.3325 70.4416 12.1729 67.2023C10.6871 63.0516 8.52775 59.2483 5.88297 55.7253C2.90942 51.7645 1.00974 47.3882 0.350851 42.487C0.313249 42.2073 0.120686 41.9481 0.000244141 41.6793C0.00024442 39.9511 0.000244407 38.2229 0.0600638 36.3744C0.21317 35.9365 0.347927 35.6246 0.393744 35.3005C1.98054 24.0738 10.4363 14.9644 21.6081 12.5623C23.8176 12.0873 26.0831 11.8516 28.3312 11.5721C33.816 10.8902 39.3032 10.2249 44.7944 9.5955C49.5759 9.04745 54.3627 8.54355 59.15 8.04654C63.1648 7.62972 67.1844 7.25799 71.2005 6.85325C74.6004 6.5106 77.9979 6.14588 81.4248 6.41448C81.6983 6.43593 81.9916 6.42209 82.2533 6.34756C84.8094 5.61965 87.436 5.39703 90.0731 5.2096C95.709 4.80904 101.342 4.36116 106.978 3.96345C110.849 3.6903 114.723 3.46581 118.596 3.22599C120.177 3.12814 121.759 3.06594 123.339 2.95471C126.471 2.73411 129.598 2.5891 132.715 3.14588C133.099 3.21453 133.534 3.21984 133.905 3.11454C137.227 2.17156 140.644 2.07848 144.059 1.96209C146.759 1.87008 149.461 1.83325 152.158 1.68496C155.146 1.52066 158.115 1.51869 161.067 2.07944C161.451 2.15243 161.88 2.13237 162.264 2.04701C164.453 1.56024 166.654 1.20368 168.905 1.21285C169.21 1.2141 169.546 1.23124 169.679 0.849609C186.962 0.849609 204.244 0.849609 221.634 0.899227C222.011 1.15641 222.256 1.19122 222.447 0.849609Z" stroke="#E73D01" stroke-width="2.217" mask="url(#path-1-inside-1_3_430)"/>
</g>
<path d="M27.7896 158.882C28.3155 158.879 28.8408 158.912 29.3603 158.977L29.4967 158.99C29.4075 159.95 29.5566 160.638 29.8602 160.991C30.1639 161.343 30.6726 161.518 31.6973 161.31L32.6482 161.117L32.2194 161.979C31.9271 162.568 32.0721 163.196 32.4952 163.562C32.9183 163.928 33.6556 164.096 34.7747 163.489L35.6529 163.013L35.4706 163.988C35.3013 164.893 35.5629 165.32 35.9875 165.601C36.412 165.882 37.088 165.965 37.6743 165.839L37.6815 165.872L37.7981 165.795C38.2264 167.312 38.3353 169.088 38.0145 171.144L37.2418 175.89L33.6648 175.223L33.4887 176.149L34.2716 176.295L32.0055 182.714H30.7135L31.111 179.594L30.1678 179.476L29.7555 182.714H28.2486V179.421H27.2975V182.714H25.7908L25.3784 179.476L24.4353 179.594L24.8327 182.714H23.5358L21.2789 176.321L22.2016 176.148L22.0256 175.223L18.4542 175.889L17.5262 171.139C16.8833 167.01 18.0142 163.994 20.0048 161.964C21.9963 159.934 24.8873 158.894 27.7886 158.882L27.7896 158.882ZM28.528 159.897C26.2091 161.384 26.5075 164.827 29.5247 163.469C27.7553 166.894 30.7751 168.367 33.0785 166.252C32.8803 168.147 35.1186 168.673 36.6056 166.809C36.2005 166.75 35.8066 166.615 35.4588 166.384C34.9213 166.028 34.545 165.415 34.4869 164.63C33.4258 164.977 32.4827 164.802 31.8698 164.272C31.3122 163.789 31.0483 163.056 31.1387 162.324C30.2781 162.36 29.5832 162.121 29.1368 161.602C28.7489 161.152 28.5706 160.567 28.528 159.897ZM31.6778 168.366C30.0045 168.366 28.6481 169.71 28.6481 171.368C28.6481 173.026 30.0045 174.371 31.6778 174.371C33.3511 174.371 34.7077 173.027 34.7077 171.368C34.7077 169.71 33.3511 168.366 31.6778 168.366ZM23.6611 168.366C21.9878 168.366 20.6314 169.71 20.6314 171.368C20.6314 173.026 21.9878 174.371 23.6611 174.371C25.3345 174.371 26.691 173.027 26.691 171.368C26.691 169.71 25.3344 168.366 23.6611 168.366ZM27.7663 172.387L25.7341 177.509L26.6007 177.865L27.7662 176.076L28.9318 177.865L29.8284 177.51L27.7663 172.387Z" fill="#FBFF00"/>
<path d="M27.7896 158.882C28.3155 158.879 28.8408 158.912 29.3603 158.977L29.4967 158.99C29.4075 159.95 29.5566 160.638 29.8602 160.991C30.1639 161.343 30.6726 161.518 31.6973 161.31L32.6482 161.117L32.2194 161.979C31.9271 162.568 32.0721 163.196 32.4952 163.562C32.9183 163.928 33.6556 164.096 34.7747 163.489L35.6529 163.013L35.4706 163.988C35.3013 164.893 35.5629 165.32 35.9875 165.601C36.412 165.882 37.088 165.965 37.6743 165.839L37.6815 165.872L37.7981 165.795C38.2264 167.312 38.3353 169.088 38.0145 171.144L37.2418 175.89L33.6648 175.223L33.4887 176.149L34.2716 176.295L32.0055 182.714H30.7135L31.111 179.594L30.1678 179.476L29.7555 182.714H28.2486V179.421H27.2975V182.714H25.7908L25.3784 179.476L24.4353 179.594L24.8327 182.714H23.5358L21.2789 176.321L22.2016 176.148L22.0256 175.223L18.4542 175.889L17.5262 171.139C16.8833 167.01 18.0142 163.994 20.0048 161.964C21.9963 159.934 24.8873 158.894 27.7886 158.882L27.7896 158.882ZM28.528 159.897C26.2091 161.384 26.5075 164.827 29.5247 163.469C27.7553 166.894 30.7751 168.367 33.0785 166.252C32.8803 168.147 35.1186 168.673 36.6056 166.809C36.2005 166.75 35.8066 166.615 35.4588 166.384C34.9213 166.028 34.545 165.415 34.4869 164.63C33.4258 164.977 32.4827 164.802 31.8698 164.272C31.3122 163.789 31.0483 163.056 31.1387 162.324C30.2781 162.36 29.5832 162.121 29.1368 161.602C28.7489 161.152 28.5706 160.567 28.528 159.897ZM31.6778 168.366C30.0045 168.366 28.6481 169.71 28.6481 171.368C28.6481 173.026 30.0045 174.371 31.6778 174.371C33.3511 174.371 34.7077 173.027 34.7077 171.368C34.7077 169.71 33.3511 168.366 31.6778 168.366ZM23.6611 168.366C21.9878 168.366 20.6314 169.71 20.6314 171.368C20.6314 173.026 21.9878 174.371 23.6611 174.371C25.3345 174.371 26.691 173.027 26.691 171.368C26.691 169.71 25.3344 168.366 23.6611 168.366ZM27.7663 172.387L25.7341 177.509L26.6007 177.865L27.7662 176.076L28.9318 177.865L29.8284 177.51L27.7663 172.387Z" stroke="#FBFF00"/>
<path d="M69.7289 133.655C78.6461 95.0101 79.4282 62.8133 69.7289 34.1846C55.7468 35.5467 41.7663 37.1335 27.7857 38.9432C37.1611 51.5521 41.7209 64.4866 41.7112 77.5977C41.7404 90.598 37.3036 103.938 27.7857 116.477C34.3242 119.532 40.8627 122.41 47.4012 125.113C51.2518 118.312 53.3341 112.211 54.2085 107.045C55.0651 101.869 54.5016 98.6793 53.0248 97.3204C52.5164 96.8086 51.8687 96.4845 51.0834 96.3369C50.0357 96.1428 49.0658 96.4059 48.1509 97.1054C47.3008 97.8193 46.76 98.9007 46.4944 100.388C46.0686 99.6355 45.8775 98.7868 45.9067 97.8386C45.9552 96.815 46.2159 95.8475 46.6871 94.917C47.1745 93.9111 47.8125 93.0479 48.6108 92.3163C49.4868 91.5205 50.528 91.0071 51.757 90.7841C52.8532 90.5418 53.9624 90.6477 55.091 91.1275C56.2164 91.6056 57.2219 92.5217 58.0769 93.9127C59.0096 95.2315 59.6913 97.0508 60.0588 99.4061C60.5057 101.689 60.5624 104.583 60.0993 108.113C59.722 111.011 59.0662 114.146 58.0736 117.512C57.081 120.876 55.8278 124.343 54.2862 127.894C59.4338 129.923 64.5814 131.844 69.7289 133.655ZM62.9411 80.0283C61.9566 81.1193 60.8037 81.6118 59.5115 81.53C58.1514 81.4434 57.0098 80.8096 56.0561 79.6673C55.1007 78.5234 54.6133 77.1982 54.5647 75.6676C54.5016 73.7536 54.5146 72.0834 54.6409 70.6394C54.8254 69.1185 54.9372 67.5975 54.976 66.0782C55.0699 64.4818 55.0019 62.7378 54.7412 60.8575C54.4644 58.9018 53.8102 56.5545 52.6621 53.856C51.8234 52.6414 51.5918 51.4237 51.9869 50.1819C52.4484 48.9337 53.237 48.2535 54.3802 48.146C55.5201 48.0401 56.7102 48.5374 57.902 49.6573C59.1602 50.7723 59.7301 51.9997 59.6233 53.3169C60.0248 56.2144 60.4005 58.6659 60.8539 60.665C61.3558 62.5822 61.8254 64.3246 62.295 65.8857C62.7646 67.4467 63.1888 68.9853 63.5742 70.4983C64.0244 72.0128 64.3012 73.8241 64.3612 75.9355C64.4065 77.5608 63.924 78.9373 62.9411 80.0283ZM72.8055 134.725C79.867 115.102 83.2707 96.5743 83.3597 79.7732C83.4909 62.8566 80.1018 47.4994 72.8055 33.8878C74.7874 33.7001 76.7694 33.5156 78.7514 33.3359C81.0782 36.9217 83.486 40.6118 85.9602 44.443C88.4134 48.1957 90.7742 51.6965 93.1577 54.9004C95.538 58.1028 97.8859 60.8415 100.316 63.0282C102.736 65.1284 105.145 66.2643 107.622 66.3253C110.286 66.2948 112.085 65.3771 112.993 63.5866C113.967 61.7993 114.326 59.8933 114.054 57.9038C113.839 55.8229 113.162 54.0645 112.035 52.6174C110.906 51.1718 109.693 50.7162 108.437 51.2055C109.878 53.219 110.275 55.0689 109.676 56.6973C109.076 58.329 107.919 59.2242 106.228 59.3638C105.182 59.3975 103.981 58.8937 102.606 57.883C101.283 56.7824 99.9667 55.0384 98.5822 52.7153C97.1961 50.3921 95.8133 47.5315 94.3252 44.212C92.8825 40.8091 91.5013 36.8158 90.0196 32.3636C98.2632 31.6866 106.505 31.0881 114.747 30.5683C117.569 45.1361 119.001 62.1314 118.947 81.3952C118.978 100.574 117.49 122.22 114.747 146.708C112.696 146.241 110.644 145.755 108.592 145.253C108.848 142.113 109.062 137.876 109.153 132.7C109.329 127.417 109.303 121.888 109.031 116.202C108.759 110.518 108.205 104.965 107.355 99.5729C106.58 94.0795 105.423 89.3402 103.96 85.2554C102.561 81.1754 100.849 77.9988 98.9174 75.6066C96.9808 73.1214 94.9049 71.9406 92.7691 71.9294C91.2794 71.9262 89.9533 72.5535 88.7728 73.8049C87.8402 74.7868 87.2297 75.9484 86.9285 77.3041C86.6257 78.6598 86.4994 79.9802 86.5529 81.2733C86.6711 82.4782 86.9366 83.6077 87.3592 84.665C87.7819 85.7223 88.3373 86.425 89.0368 86.7571C88.4101 84.6169 88.4798 82.8039 89.2683 81.2492C90.1217 79.701 91.3393 79.0416 92.9586 79.2791C94.4418 79.5181 95.9526 81.1963 97.3726 84.4853C98.7895 87.6828 99.9585 92.0034 100.71 97.6429C101.523 103.292 101.876 109.952 101.599 117.791C101.401 125.527 100.467 133.846 98.6794 142.689C90.0553 140.342 81.4296 137.687 72.8055 134.725ZM133.412 39.4053C131.56 35.3927 129.772 32.2465 128.153 29.7902C124.71 29.9715 121.266 30.1672 117.824 30.3774C122.997 44.3404 125.428 61.103 125.395 80.6283C125.403 100.032 123.028 122.395 117.824 147.396C123.25 148.59 128.462 148.922 133.401 148.367C138.425 147.695 143.029 145.173 147.087 140.923C146.58 144.691 146.041 148.524 145.472 152.417C150.829 153.187 155.971 153.078 160.842 152.094C165.716 151.115 170.056 148.346 173.773 143.953C177.567 139.429 180.577 132.837 182.781 124.624C184.988 116.425 186.114 105.69 186.17 93.4346C186.23 80.3492 186.318 68.4029 186.447 57.5942C186.578 46.686 186.871 36.7869 187.415 27.9901C181.398 28.0366 175.381 28.1248 169.366 28.2548C170.693 32.1085 171.953 36.7372 173.108 42.375C174.259 47.9246 175.122 54.0357 175.716 60.7805C176.374 67.4243 176.693 74.3873 176.694 81.6247C176.694 88.7497 176.249 95.5074 175.381 101.673C174.576 107.718 173.255 112.846 171.43 116.83C169.61 120.69 167.176 122.589 164.191 122.408C162.929 122.334 161.925 121.672 161.179 120.441C160.439 119.079 159.906 117.545 159.577 115.848C159.249 114.15 159.148 112.483 159.271 110.844C159.399 109.079 159.707 107.656 160.199 106.557C160.199 108.675 160.504 110.335 161.122 111.511C161.739 112.687 162.507 113.306 163.428 113.351C164.281 113.395 165.156 112.857 166.043 111.744C167.612 109.769 168.681 106.425 169.223 101.877C169.766 97.2097 169.932 91.9794 169.701 86.3352C169.532 80.6941 169 74.8125 168.061 68.8265C167.186 62.8405 166.077 57.3279 164.718 52.2436C163.421 47.063 161.979 42.5065 160.402 38.4699C158.816 34.3482 157.294 31.1266 155.907 28.6142C151.177 28.7634 146.447 28.9399 141.717 29.142C143.391 32.9332 145.001 37.48 146.465 43.0007C147.92 48.4364 149.025 54.4127 149.781 60.9955C150.597 67.4804 150.994 74.267 150.995 81.3038C150.997 88.2315 150.482 94.7839 149.509 100.73C148.604 106.562 147.156 111.471 145.221 115.232C143.294 118.875 140.794 120.578 137.808 120.26C136.547 120.13 135.562 119.448 134.852 118.242C134.152 116.912 133.663 115.427 133.38 113.799C133.096 112.171 133.038 110.584 133.202 109.029C133.372 107.354 133.71 106.011 134.225 104.98C134.183 106.998 134.447 108.588 135.036 109.732C135.626 110.876 136.38 111.497 137.3 111.575C138.155 111.651 139.044 111.171 139.959 110.138C141.512 108.299 142.627 105.121 143.247 100.76C143.936 96.2872 144.199 91.2478 143.994 85.7977C143.785 80.3476 143.2 74.6584 142.18 68.8618C141.222 63.0667 139.97 57.7225 138.422 52.7891C136.931 47.7625 135.25 43.3344 133.412 39.4053ZM232.434 28.4104C231.198 30.0982 230.27 32.7599 229.687 36.6184C229.112 40.3952 228.678 44.5313 228.387 49.0733C228.185 53.1549 228.023 57.4129 227.905 61.8506C227.798 65.8889 227.564 68.5345 227.158 69.5838C226.486 71.27 225.694 72.5037 224.783 73.2578C223.868 73.9028 222.961 74.2301 222.056 74.2301C221.147 74.2285 220.31 73.9028 219.536 73.2514C218.83 72.6016 218.319 71.6823 218.006 70.5079C218.586 70.8288 219.104 70.9908 219.556 70.9924C220.658 70.9972 221.541 70.3009 222.206 68.9308C222.938 67.5622 223.225 65.8391 223.071 63.7903C222.809 60.6136 222.2 57.6744 221.228 54.947C220.325 52.2195 219.248 49.8979 217.987 47.9374C216.73 45.8854 215.351 44.3371 213.846 43.2446C212.412 42.0669 211.082 41.4829 209.874 41.4717C207.993 41.4589 206.722 42.7536 206.08 45.4795C205.867 46.3908 205.744 48.0337 205.714 50.4932C205.75 52.9527 205.787 55.7138 205.826 58.8151C205.867 61.8169 205.912 64.8556 205.962 67.92C206.012 70.986 206.006 73.4953 205.936 75.366C208.074 74.3777 209.954 73.8915 211.571 73.8931C214.355 73.8996 216.484 74.928 217.962 77.0233C219.442 79.1218 220.343 81.5782 220.673 84.4356C220.871 86.494 220.783 88.4112 220.406 90.1793C220.03 91.9457 219.525 93.3848 218.885 94.4726C218.247 95.5604 217.509 96.2968 216.669 96.6722C215.893 97.046 215.145 96.9337 214.426 96.3353C215.459 95.5973 216.196 94.4389 216.636 92.8842C217.078 91.2093 217.069 89.6787 216.61 88.2813C215.694 85.488 214.335 84.1307 212.525 84.1339C211.038 84.1404 209.584 85.1126 208.166 87.0988C206.683 89.2022 205.685 91.9762 205.177 95.493C204.67 99.0114 204.618 102.61 205.031 106.284C205.444 109.833 206.284 113.071 207.564 115.947C208.843 118.826 210.522 120.544 212.583 121.03C214.113 121.396 215.7 121.083 217.332 120.103C219.029 118.989 220.61 117.348 222.074 115.216C223.536 113.085 224.784 110.467 225.825 107.414C226.933 104.357 227.71 101.059 228.173 97.5514C228.444 106.228 228.926 115.315 229.629 124.783C230.332 134.247 231.258 144.159 232.434 154.494C220.835 155.604 209.236 156.16 197.638 156.16C195.256 156.16 192.874 156.136 190.492 156.089C192.213 127.475 192.924 102.706 192.935 81.5525C192.986 60.2847 192.273 42.4359 190.492 27.9692C192.874 27.9564 195.256 27.95 197.638 27.95C209.236 27.95 220.835 28.104 232.434 28.4104ZM242.528 96.7717C240.188 94.0186 237.622 91.4628 234.814 89.0915C234.78 98.6681 234.833 108.869 234.958 119.711C235.143 130.42 235.338 141.885 235.51 154.186C249.491 152.731 263.473 150.467 277.453 147.396C275.288 138.377 274.008 131.199 273.323 125.655C272.641 120.112 272.154 115.513 271.779 111.749C271.407 107.985 270.996 104.778 270.51 102.069C270.018 99.2456 269.093 96.2679 267.756 93.1201C266.476 89.86 264.65 86.1073 262.317 81.8846C259.983 77.5608 256.86 72.1203 253.021 65.7621C251.377 62.9384 250.203 60.3136 249.494 57.891C248.789 55.3721 248.449 53.1516 248.469 51.2087C248.561 49.1744 248.95 47.4208 249.63 45.9255C250.312 44.4318 251.144 43.2799 252.119 42.4456C253.391 41.3642 254.711 40.8637 256.06 40.9166C257.475 40.976 258.618 41.5343 259.486 42.6076C260.357 43.681 260.731 44.9147 260.629 46.325C259.88 45.3238 259.068 44.8104 258.201 44.7751C257.331 44.7415 256.513 45.104 255.759 45.8741C255.004 46.6443 254.454 47.7384 254.117 49.1808C253.78 50.6215 253.937 52.2821 254.58 54.172C255.224 56.0604 256.23 58.0819 257.603 60.2334C259.039 62.3865 260.778 64.6198 262.82 66.9221C264.928 69.226 267.281 71.4481 269.882 73.561C270.499 57.4177 272.905 42.9622 277.453 30.3774C263.473 29.5271 249.491 28.8997 235.51 28.497C235.69 33.8894 235.86 38.9961 235.98 43.5221C236.176 47.9647 236.461 52.1361 236.805 55.9064C237.155 59.5788 237.62 63.0395 238.182 66.2194C238.813 69.2982 239.693 72.4508 240.821 75.6692C242.018 78.7785 243.558 82.1076 245.46 85.6517C247.361 89.1974 249.819 93.3479 252.906 98.1113C254.896 101.171 256.403 104.216 257.42 107.272C258.43 110.208 259.073 113.024 259.329 115.729C259.642 118.306 259.632 120.762 259.284 123.1C258.924 125.312 258.335 127.133 257.506 128.54C256.51 130.359 255.304 131.375 253.887 131.539C252.541 131.698 251.264 131.038 250.075 129.567C248.953 128.089 248.294 126.299 248.093 124.226C249.117 125.572 250.038 126.204 250.839 126.124C251.709 126.039 252.434 125.373 253.016 124.147C253.6 122.922 253.95 121.277 254.078 119.233C254.141 117.194 253.662 114.916 252.663 112.387C251.728 109.855 250.389 107.316 248.65 104.75C246.971 102.06 244.929 99.4061 242.528 96.7717ZM280.53 146.708C277.936 121.606 276.585 99.897 276.619 80.8129C276.692 61.6453 278.109 44.9292 280.53 30.5683C284.878 30.8427 289.224 31.1395 293.571 31.4571C293.045 32.8979 292.493 34.6306 291.942 36.6826C291.38 38.7747 290.865 40.9118 290.394 43.0921C290.001 45.2356 289.658 47.3791 289.36 49.5177C289.144 51.5761 289.021 53.3265 288.961 54.7368C288.888 58.183 289.181 61.1479 289.755 63.5465C290.402 65.8552 291.225 67.6842 292.187 68.9982C293.212 70.3138 294.306 71.1625 295.454 71.5379C296.602 71.9149 297.703 71.9149 298.759 71.5491C299.948 71.0935 300.897 70.3202 301.617 69.2436C302.403 68.1655 302.977 67.0569 303.342 65.9097C303.714 64.6727 303.868 63.5336 303.792 62.4779C303.725 61.3356 303.445 60.4532 302.935 59.8227C302.849 61.4752 302.411 62.7796 301.595 63.7326C300.843 64.6872 299.956 65.1605 298.913 65.1348C297.807 65.1091 296.934 64.6374 296.303 63.7181C295.671 62.8004 295.224 61.7062 294.973 60.4468C294.731 59.0991 294.608 57.7193 294.603 56.3139C294.677 54.8234 294.778 53.5239 294.896 52.4056C295.012 51.2889 295.197 49.8386 295.474 48.0754C295.851 46.1501 296.264 44.2569 296.714 42.3926C297.25 40.4529 297.817 38.587 298.41 36.7917C299.093 34.9242 299.784 33.3262 300.458 31.9786C307.796 32.5529 315.133 33.1899 322.471 33.8878C307.636 62.2389 308.374 97.4985 322.471 134.725C318.542 136.074 314.612 137.359 310.682 138.582C309.939 133.831 308.771 128.144 307.437 121.611C306.15 114.957 304.807 108.846 303.363 103.131C301.985 97.4118 300.466 92.711 298.615 88.8669C296.769 84.9345 294.45 83.0253 291.469 83.1216C290.435 83.1585 289.499 83.3879 288.663 83.8195C287.506 84.3618 286.581 85.2538 285.898 86.5116C285.276 87.6652 284.858 88.9776 284.656 90.452C284.445 91.8238 284.442 93.1971 284.643 94.5672C284.903 95.8267 285.357 96.8663 285.996 97.6733C285.737 95.6534 285.949 94.0458 286.608 92.849C287.266 91.6505 288.119 91.0328 289.157 90.9686C289.674 90.9365 290.333 91.1531 291.134 91.6152C292.078 92.2746 292.894 93.7025 293.63 95.9246C294.361 98.0456 295.025 100.649 295.67 103.778C296.304 106.804 296.896 110.141 297.475 113.833C298.053 117.524 298.633 121.181 299.196 124.799C299.807 128.29 300.369 131.569 300.846 134.619C301.369 137.536 301.745 139.744 301.918 141.202C294.789 143.248 287.659 145.083 280.53 146.708ZM367.491 38.9432C348.285 65.8536 349.296 93.3928 367.491 116.477C362.344 118.882 357.198 121.178 352.05 123.363C350.679 120.152 349.393 117.096 348.182 114.162C346.971 111.227 345.844 108.546 344.752 106.084C343.433 103.082 342.202 100.675 340.926 98.8301C339.702 96.8952 338.484 95.4352 337.2 94.4566C335.968 93.388 334.765 92.7495 333.552 92.5634C332.339 92.3789 331.238 92.5505 330.249 93.1057C329.13 93.6768 328.273 94.5287 327.695 95.6743C327.17 96.7235 326.868 97.8915 326.8 99.1767C326.717 100.372 326.877 101.543 327.285 102.673C327.677 103.712 328.247 104.535 328.986 105.132C328.508 103.459 328.532 102.073 329.018 100.991C329.57 99.897 330.377 99.2761 331.423 99.1029C332.21 98.9713 332.933 99.0708 333.599 99.3916C335.516 100.207 337.169 103.032 339.07 107.93C340.987 112.844 342.892 118.801 345.163 126.223C338.625 128.877 332.086 131.354 325.548 133.655C320.797 113.624 318.417 95.9518 318.462 79.6593C318.546 63.3106 321.027 48.1909 325.548 34.1846C339.529 35.5467 353.511 37.1335 367.491 38.9432ZM336.348 82.1044C337.642 82.0274 338.753 81.4049 339.705 80.2706C340.66 79.1347 341.149 77.8175 341.198 76.2885C341.263 74.299 341.225 72.5888 341.034 71.1384C340.911 69.6897 340.827 68.1992 340.788 66.6702C340.749 65.1412 340.842 63.4229 341.101 61.5233C341.442 59.5515 342.17 57.145 343.41 54.3389C344.25 53.1067 344.451 51.8665 343.991 50.5943C343.598 49.3284 342.846 48.6369 341.702 48.5278C340.563 48.4171 339.337 48.9209 338.076 50.0536C336.884 51.1927 336.343 52.4409 336.449 53.7774C335.999 56.6332 335.557 59.067 335.035 61.0789C334.528 63.0122 334.015 64.8011 333.469 66.4472C333 68.0147 332.537 69.5966 332.08 71.1946C331.698 72.7123 331.458 74.4852 331.4 76.5131C331.355 78.1367 331.837 79.5117 332.82 80.6011C333.806 81.6937 334.991 82.1862 336.348 82.1044Z" fill="#E73D01"/>
<path d="M362.636 160.658C362.11 160.656 361.585 160.688 361.066 160.754L360.929 160.766C361.019 161.726 360.869 162.415 360.566 162.767C360.262 163.12 359.753 163.294 358.729 163.086L357.778 162.893L358.207 163.756C358.499 164.344 358.354 164.972 357.931 165.338C357.508 165.704 356.77 165.872 355.651 165.265L354.773 164.789L354.955 165.764C355.125 166.67 354.863 167.096 354.439 167.377C354.014 167.659 353.338 167.741 352.752 167.616L352.745 167.648L352.628 167.572C352.2 169.088 352.091 170.865 352.412 172.92L353.184 177.666L356.761 176.999L356.937 177.925L356.154 178.071L358.421 184.491H359.712L359.315 181.37L360.258 181.252L360.671 184.491H362.177V181.197H363.129V184.491H364.635L365.048 181.252L365.991 181.37L365.593 184.491H366.89L369.147 178.097L368.224 177.925L368.4 176.999L371.972 177.665L372.9 172.915C373.543 168.786 372.412 165.77 370.421 163.74C368.43 161.71 365.539 160.671 362.637 160.658L362.636 160.658ZM361.898 161.674C364.217 163.16 363.919 166.603 360.901 165.245C362.671 168.67 359.651 170.143 357.348 168.028C357.546 169.924 355.307 170.449 353.82 168.585C354.226 168.527 354.619 168.391 354.967 168.16C355.505 167.804 355.881 167.191 355.939 166.407C357 166.753 357.943 166.578 358.556 166.048C359.114 165.566 359.378 164.833 359.287 164.1C360.148 164.137 360.843 163.897 361.289 163.379C361.677 162.928 361.855 162.344 361.898 161.674ZM358.748 170.143C360.422 170.143 361.778 171.487 361.778 173.145C361.778 174.803 360.422 176.147 358.748 176.147C357.075 176.147 355.718 174.803 355.718 173.145C355.718 171.487 357.075 170.143 358.748 170.143ZM366.765 170.143C368.438 170.143 369.795 171.487 369.795 173.145C369.795 174.803 368.438 176.147 366.765 176.147C365.092 176.147 363.735 174.803 363.735 173.145C363.735 171.487 365.092 170.143 366.765 170.143ZM362.66 174.163L364.692 179.286L363.825 179.641L362.66 177.853L361.494 179.641L360.598 179.286L362.66 174.163Z" fill="#FBFF00"/>
<path d="M362.636 160.658C362.11 160.656 361.585 160.688 361.066 160.754L360.929 160.766C361.019 161.726 360.869 162.415 360.566 162.767C360.262 163.12 359.753 163.294 358.729 163.086L357.778 162.893L358.207 163.756C358.499 164.344 358.354 164.972 357.931 165.338C357.508 165.704 356.77 165.872 355.651 165.265L354.773 164.789L354.955 165.764C355.125 166.67 354.863 167.096 354.439 167.377C354.014 167.659 353.338 167.741 352.752 167.616L352.745 167.648L352.628 167.572C352.2 169.088 352.091 170.865 352.412 172.92L353.184 177.666L356.761 176.999L356.937 177.925L356.154 178.071L358.421 184.491H359.712L359.315 181.37L360.258 181.252L360.671 184.491H362.177V181.197H363.129V184.491H364.635L365.048 181.252L365.991 181.37L365.593 184.491H366.89L369.147 178.097L368.224 177.925L368.4 176.999L371.972 177.665L372.9 172.915C373.543 168.786 372.412 165.77 370.421 163.74C368.43 161.71 365.539 160.671 362.637 160.658L362.636 160.658ZM361.898 161.674C364.217 163.16 363.919 166.603 360.901 165.245C362.671 168.67 359.651 170.143 357.348 168.028C357.546 169.924 355.307 170.449 353.82 168.585C354.226 168.527 354.619 168.391 354.967 168.16C355.505 167.804 355.881 167.191 355.939 166.407C357 166.753 357.943 166.578 358.556 166.048C359.114 165.566 359.378 164.833 359.287 164.1C360.148 164.137 360.843 163.897 361.289 163.379C361.677 162.928 361.855 162.344 361.898 161.674ZM358.748 170.143C360.422 170.143 361.778 171.487 361.778 173.145C361.778 174.803 360.422 176.147 358.748 176.147C357.075 176.147 355.718 174.803 355.718 173.145C355.718 171.487 357.075 170.143 358.748 170.143ZM366.765 170.143C368.438 170.143 369.795 171.487 369.795 173.145C369.795 174.803 368.438 176.147 366.765 176.147C365.092 176.147 363.735 174.803 363.735 173.145C363.735 171.487 365.092 170.143 366.765 170.143ZM362.66 174.163L364.692 179.286L363.825 179.641L362.66 177.853L361.494 179.641L360.598 179.286L362.66 174.163Z" stroke="#FBFF00"/>
<path d="M71.1747 147.016C70.8154 148.046 70.5956 149.765 70.5153 152.166C70.4349 154.515 70.3923 156.986 70.3876 159.571C70.4065 162.11 70.4254 164.438 70.442 166.555C70.4585 168.67 70.3947 169.982 70.2505 170.492C70.0118 171.31 69.7211 171.886 69.3807 172.221C69.0403 172.502 68.6976 172.626 68.3525 172.586C68.0097 172.548 67.6883 172.352 67.3905 171.991C67.1186 171.633 66.9177 171.146 66.7901 170.53C67.0123 170.722 67.2108 170.827 67.3834 170.848C67.7994 170.902 68.1279 170.591 68.369 169.923C68.6338 169.26 68.7259 168.389 68.6432 167.302C68.5085 165.618 68.2367 163.986 67.8325 162.391C67.4495 160.803 67.0099 159.375 66.5088 158.11C66.0077 156.789 65.4711 155.716 64.8991 154.899C64.3507 154.035 63.8567 153.531 63.4124 153.41C62.7245 153.218 62.2754 153.937 62.0674 155.588C61.9989 156.138 61.9705 157.152 61.9823 158.635C62.0178 160.119 62.0556 161.747 62.0958 163.515C62.1336 165.227 62.1714 166.909 62.2092 168.562C62.2471 170.216 62.2589 171.523 62.2423 172.485C63.0483 172.066 63.7598 171.897 64.372 171.97C65.4286 172.094 66.2441 172.712 66.8161 173.806C67.3905 174.902 67.7426 176.122 67.8774 177.483C67.9577 178.464 67.927 179.352 67.7876 180.16C67.6457 180.966 67.4543 181.61 67.2132 182.095C66.9721 182.577 66.6932 182.9 66.3741 183.057C66.081 183.216 65.7997 183.158 65.5279 182.877C65.9179 182.551 66.1944 182.036 66.3622 181.329C66.5277 180.568 66.5206 179.856 66.3433 179.188C65.9911 177.853 65.4688 177.153 64.7833 177.104C64.2184 177.062 63.67 177.495 63.1358 178.422C62.5803 179.404 62.2116 180.724 62.0272 182.373C61.8452 184.022 61.8358 185.682 61.9965 187.336C62.1549 188.931 62.474 190.343 62.9491 191.563C63.4242 192.783 64.0435 193.467 64.8046 193.634C65.3695 193.76 65.9557 193.603 66.5655 193.177C67.199 192.694 67.7946 192.001 68.3501 191.109C68.9079 190.217 69.3901 189.125 69.7967 187.837C70.2269 186.549 70.5365 185.146 70.7209 183.617C70.7989 187.42 70.9124 191.196 71.0636 194.926C71.2149 198.66 71.404 202.376 71.6286 206.065C66.7121 206.969 61.7956 207.927 56.8815 208.939C57.2738 197.428 57.4251 186.261 57.3329 175.218C57.2644 164.122 56.924 153.035 56.3142 141.73C61.2685 143.592 66.2228 145.355 71.1747 147.016ZM72.7159 205.868C73.1295 195.849 73.2997 186.132 73.2288 176.525C73.1791 166.869 72.8624 157.225 72.2715 147.381C77.2234 149.03 82.173 150.576 87.1202 152.023C86.6097 152.829 86.2598 153.922 86.0731 155.3C85.91 156.681 85.8225 158.206 85.8084 159.862C85.8202 161.478 85.8675 163.195 85.9549 165.007C86.04 166.773 86.0755 168.504 86.0636 170.206C86.0495 171.862 85.936 173.415 85.7256 174.874C85.5413 176.336 85.1796 177.56 84.6478 178.556C83.993 179.776 83.3005 180.387 82.563 180.357C81.9012 180.329 81.445 179.806 81.1921 178.781C81.4143 178.937 81.6104 179.019 81.7806 179.029C82.1494 179.05 82.4306 178.755 82.6221 178.148C82.8372 177.544 82.979 176.773 83.0476 175.832C83.2721 172.916 83.291 170.38 83.1043 168.176C82.9412 165.932 82.6576 164.035 82.2557 162.48C81.8752 160.927 81.4261 159.728 80.9037 158.885C80.4073 158.047 79.9251 157.564 79.4571 157.45C78.7433 157.272 78.2564 157.937 77.9987 159.459C77.8569 160.365 77.8191 161.817 77.8829 163.808C77.9704 165.754 78.0602 168.019 78.1524 170.598C78.2682 173.132 78.3367 175.876 78.3604 178.837C78.4053 181.753 78.3273 184.706 78.1287 187.729C77.9751 190.062 78.098 191.723 78.4951 192.683C78.8946 193.596 79.4358 194.018 80.1237 193.964C80.7099 193.919 81.3575 193.577 82.0643 192.954C82.7687 192.285 83.4376 191.463 84.0687 190.493C84.6974 189.526 85.2434 188.46 85.6996 187.294C86.1818 186.127 86.482 184.98 86.5955 183.832C86.6664 187.139 86.7751 190.42 86.9193 193.664C87.0635 196.908 87.2431 200.137 87.4606 203.346C82.5465 204.13 77.63 204.971 72.7159 205.868ZM88.5479 203.173C88.9804 194.465 89.1719 186.02 89.1152 177.67C89.0868 169.277 88.7866 160.895 88.2146 152.339C89.751 152.784 91.2898 153.22 92.8285 153.646C92.8073 154.463 92.8025 155.438 92.8096 156.567C92.8167 157.695 92.8238 158.845 92.8309 160.016C92.8616 161.15 92.8947 162.262 92.9255 163.351C92.9822 164.403 93.0365 165.277 93.0886 165.979C93.2469 167.694 93.4762 169.131 93.7787 170.291C94.1049 171.408 94.4666 172.286 94.8613 172.926C95.2821 173.57 95.7146 173.991 96.1566 174.204C96.601 174.415 97.017 174.453 97.4094 174.324C97.849 174.157 98.1918 173.839 98.4329 173.366C98.7 172.897 98.882 172.403 98.9765 171.881C99.0711 171.317 99.0805 170.783 99.0049 170.279C98.9269 169.736 98.778 169.302 98.5558 168.984C98.6078 169.776 98.5014 170.377 98.2343 170.799C97.9909 171.225 97.6741 171.415 97.2817 171.368C96.8634 171.317 96.5183 171.066 96.2464 170.609C95.9723 170.155 95.7619 169.619 95.6106 169.005C95.4593 168.347 95.3459 167.672 95.2679 166.979C95.2135 166.251 95.1733 165.604 95.145 165.047C95.1166 164.49 95.0882 163.764 95.0575 162.864C95.0528 161.927 95.0457 160.949 95.041 159.925C95.0575 158.909 95.0764 157.916 95.0953 156.944C95.1379 155.934 95.1946 155.056 95.2631 154.311C97.8585 155.014 100.454 155.686 103.047 156.332C102.101 171.443 102.189 186.732 103.295 201.004C101.915 201.191 100.532 201.383 99.1491 201.58C99.2862 199.87 99.3358 197.77 99.2956 195.266C99.2814 192.718 99.1207 190.285 98.8134 187.94C98.5298 185.596 98.0641 183.586 97.4165 181.898C96.7688 180.169 95.8824 179.251 94.7526 179.19C94.3602 179.169 94.0057 179.237 93.6889 179.392C93.2469 179.586 92.8947 179.935 92.6276 180.448C92.3865 180.916 92.2187 181.455 92.1242 182.066C92.0296 182.631 92.0083 183.2 92.0603 183.769C92.1383 184.296 92.2873 184.734 92.5094 185.083C92.4551 184.254 92.5614 183.6 92.8285 183.127C93.0956 182.654 93.4242 182.425 93.8166 182.436C94.0128 182.441 94.2586 182.554 94.554 182.776C94.8991 183.083 95.1851 183.706 95.4121 184.643C95.6366 185.535 95.8163 186.615 95.9463 187.882C96.0763 189.104 96.1566 190.432 96.1897 191.865C96.2228 193.299 96.2323 194.692 96.2157 196.046C96.2228 197.355 96.2063 198.561 96.1637 199.664C96.1472 200.723 96.1141 201.51 96.0692 202.025C93.5613 202.393 91.0558 202.777 88.5479 203.173ZM104.141 156.602C109.084 157.817 114.024 158.932 118.962 159.946C117.988 173.183 118.047 186.544 119.129 199.039C114.213 199.589 109.299 200.196 104.382 200.856C104.831 193.278 105.037 185.924 104.997 178.654C104.983 171.345 104.697 164.045 104.141 156.602ZM111.568 191.769C112.083 191.741 112.511 191.46 112.851 190.931C113.215 190.364 113.395 189.722 113.393 188.994C113.388 188.083 113.319 186.701 113.189 184.842C113.083 182.98 112.974 180.987 112.866 178.86C112.757 176.699 112.674 174.57 112.615 172.476C112.58 170.384 112.634 168.649 112.773 167.284C112.944 166.686 112.866 166.075 112.544 165.436C112.246 164.801 111.889 164.443 111.471 164.37C111.055 164.298 110.686 164.527 110.372 165.07C110.079 165.616 110.02 166.227 110.197 166.89C110.351 168.295 110.407 170.073 110.37 172.232C110.332 174.354 110.256 176.514 110.145 178.713C110.058 180.877 109.958 182.917 109.845 184.828C109.757 186.741 109.715 188.172 109.72 189.111C109.724 189.861 109.897 190.514 110.244 191.057C110.613 191.563 111.055 191.797 111.568 191.769ZM134.86 162.864C134.493 163.48 134.262 164.494 134.17 165.902C134.075 167.279 134.018 168.726 133.999 170.239C134.004 171.724 134.006 173.087 134.011 174.324C134.016 175.563 133.943 176.331 133.798 176.631C133.555 177.111 133.262 177.453 132.919 177.652C132.576 177.818 132.234 177.895 131.891 177.877C131.548 177.858 131.229 177.745 130.934 177.537C130.664 177.333 130.466 177.05 130.343 176.692C130.563 176.802 130.759 176.862 130.931 176.872C131.347 176.9 131.678 176.715 131.922 176.321C132.191 175.93 132.286 175.422 132.21 174.79C132.085 173.808 131.825 172.86 131.43 171.937C131.059 171.019 130.626 170.195 130.135 169.469C129.641 168.71 129.111 168.096 128.546 167.635C128.005 167.143 127.513 166.86 127.071 166.799C126.384 166.7 125.932 167.124 125.715 168.085C125.644 168.403 125.608 168.993 125.611 169.85C125.639 170.71 125.667 171.652 125.696 172.675C125.724 173.666 125.752 174.64 125.781 175.598C125.809 176.553 125.812 177.31 125.788 177.87C126.596 177.619 127.308 177.516 127.92 177.553C128.974 177.617 129.783 177.968 130.35 178.6C130.915 179.233 131.26 179.942 131.385 180.734C131.461 181.305 131.425 181.823 131.281 182.294C131.135 182.764 130.941 183.141 130.695 183.422C130.451 183.703 130.17 183.893 129.853 183.985C129.56 184.078 129.277 184.043 129.007 183.881C129.4 183.692 129.679 183.392 129.849 182.98C130.019 182.535 130.019 182.123 129.846 181.734C129.499 180.959 128.984 180.556 128.298 180.53C127.733 180.509 127.185 180.764 126.646 181.303C126.086 181.874 125.71 182.64 125.516 183.596C125.325 184.549 125.303 185.512 125.455 186.467C125.604 187.39 125.913 188.21 126.381 188.917C126.849 189.626 127.461 190.027 128.223 190.128C128.785 190.203 129.371 190.116 129.983 189.87C130.619 189.594 131.217 189.193 131.778 188.676C132.34 188.158 132.827 187.523 133.241 186.772C133.68 186.02 133.995 185.2 134.188 184.305C134.245 186.53 134.337 188.739 134.465 190.924C134.595 193.109 134.76 195.287 134.964 197.453C131.7 197.741 128.435 198.053 125.171 198.39C123.519 198.559 121.869 198.737 120.217 198.917C120.678 192.285 120.895 185.844 120.869 179.474C120.867 173.073 120.595 166.679 120.054 160.169C121.713 160.504 123.372 160.829 125.029 161.141C128.308 161.761 131.584 162.335 134.86 162.864ZM136.741 182.184C137.795 182.844 138.753 183.533 139.611 184.252C140.495 184.942 141.23 185.619 141.821 186.289C142.433 186.928 142.889 187.549 143.182 188.153C143.504 188.755 143.627 189.287 143.553 189.753C143.457 190.219 143.286 190.589 143.043 190.858C142.799 191.13 142.518 191.273 142.199 191.285C141.906 191.296 141.587 191.149 141.244 190.837C141.27 191.308 141.466 191.711 141.835 192.046C142.227 192.381 142.667 192.533 143.156 192.509C143.672 192.486 144.135 192.275 144.551 191.884C144.891 191.582 145.161 191.184 145.355 190.69C145.548 190.167 145.622 189.608 145.572 189.008C145.546 188.38 145.373 187.713 145.052 186.999C144.733 186.256 144.218 185.497 143.506 184.713C142.4 183.49 141.492 182.39 140.778 181.427C140.067 180.464 139.476 179.535 139.008 178.647C138.566 177.731 138.207 176.811 137.935 175.891C137.687 174.942 137.465 173.883 137.266 172.717C137.065 171.523 136.867 170.155 136.666 168.614C136.488 167.045 136.25 165.19 135.949 163.04C140.882 163.822 145.813 164.506 150.741 165.087C150.309 169.605 150.058 174.111 149.995 178.558C148.988 177.935 148.068 177.272 147.234 176.577C146.425 175.884 145.726 175.197 145.135 174.527C144.57 173.858 144.14 173.218 143.844 172.616C143.549 172.015 143.438 171.481 143.511 171.024C143.584 170.567 143.743 170.221 143.986 169.986C144.229 169.75 144.513 169.649 144.83 169.682C145.149 169.712 145.468 169.902 145.787 170.246C145.763 169.787 145.565 169.37 145.196 168.989C144.827 168.605 144.388 168.384 143.873 168.328C143.381 168.274 142.929 168.41 142.513 168.745C142.194 169 141.939 169.368 141.743 169.846C141.549 170.324 141.464 170.888 141.49 171.537C141.54 172.157 141.726 172.865 142.045 173.649C142.367 174.406 142.859 175.214 143.523 176.066C145.071 177.982 146.286 179.507 147.17 180.692C148.054 181.849 148.716 182.839 149.158 183.685C149.626 184.5 149.921 185.249 150.044 185.945C150.167 186.612 150.243 187.39 150.269 188.277C150.295 189.167 150.321 190.235 150.349 191.484C150.375 192.732 150.524 194.325 150.796 196.245C145.882 196.561 140.965 196.934 136.051 197.357C136.264 194.777 136.415 192.242 136.505 189.746C136.621 187.219 136.699 184.701 136.741 182.184ZM162.853 166.314C167.779 166.733 172.7 167.049 177.621 167.265C176.596 176.781 176.598 186.118 177.628 195.062C172.712 195.179 167.798 195.35 162.881 195.577C163.366 190.587 163.607 185.706 163.602 180.884C163.621 176.036 163.373 171.197 162.853 166.314ZM170.105 189.713C170.618 189.704 171.048 189.521 171.388 189.165C171.757 188.781 171.939 188.341 171.939 187.839C171.939 187.212 171.878 186.256 171.755 184.975C171.655 183.694 171.556 182.324 171.459 180.863C171.36 179.378 171.284 177.916 171.235 176.481C171.211 175.045 171.27 173.851 171.417 172.9C171.589 172.481 171.516 172.064 171.197 171.644C170.901 171.23 170.547 171.01 170.131 170.989C169.715 170.968 169.348 171.153 169.029 171.541C168.736 171.933 168.675 172.349 168.847 172.79C168.994 173.734 169.044 174.94 168.996 176.41C168.949 177.855 168.864 179.324 168.741 180.82C168.644 182.291 168.535 183.675 168.415 184.973C168.318 186.268 168.268 187.235 168.268 187.872C168.271 188.38 168.441 188.823 168.784 189.2C169.15 189.549 169.592 189.72 170.105 189.713ZM179.446 181.956C179.496 179.495 179.446 177.059 179.297 174.645C179.174 172.204 178.978 169.762 178.709 167.312C183.63 167.513 188.546 167.612 193.463 167.612C193.217 167.951 193.035 168.448 192.912 169.103C192.789 169.733 192.704 170.422 192.654 171.174C192.607 171.926 192.569 172.701 192.546 173.499C192.546 174.3 192.546 175.052 192.546 175.755C192.546 176.432 192.52 177.026 192.472 177.535C192.446 178.043 192.385 178.382 192.288 178.553C192.045 178.916 191.763 179.181 191.444 179.35C191.128 179.521 190.797 179.605 190.454 179.603C190.111 179.603 189.794 179.528 189.501 179.382C189.206 179.212 188.998 178.991 188.877 178.724C189.097 178.797 189.293 178.834 189.463 178.837C189.88 178.837 190.21 178.68 190.454 178.366C190.723 178.052 190.808 177.652 190.712 177.167C190.589 176.415 190.345 175.698 189.976 175.017C189.61 174.335 189.182 173.738 188.693 173.225C188.204 172.687 187.691 172.267 187.152 171.97C186.613 171.647 186.124 171.481 185.684 171.474C184.998 171.462 184.547 171.818 184.327 172.546C184.254 172.787 184.216 173.228 184.216 173.86C184.24 174.495 184.266 175.19 184.289 175.947C184.315 176.68 184.339 177.399 184.363 178.106C184.389 178.813 184.389 179.375 184.363 179.79C185.171 179.577 185.88 179.471 186.492 179.476C187.544 179.483 188.35 179.717 188.913 180.181C189.475 180.642 189.818 181.179 189.941 181.785C190.014 182.221 189.976 182.621 189.83 182.984C189.683 183.347 189.487 183.64 189.244 183.858C189 184.076 188.717 184.221 188.4 184.294C188.107 184.366 187.825 184.343 187.556 184.221C187.948 184.076 188.23 183.844 188.4 183.528C188.57 183.188 188.57 182.874 188.4 182.582C188.057 181.999 187.556 181.706 186.897 181.703C186.577 181.701 186.247 181.785 185.904 181.954C185.563 182.099 185.244 182.317 184.951 182.61C184.682 182.877 184.45 183.205 184.254 183.593C184.084 183.985 183.984 184.411 183.961 184.874C183.937 185.654 183.996 186.303 184.145 186.814C184.315 187.327 184.535 187.788 184.805 188.202C185.074 188.615 185.367 189.015 185.686 189.404C186.027 189.767 186.334 190.191 186.603 190.676C186.897 191.16 187.128 191.744 187.298 192.423C187.495 193.076 187.594 193.903 187.594 194.898C184.634 194.924 181.675 194.971 178.716 195.036C178.789 194.271 178.862 193.308 178.936 192.149C179.033 190.966 179.106 189.746 179.155 188.491C179.229 187.233 179.288 186.027 179.337 184.872C179.385 183.689 179.423 182.717 179.446 181.956Z" fill="#FBFF00"/>
<path d="M205.849 174.549C205.409 174.458 205.005 174.484 204.638 174.631C204.296 174.755 204.003 174.95 203.757 175.219C203.537 175.462 203.39 175.741 203.317 176.057C203.244 176.348 203.256 176.626 203.355 176.893C203.575 176.287 203.979 175.982 204.565 175.978C205.054 175.975 205.456 176.191 205.775 176.626C206.019 176.94 206.104 177.437 206.031 178.118C205.957 178.774 205.752 179.502 205.409 180.306C205.09 181.083 204.65 181.861 204.088 182.636C203.525 183.414 202.877 184.055 202.145 184.564C202.218 181.753 202.206 178.966 202.107 176.205C202.01 173.418 201.79 170.631 201.447 167.844C206.362 167.844 211.271 167.727 216.173 167.49C215.835 170.35 215.606 173.198 215.488 176.041C215.393 178.856 215.384 181.695 215.459 184.556C214.727 184.039 214.077 183.388 213.514 182.606C212.951 181.823 212.498 181.041 212.155 180.261C211.838 179.456 211.642 178.725 211.569 178.064C211.493 177.381 211.581 176.877 211.824 176.556C212.164 176.109 212.569 175.882 213.032 175.872C213.618 175.861 214.034 176.158 214.28 176.769C214.4 176.495 214.412 176.212 214.315 175.919C214.242 175.601 214.081 175.322 213.838 175.081C213.618 174.816 213.325 174.626 212.959 174.512C212.592 174.373 212.188 174.357 211.748 174.465C210.772 174.68 210.148 175.287 209.881 176.292C209.638 177.271 209.626 178.465 209.846 179.877C210.091 181.266 210.496 182.777 211.058 184.414C211.621 186.027 212.233 187.571 212.895 189.048C213.557 190.526 214.195 191.84 214.807 192.985C215.422 194.131 215.887 194.911 216.206 195.316C211.283 195.175 206.362 195.105 201.447 195.105C201.764 194.716 202.23 193.967 202.842 192.852C203.452 191.739 204.088 190.456 204.749 189.004C205.409 187.55 206.021 186.02 206.584 184.418C207.144 182.791 207.536 181.28 207.756 179.894C207.976 178.481 207.95 177.289 207.68 176.317C207.437 175.324 206.825 174.736 205.849 174.549ZM217.296 195.348C217.781 190.625 218.017 185.934 218.01 181.308C218.029 176.659 217.776 172.024 217.258 167.436C218.783 167.357 220.305 167.265 221.827 167.165C221.804 167.645 221.794 168.212 221.794 168.867C221.796 169.523 221.799 170.191 221.799 170.87C221.825 171.523 221.851 172.165 221.877 172.795C221.926 173.397 221.978 173.898 222.028 174.301C222.175 175.277 222.397 176.09 222.692 176.737C223.011 177.36 223.366 177.842 223.758 178.186C224.174 178.531 224.602 178.748 225.042 178.84C225.481 178.931 225.897 178.919 226.287 178.807C226.727 178.666 227.067 178.437 227.311 178.121C227.578 177.802 227.76 177.472 227.857 177.132C227.952 176.767 227.963 176.432 227.89 176.123C227.814 175.79 227.668 175.54 227.448 175.369C227.498 175.856 227.389 176.247 227.122 176.542C226.878 176.835 226.562 176.987 226.172 177.001C225.756 177.015 225.415 176.9 225.146 176.655C224.876 176.409 224.668 176.111 224.519 175.76C224.373 175.383 224.262 174.994 224.188 174.589C224.136 174.16 224.099 173.781 224.075 173.451C224.049 173.12 224.023 172.69 223.997 172.158C223.997 171.598 223.995 171.015 223.992 170.406C224.016 169.795 224.04 169.195 224.061 168.61C224.108 167.996 224.167 167.457 224.241 166.994C226.81 166.802 229.377 166.577 231.941 166.319C230.97 176.633 231.008 186.367 232.083 196.009C230.698 195.927 229.311 195.852 227.926 195.782C228.067 194.728 228.124 193.412 228.093 191.833C228.089 190.229 227.935 188.685 227.637 187.21C227.363 185.737 226.904 184.486 226.266 183.463C225.626 182.416 224.746 181.905 223.621 181.919C223.229 181.924 222.877 181.98 222.558 182.086C222.118 182.217 221.763 182.435 221.496 182.737C221.253 183.015 221.083 183.332 220.986 183.683C220.886 184.011 220.863 184.336 220.912 184.664C220.988 184.964 221.135 185.215 221.354 185.416C221.305 184.938 221.414 184.561 221.683 184.285C221.952 184.006 222.281 183.866 222.673 183.866C222.867 183.863 223.113 183.926 223.406 184.053C223.749 184.229 224.032 184.596 224.252 185.156C224.475 185.69 224.647 186.339 224.772 187.105C224.898 187.845 224.973 188.65 224.999 189.519C225.028 190.386 225.03 191.229 225.006 192.044C225.009 192.835 224.987 193.562 224.94 194.222C224.917 194.859 224.881 195.327 224.834 195.632C222.321 195.519 219.809 195.423 217.296 195.348ZM247.665 164.329C247.308 165.029 247.086 166.05 247.003 167.399C246.918 168.717 246.871 170.09 246.859 171.514C246.873 172.907 246.885 174.184 246.897 175.345C246.908 176.505 246.842 177.235 246.698 177.533C246.459 178.011 246.169 178.355 245.83 178.573C245.49 178.762 245.147 178.861 244.807 178.877C244.464 178.891 244.148 178.819 243.852 178.662C243.583 178.502 243.386 178.271 243.261 177.966C243.481 178.039 243.677 178.074 243.847 178.064C244.263 178.046 244.59 177.844 244.831 177.46C245.095 177.074 245.19 176.594 245.11 176.027C244.98 175.146 244.717 174.32 244.32 173.551C243.949 172.783 243.516 172.125 243.025 171.577C242.533 171.001 242.006 170.572 241.443 170.294C240.907 169.982 240.418 169.851 239.98 169.893C239.3 169.961 238.853 170.415 238.638 171.259C238.567 171.537 238.534 172.034 238.538 172.748C238.569 173.46 238.598 174.24 238.628 175.088C238.659 175.91 238.69 176.718 238.718 177.512C238.749 178.308 238.754 178.938 238.732 179.406C239.536 179.13 240.243 178.978 240.853 178.954C241.902 178.912 242.71 179.144 243.275 179.662C243.84 180.179 244.188 180.795 244.318 181.505C244.396 182.015 244.363 182.486 244.218 182.915C244.077 183.346 243.885 183.688 243.642 183.945C243.398 184.201 243.119 184.371 242.803 184.458C242.51 184.542 242.228 184.514 241.956 184.376C242.346 184.208 242.628 183.938 242.796 183.571C242.963 183.172 242.959 182.807 242.786 182.47C242.439 181.8 241.923 181.477 241.238 181.493C240.675 181.505 240.129 181.753 239.595 182.233C239.035 182.739 238.661 183.388 238.47 184.184C238.281 184.98 238.262 185.772 238.413 186.566C238.564 187.334 238.876 188.025 239.347 188.641C239.815 189.259 240.432 189.636 241.193 189.772C241.755 189.873 242.344 189.838 242.956 189.66C243.59 189.456 244.188 189.133 244.748 188.69C245.308 188.25 245.793 187.685 246.202 186.999C246.637 186.313 246.946 185.547 247.133 184.704C247.204 186.795 247.31 188.875 247.452 190.945C247.596 193.018 247.776 195.098 247.993 197.189C243.048 196.747 238.111 196.377 233.175 196.074C233.641 191.034 233.858 186.004 233.832 181.046C233.83 176.06 233.558 171.092 233.022 166.209C237.91 165.701 242.791 165.073 247.665 164.329ZM274.202 159.089C273.469 173.505 273.72 186.849 275.02 200.292C273.311 200.054 271.604 199.822 269.895 199.599C269.779 199.583 269.661 199.566 269.543 199.552C269.569 198.199 269.557 196.875 269.51 195.583C269.463 194.29 269.368 193.081 269.224 191.96C269.054 190.594 268.801 189.47 268.465 188.596C268.156 187.688 267.789 186.992 267.364 186.507C266.964 185.987 266.541 185.662 266.099 185.524C265.657 185.386 265.241 185.402 264.851 185.568C264.414 185.735 264.064 186.016 263.802 186.409C263.561 186.772 263.397 187.182 263.305 187.643C263.215 188.07 263.208 188.498 263.289 188.931C263.369 189.33 263.52 189.667 263.747 189.941C263.688 189.308 263.778 188.814 264.017 188.456C264.281 188.1 264.608 187.924 265 187.934C265.296 187.941 265.553 188.032 265.778 188.208C266.421 188.662 266.858 189.92 267.09 191.981C267.321 194.042 267.326 196.477 267.104 199.241C264.787 198.95 262.471 198.674 260.154 198.414C260.559 192.332 260.712 186.226 260.625 180.212C260.561 174.163 260.228 168.139 259.632 162.261C262.821 161.645 266.005 160.979 269.186 160.263C270.86 159.886 272.531 159.495 274.202 159.089ZM267.385 181.261C267.872 181.247 268.295 180.992 268.654 180.491C269.011 179.992 269.184 179.388 269.172 178.692C269.155 177.786 269.08 177.004 268.947 176.352C268.836 175.699 268.728 175.029 268.619 174.345C268.508 173.661 268.423 172.889 268.359 172.029C268.319 171.13 268.359 170.015 268.482 168.675C268.64 168.062 268.557 167.497 268.234 166.994C267.931 166.488 267.576 166.272 267.165 166.34C266.752 166.411 266.392 166.743 266.087 167.336C265.806 167.926 265.754 168.49 265.934 169.043C266.076 170.282 266.13 171.348 266.097 172.235C266.061 173.09 265.99 173.879 265.879 174.601C265.794 175.287 265.695 175.973 265.586 176.657C265.499 177.306 265.461 178.05 265.475 178.894C265.487 179.568 265.678 180.132 266.054 180.594C266.428 181.053 266.872 181.28 267.385 181.261ZM286.77 155.776C287.732 155.502 288.415 155.68 288.819 156.331C289.221 156.94 289.474 157.853 289.578 159.064C289.705 160.228 289.727 161.614 289.646 163.209C289.564 164.804 289.521 166.427 289.514 168.085C289.507 171.666 288.365 173.814 286.089 174.484C288.389 175.802 289.587 177.844 289.677 180.467C289.769 183.128 289.895 185.746 290.058 188.332C290.244 190.915 290.384 193.552 290.476 196.227C290.519 197.922 290.441 199.203 290.242 200.058C290.065 200.918 289.786 201.503 289.398 201.817C289.013 202.131 288.535 202.26 287.968 202.206C287.401 202.154 286.772 202.072 286.079 201.96C282.758 201.426 279.435 200.92 276.117 200.447C276.497 193.641 276.599 186.697 276.431 179.769C276.289 172.804 275.899 165.776 275.275 158.83C279.109 157.886 282.941 156.867 286.77 155.776ZM281.326 180.755C281.347 181.73 281.416 182.606 281.532 183.383C281.671 184.123 281.799 184.905 281.915 185.73C282.054 186.514 282.16 187.418 282.231 188.442C282.302 189.423 282.293 190.641 282.203 192.086C282.047 192.742 282.123 193.409 282.432 194.103C282.768 194.758 283.144 195.11 283.562 195.152C283.981 195.192 284.33 194.908 284.609 194.292C284.914 193.639 284.971 192.957 284.784 192.262C284.6 190.725 284.51 189.461 284.51 188.456C284.536 187.416 284.588 186.493 284.666 185.69C284.746 184.887 284.827 184.1 284.905 183.332C285.009 182.524 285.049 181.613 285.025 180.603C285.006 179.795 284.808 179.116 284.427 178.577C284.049 178.036 283.617 177.788 283.13 177.821C282.617 177.856 282.184 178.163 281.832 178.734C281.477 179.303 281.31 179.976 281.326 180.755ZM280.879 170.549C280.898 171.326 281.083 171.985 281.437 172.53C281.813 173.034 282.257 173.263 282.768 173.205C283.279 173.149 283.697 172.821 284.023 172.219C284.375 171.572 284.541 170.842 284.522 170.036C284.51 169.593 284.493 168.888 284.472 167.921C284.472 166.909 284.413 165.928 284.293 164.98C284.174 163.991 283.971 163.144 283.687 162.441C283.427 161.734 283.033 161.443 282.503 161.563C281.971 161.684 281.581 162.167 281.333 163.005C281.109 163.799 280.957 164.692 280.882 165.682C280.806 166.675 280.78 167.654 280.801 168.628C280.846 169.558 280.872 170.198 280.879 170.549ZM303.389 185.763C303.36 184.798 303.164 183.955 302.803 183.24C302.462 182.477 302.034 182.109 301.522 182.123C301.155 182.135 300.819 182.332 300.512 182.716C300.902 182.706 301.191 182.889 301.373 183.264C301.552 183.592 301.649 183.994 301.663 184.47C301.685 185.179 301.479 185.749 301.051 186.168C300.647 186.587 300.113 186.786 299.451 186.774C298.692 186.763 297.839 186.423 296.891 185.781C295.941 185.095 295.043 183.999 294.196 182.519C293.348 180.992 292.613 179.018 291.989 176.598C291.391 174.177 291.046 171.17 290.953 167.523C290.925 166.45 290.935 165.415 290.982 164.413C291.029 163.368 291.062 162.343 291.086 161.342C291.107 160.298 291.093 159.239 291.041 158.171C290.989 157.057 290.849 155.881 290.623 154.651C292.811 153.998 295 153.321 297.187 152.621C297.766 155.206 298.12 157.462 298.245 159.338C298.371 161.211 298.34 162.757 298.156 163.954C297.993 165.099 297.725 165.959 297.352 166.532C297.002 167.101 296.633 167.413 296.246 167.481C295.808 167.556 295.414 167.35 295.059 166.874C294.731 166.394 294.591 165.729 294.641 164.87C294.241 165.397 294.005 166.085 293.929 166.942C293.854 167.755 293.913 168.539 294.102 169.31C294.293 170.081 294.603 170.725 295.031 171.249C295.482 171.727 296.024 171.863 296.65 171.645C297.664 171.284 298.479 170.371 299.096 168.874C299.711 167.331 300.158 165.528 300.441 163.476C300.746 161.417 300.905 159.3 300.916 157.146C300.926 154.944 300.845 153.049 300.68 151.478C302.157 150.986 303.632 150.483 305.107 149.97C304.918 159.794 304.963 169.174 305.261 178.324C305.559 187.475 306.06 196.543 306.778 205.698C301.8 204.702 296.825 203.777 291.856 202.923C292.138 200.407 292.277 197.758 292.279 195.002C292.282 192.206 291.993 189.133 291.421 185.868C292.258 187.976 293.341 189.604 294.672 190.737C296.026 191.873 297.357 192.519 298.659 192.618C299.985 192.716 301.124 192.227 302.075 191.098C303.022 189.969 303.46 188.175 303.389 185.763ZM307.856 180.959C308.939 181.976 309.929 183.104 310.823 184.346C311.742 185.533 312.515 186.751 313.141 187.988C313.791 189.17 314.283 190.344 314.614 191.489C314.971 192.636 315.125 193.648 315.08 194.503C315.009 195.356 314.857 196.009 314.628 196.466C314.397 196.92 314.12 197.126 313.801 197.089C313.505 197.053 313.175 196.723 312.811 196.107C312.863 196.953 313.082 197.712 313.475 198.395C313.888 199.082 314.342 199.466 314.836 199.536C315.354 199.609 315.812 199.325 316.21 198.674C316.538 198.175 316.784 197.47 316.952 196.562C317.115 195.597 317.155 194.531 317.068 193.372C317.004 192.161 316.789 190.857 316.425 189.477C316.058 188.041 315.498 186.585 314.739 185.128C313.567 182.866 312.6 180.943 311.839 179.303C311.078 177.664 310.444 176.13 309.936 174.683C309.449 173.179 309.05 171.687 308.736 170.195C308.445 168.65 308.173 166.933 307.92 165.043C307.665 163.104 307.402 160.898 307.133 158.427C306.887 155.902 306.566 152.949 306.173 149.595C310.995 147.899 315.808 146.084 320.615 144.152C320.509 153.857 320.571 163.225 320.809 172.408C319.772 171.326 318.819 170.209 317.952 169.052C317.108 167.893 316.377 166.774 315.756 165.678C315.16 164.579 314.701 163.53 314.375 162.514C314.051 161.495 313.912 160.556 313.955 159.675C313.999 158.797 314.134 158.08 314.359 157.53C314.586 156.977 314.855 156.654 315.167 156.567C315.481 156.478 315.803 156.691 316.136 157.211C316.084 156.338 315.864 155.619 315.484 155.068C315.101 154.518 314.657 154.323 314.151 154.476C313.671 154.621 313.236 155.106 312.851 155.916C312.555 156.539 312.324 157.326 312.161 158.277C311.995 159.228 311.943 160.277 312.005 161.434C312.087 162.532 312.309 163.734 312.669 165.052C313.026 166.319 313.555 167.643 314.257 169.048C315.895 172.205 317.195 174.964 318.148 177.184C319.1 179.35 319.826 181.308 320.325 183.006C320.845 184.645 321.19 186.198 321.362 187.636C321.53 189.016 321.66 190.629 321.745 192.47C321.833 194.311 321.932 196.527 322.045 199.119C322.159 201.712 322.419 205.04 322.83 209.145C317.84 208 312.858 206.925 307.88 205.918C307.974 201.759 308.007 197.609 307.981 193.494C307.977 189.327 307.937 185.144 307.856 180.959ZM323.667 180.294C324.759 181.481 325.759 182.798 326.667 184.243C327.598 185.627 328.383 187.046 329.021 188.486C329.683 189.863 330.186 191.229 330.529 192.564C330.895 193.901 331.061 195.077 331.023 196.072C330.959 197.065 330.815 197.829 330.588 198.36C330.363 198.89 330.089 199.131 329.768 199.089C329.472 199.049 329.139 198.665 328.77 197.948C328.829 198.932 329.056 199.817 329.453 200.613C329.874 201.412 330.333 201.857 330.829 201.937C331.347 202.019 331.803 201.688 332.193 200.927C332.514 200.346 332.755 199.524 332.914 198.466C333.067 197.342 333.096 196.1 332.999 194.751C332.923 193.344 332.696 191.826 332.318 190.219C331.94 188.547 331.363 186.852 330.593 185.156C329.397 182.521 328.411 180.28 327.633 178.369C326.858 176.458 326.208 174.669 325.686 172.98C325.184 171.228 324.771 169.488 324.442 167.748C324.135 165.945 323.847 163.942 323.575 161.738C323.303 159.478 323.019 156.904 322.724 154.024C322.452 151.077 322.105 147.635 321.679 143.721C326.485 141.773 331.285 139.702 336.076 137.515C336.062 148.794 336.213 159.687 336.54 170.366C335.493 169.102 334.528 167.799 333.649 166.45C332.796 165.097 332.053 163.79 331.422 162.514C330.815 161.23 330.344 160.005 330.009 158.82C329.673 157.635 329.524 156.539 329.562 155.513C329.597 154.49 329.725 153.658 329.945 153.017C330.165 152.375 330.432 152.003 330.744 151.902C331.056 151.803 331.382 152.052 331.72 152.661C331.659 151.642 331.434 150.806 331.046 150.162C330.656 149.518 330.212 149.288 329.709 149.461C329.229 149.628 328.799 150.188 328.418 151.129C328.13 151.853 327.907 152.768 327.751 153.876C327.595 154.982 327.555 156.204 327.626 157.551C327.721 158.832 327.952 160.23 328.326 161.769C328.695 163.244 329.236 164.79 329.954 166.429C331.623 170.111 332.949 173.324 333.925 175.91C334.897 178.432 335.641 180.711 336.157 182.685C336.691 184.594 337.053 186.4 337.239 188.07C337.421 189.674 337.566 191.55 337.67 193.693C337.774 195.833 337.894 198.409 338.031 201.424C338.168 204.438 338.461 208.307 338.91 213.077C333.914 211.782 328.921 210.555 323.932 209.401C323.988 204.548 323.981 199.709 323.913 194.908C323.87 190.053 323.788 185.175 323.667 180.294Z" fill="#FBFF00"/>
<path d="M319.657 19.3031C320.481 19.357 321.305 19.4118 322.127 19.4683C321.86 22.0839 321.593 24.6986 321.326 27.3133C321.904 27.3536 322.481 27.3939 323.059 27.4352C322.985 28.1631 322.91 28.89 322.836 29.6179C320.795 29.4707 318.754 29.3347 316.711 29.2077C316.785 28.4798 316.86 27.7528 316.934 27.0249C317.579 27.0655 318.226 27.1062 318.871 27.1487C319.029 25.5936 319.188 24.0395 319.347 22.4845C319.46 22.0418 319.574 21.5992 319.686 21.1574C319.59 21.1505 319.494 21.1445 319.398 21.1377C318.954 22.6316 317.896 23.4521 316.334 23.3715C316.359 22.6071 316.383 21.8436 316.408 21.0801C318.04 21.1779 319.325 20.4303 319.657 19.3031ZM328.665 19.9533C329.933 20.0546 331.203 20.1587 332.472 20.2666C332.253 22.4107 332.033 24.5548 331.814 26.699C332.251 26.7363 332.688 26.7746 333.126 26.8129C333.065 27.4112 333.003 28.0104 332.942 28.6097C332.505 28.5713 332.067 28.5339 331.631 28.4966C331.569 29.0959 331.508 29.6951 331.447 30.2934C330.625 30.2239 329.803 30.1553 328.981 30.0887C329.042 29.4895 329.103 28.8902 329.165 28.291C327.415 28.1489 325.664 28.0132 323.913 27.8857C323.91 27.1 323.908 26.3143 323.906 25.5286C325.493 23.6656 327.079 21.8071 328.665 19.9533ZM328.593 23.0676C327.732 24.0398 326.872 25.0128 326.012 25.9868C326.006 26.0921 326 26.1964 325.994 26.3016C326.66 26.3285 327.326 26.3564 327.992 26.3852C328.444 26.4212 328.897 26.4573 329.348 26.4943C329.443 25.567 329.538 24.6396 329.633 23.7123C329.763 23.0522 329.893 22.3912 330.024 21.7313C329.87 21.7186 329.716 21.7059 329.562 21.6933C329.239 22.152 328.916 22.6098 328.593 23.0676ZM337.701 24.6926C337.699 25.1103 337.697 25.5279 337.696 25.9455C337.357 26.0082 336.839 26.0379 336.433 26C335.24 25.8905 334.723 25.3186 334.839 24.1799C334.903 23.5522 334.967 22.9245 335.031 22.2967C334.726 22.2698 334.42 22.2429 334.115 22.2159C334.152 21.8501 334.189 21.4853 334.227 21.1204C334.532 21.1474 334.838 21.1743 335.143 21.2012C335.176 20.8851 335.208 20.568 335.24 20.2519C335.698 20.2151 336.156 20.1785 336.613 20.1426C336.573 20.5369 336.533 20.9302 336.492 21.3236C337.028 21.3727 337.565 21.4228 338.1 21.4737C338 21.8323 337.898 22.1916 337.798 22.5511C337.328 22.5068 336.859 22.4633 336.389 22.4199C336.329 23.0081 336.269 23.5954 336.209 24.1827C336.168 24.5769 336.453 24.7837 336.851 24.8209C337.11 24.845 337.464 24.7914 337.701 24.6926ZM342.026 21.7776C343.02 21.8773 343.413 22.4636 343.308 23.4985C343.203 24.5168 343.099 25.5351 342.995 26.5534C342.544 26.5071 342.091 26.4617 341.639 26.4164C341.728 25.5516 341.816 24.6877 341.904 23.8229C341.936 23.5131 341.937 23.2561 341.853 23.0721C341.774 22.8999 341.621 22.7917 341.349 22.7644C340.788 22.709 340.197 23.023 340.084 23.539C339.992 24.4378 339.9 25.3357 339.808 26.2346C339.359 26.1904 338.91 26.1472 338.461 26.104C338.674 24.0224 338.886 21.9398 339.099 19.8572C339.548 19.9005 339.998 19.9437 340.447 19.9878C340.387 20.5723 340.327 21.1568 340.267 21.7413C340.196 22.0489 340.123 22.3554 340.051 22.663C340.112 22.669 340.172 22.6742 340.232 22.6802C340.548 22.0313 341.168 21.7045 341.985 21.7735C341.999 21.7749 342.012 21.7762 342.026 21.7776ZM355.58 26.7297C355.521 27.3105 355.461 27.8904 355.402 28.4703C353.875 28.2828 352.347 28.1017 350.819 27.9261C350.748 28.6199 350.677 29.3138 350.606 30.0086C352.384 30.2129 354.16 30.4246 355.936 30.6446C355.862 31.3715 355.787 32.0994 355.713 32.8264C353.124 32.5063 350.532 32.2026 347.939 31.9136C348.28 28.572 348.622 25.2294 348.963 21.8868C351.509 22.17 354.052 22.4688 356.594 22.7824C356.521 23.5047 356.447 24.2271 356.373 24.9504C354.645 24.7371 352.916 24.5302 351.187 24.3317C351.123 24.9493 351.06 25.5678 350.997 26.1854C352.525 26.3619 354.053 26.543 355.58 26.7297ZM356.906 32.9748C357.247 29.6332 357.589 26.2906 357.931 22.948C359.395 23.1321 360.859 23.3207 362.323 23.5149C365.336 23.9138 367.216 25.861 366.891 29.0409C366.565 32.2364 364.239 33.9306 361.011 33.5036C359.643 33.3228 358.274 33.1465 356.906 32.9748ZM361.584 25.6144C361.106 25.5516 360.627 25.4887 360.149 25.4268C359.956 27.3191 359.762 29.2114 359.569 31.1037C360.263 31.1938 360.956 31.2847 361.65 31.3765C363.229 31.586 364.145 30.5843 364.323 28.8445C364.517 26.9476 363.594 25.8791 361.584 25.6144Z" fill="#FBFF00"/>
<path d="M28.639 23.9814C28.9926 27.3228 29.3461 30.6641 29.6996 34.0046C28.891 34.1499 28.0818 34.298 27.2736 34.447C26.92 31.1057 26.5665 27.7652 26.2129 24.4239C27.0211 24.2749 27.8303 24.1267 28.639 23.9814ZM32.6284 23.2799C32.982 26.6213 33.3356 29.9627 33.6891 33.3031C32.879 33.443 32.0699 33.5837 31.261 33.7263C30.9075 30.3858 30.5539 27.0445 30.2003 23.7031C31.0092 23.5606 31.8183 23.4198 32.6284 23.2799ZM33.8623 25.2759C33.7859 24.5538 33.7094 23.8308 33.633 23.1087C36.6626 22.5943 39.6952 22.1074 42.7306 21.6471C42.807 22.3692 42.8834 23.0913 42.9599 23.8144C41.8528 23.9823 40.746 24.153 39.6396 24.3284C39.9167 26.9467 40.1939 29.5659 40.471 32.1843C39.6551 32.3136 38.8393 32.4448 38.0247 32.5777C37.7476 29.9585 37.4705 27.3402 37.1934 24.7218C36.082 24.9023 34.972 25.0873 33.8623 25.2759ZM48.7954 30.9368C48.4418 27.5954 48.0882 24.254 47.7347 20.9136C49.2586 20.6977 50.7831 20.4882 52.3094 20.286C54.6474 19.9772 56.3191 20.9274 56.5544 23.1506C56.8019 25.4897 55.1364 26.9361 52.5546 27.2805C52.0047 27.3544 51.4547 27.4282 50.9049 27.503C51.0141 28.5347 51.1233 29.5664 51.2323 30.5972C50.4201 30.7085 49.6072 30.8218 48.7954 30.9368ZM52.0902 22.4841C51.5263 22.5594 50.9626 22.6356 50.398 22.7128C50.5081 23.7537 50.6183 24.7946 50.7284 25.8355C51.3835 25.7452 52.0389 25.6576 52.6933 25.5701C53.6982 25.4369 54.1416 24.8168 54.0359 23.8182C53.9227 22.7488 53.2956 22.3235 52.0902 22.4841ZM59.0218 19.441C60.3337 19.2852 61.6468 19.133 62.9597 18.9873C64.3871 22.2087 65.8147 25.4329 67.242 28.6618C66.3547 28.7549 65.4676 28.8498 64.581 28.9485C64.2824 28.2355 63.984 27.5235 63.6855 26.8114C62.4395 26.9511 61.1938 27.0944 59.9487 27.2424C59.8165 28.0047 59.6834 28.7662 59.5513 29.5286C58.6552 29.6356 57.7604 29.7462 56.8649 29.8588C57.5835 26.3828 58.3025 22.9105 59.0218 19.441ZM61.4026 20.9091C61.2637 20.9254 61.1247 20.9408 60.9859 20.9571C60.8803 21.7492 60.7756 22.5403 60.6701 23.3324C60.5241 24.0608 60.3782 24.7903 60.2322 25.5197C61.1757 25.4087 62.1194 25.2995 63.0634 25.193C62.7685 24.515 62.4735 23.836 62.1787 23.158C61.9203 22.4083 61.6619 21.6587 61.4026 20.9091ZM65.2397 20.9294C65.1633 20.2073 65.0869 19.4852 65.0104 18.7622C65.6119 18.6978 66.2127 18.6345 66.8135 18.572C69.2632 18.3175 71.7148 18.0805 74.1682 17.8609C74.2446 18.583 74.3211 19.306 74.3975 20.0281C73.2832 20.1281 72.1683 20.2309 71.0547 20.3383C71.3318 22.9566 71.609 25.5758 71.8861 28.1942C71.0657 28.2729 70.2447 28.3536 69.4248 28.4369C69.1476 25.8176 68.8696 23.1994 68.5935 20.581C68.0759 20.6329 67.5593 20.6856 67.0429 20.7393C66.442 20.8017 65.8413 20.865 65.2397 20.9294ZM83.1495 25.4692C83.2695 25.4604 83.3904 25.4516 83.5104 25.4428C83.3301 24.4742 83.1498 23.5056 82.9704 22.5369C82.7818 20.7546 82.5932 18.9723 82.4046 17.19C83.2222 17.1302 84.04 17.0721 84.859 17.0158C85.2126 20.3572 85.5662 23.6986 85.9197 27.039C84.4995 27.1364 83.08 27.2402 81.6611 27.3495C80.3956 24.6918 79.1294 22.0369 77.8644 19.3847C77.7445 19.3943 77.6247 19.4049 77.5039 19.4147C77.676 20.3498 77.8471 21.285 78.0192 22.22C78.2088 24.0115 78.3984 25.803 78.5879 27.5945C77.7712 27.6626 76.9536 27.7318 76.1372 27.8036C75.7837 24.4632 75.4301 21.1218 75.0765 17.7805C76.4985 17.6559 77.9211 17.5369 79.3453 17.4243C80.613 20.1031 81.8811 22.7848 83.1495 25.4692ZM89.0255 16.7474C90.3462 16.6668 91.6666 16.5919 92.9885 16.5223C94.4225 19.8063 95.8559 23.0939 97.2906 26.3843C96.3979 26.4259 95.5055 26.4704 94.6132 26.5157C94.3134 25.7908 94.0136 25.0659 93.7138 24.341C92.4599 24.4071 91.2067 24.4788 89.9539 24.5542C89.8195 25.3038 89.686 26.0533 89.5516 26.8028C88.651 26.8583 87.7506 26.9166 86.8496 26.9767C87.5748 23.5632 88.3004 20.1534 89.0255 16.7474ZM91.4208 18.3432C91.281 18.3512 91.1412 18.3592 91.0015 18.3672C90.8947 19.1474 90.788 19.9284 90.6822 20.7094C90.5348 21.425 90.3875 22.1416 90.2403 22.8581C91.1896 22.8022 92.1391 22.7482 93.0889 22.6969C92.7925 22.0051 92.4963 21.3141 92.2001 20.6232C91.9406 19.8626 91.6802 19.1029 91.4208 18.3432ZM96.6706 20.2953C96.4622 20.0708 96.2547 19.8463 96.0464 19.6227C96.5909 19.267 96.7815 18.872 96.7408 18.4871C96.515 18.3638 96.2882 18.2406 96.0624 18.1173C95.8483 17.8841 95.7134 17.5749 95.6773 17.2331C95.5898 16.4063 96.1315 15.8921 96.9861 15.8535C97.8836 15.8132 98.5146 16.2742 98.6157 17.2297C98.7364 18.3707 97.984 19.3749 96.6706 20.2953ZM108.059 19.2329C107.228 19.3954 106.397 19.5616 105.566 19.7288C105.369 18.5474 104.691 18.1952 103.619 18.2295C102.763 18.258 102.241 18.5491 102.288 19.1339C102.45 20.9358 108.145 19.3485 108.515 23.1237C108.702 25.1644 107.047 26.1593 104.611 26.2377C102.117 26.3194 100.381 25.3054 99.8192 23.0221C100.668 22.8392 101.517 22.6591 102.366 22.4798C102.611 23.5587 103.38 23.9609 104.397 23.9416C105.399 23.9239 105.978 23.6214 105.91 22.9792C105.714 21.1298 100.094 22.7289 99.701 19.0173C99.4974 17.0935 101.056 16.0102 103.463 15.932C106 15.8495 107.503 16.86 108.059 19.2329Z" fill="#FBFF00"/>
<defs>
<filter id="filter0_b_3_430" x="-2.67746" y="-1.8281" width="399.905" height="231.12" filterUnits="userSpaceOnUse" color-interpolation-filters="sRGB">
<feFlood flood-opacity="0" result="BackgroundImageFix"/>
<feGaussianBlur in="BackgroundImageFix" stdDeviation="1.33885"/>
<feComposite in2="SourceAlpha" operator="in" result="effect1_backgroundBlur_3_430"/>
<feBlend mode="normal" in="SourceGraphic" in2="effect1_backgroundBlur_3_430" result="shape"/>
</filter>
</defs>
</svg>
