<svg width="220" height="211" viewBox="0 0 220 211" fill="none" xmlns="http://www.w3.org/2000/svg">
<path d="M8.022 176.473C8.022 195.543 75.037 211.008 157.711 211.008C240.377 211.008 307.392 195.543 307.392 176.473C307.392 170.976 301.826 165.78 291.926 161.163C273.471 162.159 255.042 163.534 236.64 165.286C224.392 166.46 212.084 167.803 199.827 167.185C174.1 165.895 149.323 156.028 123.579 158.137C104.975 159.657 86.9595 167.401 68.3896 166.282C57.0474 165.595 46.1276 161.596 34.7411 162.098C28.6038 162.368 22.6162 163.951 16.5501 164.962C11.0283 168.56 8.022 172.436 8.022 176.473Z" fill="#472215"/>
<path d="M27.0725 182.742C27.0725 191.867 84.1557 199.261 154.566 199.261C155.207 199.261 155.841 199.261 156.475 199.253C158.032 199.253 159.581 199.246 161.124 199.24C161.363 199.24 161.603 199.24 161.836 199.233C228.864 198.744 282.06 191.554 282.06 182.743C282.06 177.01 259.541 171.963 225.335 168.995C205.091 167.243 180.747 166.216 154.565 166.216C131.75 166.216 110.337 166.991 91.8114 168.36C53.1559 171.194 27.0725 176.57 27.0725 182.742Z" fill="#401A19"/>
<path d="M77.0183 179.669C77.0183 190.393 112.485 199.099 156.473 199.253C156.874 199.261 157.283 199.261 157.685 199.261C158.84 199.261 159.981 199.253 161.122 199.24C161.361 199.24 161.601 199.24 161.833 199.233C204.455 198.709 238.351 190.157 238.351 179.67C238.351 175.733 233.568 172.068 225.334 168.995C205.09 167.243 180.746 166.216 154.564 166.216C131.749 166.216 110.336 166.991 91.8103 168.36C82.4911 171.55 77.0183 175.46 77.0183 179.669Z" fill="#62231A"/>
<path d="M157.685 184.871C113.134 184.871 77.0192 180.192 77.0192 174.419C77.0192 168.646 113.134 163.967 157.685 163.967C202.235 163.967 238.351 168.646 238.351 174.419C238.351 180.192 202.235 184.871 157.685 184.871Z" fill="#211521"/>
<path d="M207.607 153.989V158.644L210.697 161.828C210.697 161.828 213.168 161.382 213.786 159.692C214.404 158.001 217.184 155.879 218.42 155.344C219.655 154.808 221.509 156.68 224.475 155.069C227.44 153.456 228.305 153.71 230.468 151.95C232.631 150.188 227.379 144.111 226.76 142.809C226.142 141.507 228.305 139.746 229.85 139.675C231.395 139.605 235.41 139.422 237.264 139.67C239.118 139.918 238.809 144.919 238.809 144.919L234.176 145.131C234.176 145.131 236.338 143.702 235.103 142.429C233.867 141.156 231.395 141.933 230.469 142.308C229.815 142.573 230.238 144.277 231.086 146.052C231.44 146.792 231.868 147.544 232.323 148.209C233.868 150.466 233.25 150.827 232.631 153.182C232.013 155.538 230.778 156.258 230.778 156.258L233.867 158.777C233.867 158.777 228.924 158.338 227.379 158.408C225.834 158.479 223.054 159.935 220.274 161.06C217.493 162.184 213.786 164.016 212.859 165.056C211.932 166.095 214.408 164.625 215.953 166.217C217.497 167.809 222.437 169.606 227.379 165.391C232.323 161.175 234.485 164.069 238.502 165.216C242.518 166.363 248.079 169.102 248.079 169.102C248.079 169.102 245.298 164.905 241.591 163.412C237.883 161.919 240.047 159.825 240.664 157.802C241.282 155.778 243.135 156.027 245.508 155.919C247.879 155.811 250.241 156.367 252.404 153.795C254.566 151.222 256.111 152.443 257.964 151.693C259.818 150.944 261.981 150.18 263.216 148.794C264.452 147.408 263.525 145.788 264.761 143.403C265.996 141.02 269.251 141.591 268.777 139.23C268.303 136.87 269.395 135.545 268.159 134.271C266.923 132.997 263.834 133.803 263.834 133.803C263.834 133.803 261.671 136.562 264.142 137.114C266.614 137.667 266.614 135.672 266.614 135.672C266.614 135.672 266.614 137.334 266.305 139.01C266.092 140.165 264.706 140.269 262.955 139.828C262.165 139.63 261.3 139.32 260.435 138.945C257.654 137.742 260.743 135.607 262.597 131.2C264.451 126.793 265.687 130.726 267.54 130.974C269.394 131.223 270.939 133.48 273.411 136.027C275.882 138.574 272.484 138.397 270.939 139.797C269.394 141.198 268.159 142.916 267.232 144.621C266.305 146.325 266.923 149.955 266.614 153.293C266.305 156.632 264.76 153.378 262.906 153.463C261.052 153.547 258.271 155.004 254.256 156.849C250.239 158.695 248.385 158.447 247.15 159.521C245.914 160.596 247.768 163.13 250.239 164.347C252.711 165.564 253.947 167.835 255.491 171.089C257.036 174.344 263.833 172.372 263.833 172.372C263.833 172.372 264.451 170.016 264.451 167.688C264.451 165.361 264.76 163.352 266.922 161.59C269.085 159.829 270.63 161.753 272.792 160.325C274.955 158.896 277.117 158.466 280.516 156.649C283.914 154.831 286.076 159.387 287.621 159.982C289.166 160.576 292.255 158.441 293.182 155.738C294.109 153.036 296.58 154.586 299.052 152.478C301.523 150.37 299.052 152.478 298.125 150.193C297.198 147.907 298.744 148.169 300.288 145.772C301.832 143.374 298.125 138.556 298.125 138.556C298.125 138.556 298.125 138.556 301.215 140.41C304.304 142.264 301.833 147.032 303.069 145.645C304.304 144.259 307.394 140.128 307.394 140.128C307.394 140.128 305.231 147.541 303.377 148.956C301.523 150.37 303.377 152.281 300.906 156.384C298.435 160.487 295.036 157.649 293.8 159.7C292.565 161.751 290.711 163.166 289.475 164.219C288.24 165.273 288.24 164.275 285.459 164.07C282.678 163.864 282.061 161.565 280.207 161.317C278.353 161.069 275.264 162.873 272.484 164.662C269.703 166.451 270.321 168.751 268.159 172.174C265.996 175.598 266.614 175.902 263.215 177.054C259.817 178.206 259.199 177.237 255.801 174.393C252.403 171.55 248.078 171.759 242.516 174.243C241.396 174.743 240.605 175.008 240.028 175.094C240.236 177.915 241.812 180.412 244.768 179.812C248.206 179.114 248.91 181.472 250.32 182.736C251.728 184.001 245.83 189.702 245.487 189.586C238.642 187.258 245.487 189.586 242.444 187.491C239.401 185.396 238.354 184.869 238.354 184.869C238.354 184.869 244.148 187.491 244.768 186.095C245.388 184.699 246.261 182.518 244.768 182.736C243.276 182.954 242.824 184.028 240.422 182.736C238.021 181.445 236.727 177.844 236.655 176.559C236.583 175.274 235.175 173.18 233.061 172.132C231.908 171.56 229.716 170.679 227.959 169.995C227.673 170.118 227.377 170.25 227.069 170.389C222.126 172.609 223.053 173.897 216.874 175.175C210.695 176.455 214.711 173.944 212.549 171.382C210.386 168.821 210.386 170.484 207.605 167.95C204.825 165.417 203.589 160.818 203.589 160.818L207.607 153.989ZM235.847 169.874C234.799 168.987 233.834 168.589 232.701 168.6C233.717 168.961 234.815 169.392 235.847 169.874Z" fill="#001525"/>
<path d="M207.607 153.989V158.644L210.697 161.828C210.697 161.828 213.168 161.382 213.786 159.692C214.404 158.001 217.184 155.879 218.42 155.344C219.655 154.808 221.509 156.68 224.475 155.069C227.44 153.456 228.305 153.71 230.468 151.95C232.631 150.188 227.379 144.111 226.76 142.809C226.142 141.507 228.305 139.746 229.85 139.675C231.395 139.605 235.41 139.422 237.264 139.67C239.118 139.918 238.809 144.919 238.809 144.919L234.176 145.131C234.176 145.131 236.338 143.702 235.103 142.429C233.867 141.156 231.395 141.933 230.469 142.308C229.815 142.573 230.238 144.277 231.086 146.052C231.44 146.792 231.868 147.544 232.323 148.209C233.868 150.466 233.25 150.827 232.631 153.182C232.013 155.538 230.778 156.258 230.778 156.258L233.867 158.777C233.867 158.777 228.924 158.338 227.379 158.408C225.834 158.479 223.054 159.935 220.274 161.06C217.493 162.184 213.786 164.016 212.859 165.056C211.932 166.095 214.408 164.625 215.953 166.217C217.497 167.809 222.437 169.606 227.379 165.391C232.323 161.175 234.485 164.069 238.502 165.216C242.518 166.363 248.079 169.102 248.079 169.102C248.079 169.102 245.298 164.905 241.591 163.412C237.883 161.919 240.047 159.825 240.664 157.802C241.282 155.778 243.135 156.027 245.508 155.919C247.879 155.811 250.241 156.367 252.404 153.795C254.566 151.222 256.111 152.443 257.964 151.693C259.818 150.944 261.981 150.18 263.216 148.794C264.452 147.408 263.525 145.788 264.761 143.403C265.996 141.02 269.251 141.591 268.777 139.23C268.303 136.87 269.395 135.545 268.159 134.271C266.923 132.997 263.834 133.803 263.834 133.803C263.834 133.803 261.671 136.562 264.142 137.114C266.614 137.667 266.614 135.672 266.614 135.672C266.614 135.672 266.614 137.334 266.305 139.01C266.092 140.165 264.706 140.269 262.955 139.828C262.165 139.63 261.3 139.32 260.435 138.945C257.654 137.742 260.743 135.607 262.597 131.2C264.451 126.793 265.687 130.726 267.54 130.974C269.394 131.223 270.939 133.48 273.411 136.027C275.882 138.574 272.484 138.397 270.939 139.797C269.394 141.198 268.159 142.916 267.232 144.621C266.305 146.325 266.923 149.955 266.614 153.293C266.305 156.632 264.76 153.378 262.906 153.463C261.052 153.547 258.271 155.004 254.256 156.849C250.239 158.695 248.385 158.447 247.15 159.521C245.914 160.596 247.768 163.13 250.239 164.347C252.711 165.564 253.947 167.835 255.491 171.089C257.036 174.344 263.833 172.372 263.833 172.372C263.833 172.372 264.451 170.016 264.451 167.688C264.451 165.361 264.76 163.352 266.922 161.59C269.085 159.829 270.63 161.753 272.792 160.325C274.955 158.896 277.117 158.466 280.516 156.649C283.914 154.831 286.076 159.387 287.621 159.982C289.166 160.576 292.255 158.441 293.182 155.738C294.109 153.036 296.58 154.586 299.052 152.478C301.523 150.37 299.052 152.478 298.125 150.193C297.198 147.907 298.744 148.169 300.288 145.772C301.832 143.374 298.125 138.556 298.125 138.556C298.125 138.556 298.125 138.556 301.215 140.41C304.304 142.264 301.833 147.032 303.069 145.645C304.304 144.259 307.394 140.128 307.394 140.128C307.394 140.128 305.231 147.541 303.377 148.956C301.523 150.37 303.377 152.281 300.906 156.384C298.435 160.487 295.036 157.649 293.8 159.7C292.565 161.751 290.711 163.166 289.475 164.219C288.24 165.273 288.24 164.275 285.459 164.07C282.678 163.864 282.061 161.565 280.207 161.317C278.353 161.069 275.264 162.873 272.484 164.662C269.703 166.451 270.321 168.751 268.159 172.174C265.996 175.598 266.614 175.902 263.215 177.054C259.817 178.206 259.199 177.237 255.801 174.393C252.403 171.55 248.078 171.759 242.516 174.243C241.396 174.743 240.605 175.008 240.028 175.094C240.236 177.915 241.812 180.412 244.768 179.812C248.206 179.114 248.91 181.472 250.32 182.736C251.728 184.001 245.83 189.702 245.487 189.586C238.642 187.258 245.487 189.586 242.444 187.491C239.401 185.396 238.354 184.869 238.354 184.869C238.354 184.869 244.148 187.491 244.768 186.095C245.388 184.699 246.261 182.518 244.768 182.736C243.276 182.954 242.824 184.028 240.422 182.736C238.021 181.445 236.727 177.844 236.655 176.559C236.583 175.274 235.175 173.18 233.061 172.132C231.908 171.56 229.716 170.679 227.959 169.995C227.673 170.118 227.377 170.25 227.069 170.389C222.126 172.609 223.053 173.897 216.874 175.175C210.695 176.455 214.711 173.944 212.549 171.382C210.386 168.821 210.386 170.484 207.605 167.95C204.825 165.417 203.589 160.818 203.589 160.818L207.607 153.989ZM235.847 169.874C234.799 168.987 233.834 168.589 232.701 168.6C233.717 168.961 234.815 169.392 235.847 169.874Z" fill="#001525"/>
<path d="M203.588 160.822L207.605 153.989V155.251L203.847 161.644C203.674 161.138 203.588 160.822 203.588 160.822Z" fill="#6E352A"/>
<path d="M230.902 151.301C231.076 152.104 230.99 152.786 230.466 153.212C228.304 154.973 227.439 154.719 224.473 156.33C221.507 157.943 219.654 156.071 218.418 156.606C217.182 157.142 214.402 159.263 213.784 160.953C213.166 162.644 210.695 163.09 210.695 163.09L207.605 159.906V158.643L210.695 161.827C210.695 161.827 213.166 161.382 213.784 159.691C214.403 158 217.182 155.879 218.418 155.344C219.654 154.808 221.507 156.679 224.473 155.068C227.439 153.456 228.304 153.71 230.466 151.949C230.682 151.774 230.822 151.554 230.902 151.301Z" fill="#6E352A"/>
<path d="M212.858 166.316C213.087 166.059 213.487 165.753 214 165.422C214.624 165.445 215.356 165.603 215.951 166.217C217.495 167.809 222.435 169.606 227.377 165.39C232.32 161.175 234.483 164.069 238.499 165.215C241.167 165.977 244.508 167.438 246.457 168.335C247.471 169.455 248.077 170.363 248.077 170.363C248.077 170.363 242.517 167.624 238.5 166.478C234.484 165.331 232.321 162.437 227.378 166.653C222.435 170.868 217.496 169.071 215.952 167.479C214.407 165.886 211.931 167.356 212.858 166.316Z" fill="#6E352A"/>
<path d="M213.257 175.025C213.177 174.792 213.199 174.487 213.23 174.131C213.277 174.446 213.275 174.746 213.257 175.025Z" fill="#6E352A"/>
<path d="M109.476 157.698C109.476 157.698 108.24 162.296 105.459 164.83C102.679 167.363 102.679 165.701 100.516 168.262C98.3535 170.823 102.37 173.334 96.191 172.055C90.0121 170.776 90.939 169.488 85.9957 167.268C85.687 167.13 85.3904 166.998 85.1057 166.874C83.3489 167.558 81.1568 168.44 80.0035 169.011C77.8899 170.058 76.4815 172.153 76.4094 173.437C76.3373 174.722 75.0445 178.323 72.6426 179.615C70.2416 180.906 69.7897 179.832 68.2963 179.615C66.8038 179.398 67.6762 181.578 68.2963 182.974C68.9173 184.37 74.7109 181.747 74.7109 181.747C74.7109 181.747 73.6629 182.276 70.6206 184.37C67.5773 186.465 74.4225 184.137 67.5773 186.465C67.2345 186.581 61.3365 180.879 62.7449 179.615C64.1533 178.35 64.8584 175.992 68.2963 176.69C71.2517 177.29 72.8283 174.794 73.0363 171.973C72.4596 171.887 71.6685 171.623 70.5485 171.122C64.9878 168.637 60.6628 168.428 57.2637 171.272C53.8656 174.115 53.2474 175.085 49.8492 173.933C46.4511 172.781 47.0685 172.476 44.9059 169.052C42.7434 165.629 43.3617 163.329 40.5809 161.54C37.8001 159.751 34.7107 157.948 32.8577 158.196C31.0039 158.444 30.3866 160.743 27.6058 160.95C24.825 161.156 24.825 162.152 23.5894 161.099C22.3538 160.045 20.4999 158.63 19.2644 156.579C18.0288 154.528 14.6307 157.365 12.1586 153.263C9.68737 149.16 11.5403 147.249 9.68736 145.835C7.83443 144.421 5.67097 137.006 5.67097 137.006C5.67097 137.006 8.76042 141.138 9.99602 142.524C11.2316 143.909 8.7604 139.143 11.8499 137.289C14.9393 135.435 14.9393 135.435 14.9393 135.435C14.9393 135.435 11.2325 140.253 12.7768 142.651C14.322 145.049 15.8662 144.787 14.9393 147.071C14.0124 149.357 11.5412 147.249 14.0124 149.357C16.4836 151.464 18.9557 149.915 19.8826 152.617C20.8095 155.319 23.899 157.455 25.4433 156.861C26.9875 156.266 29.151 151.71 32.5491 153.527C35.9472 155.345 38.1097 155.776 40.2722 157.204C42.4347 158.633 43.9799 156.709 46.1425 158.469C48.305 160.231 48.6136 162.239 48.6136 164.567C48.6136 166.894 49.2319 169.25 49.2319 169.25C49.2319 169.25 56.0281 171.222 57.5733 167.968C59.1185 164.713 60.3541 162.443 62.8253 161.225C65.2965 160.008 67.1503 157.474 65.9147 156.4C64.6792 155.325 62.8253 155.574 58.8089 153.728C54.7926 151.882 52.0127 150.426 50.1588 150.341C48.305 150.257 46.7607 153.512 46.4511 150.172C46.1425 146.833 46.7598 143.204 45.8329 141.499C44.9059 139.795 43.6703 138.075 42.1252 136.676C40.58 135.275 37.1819 135.453 39.654 132.906C42.1252 130.358 43.6704 128.101 45.5242 127.853C47.3781 127.605 48.6137 123.671 50.4675 128.078C52.3214 132.485 55.4108 134.621 52.63 135.824C51.765 136.199 50.9 136.508 50.1099 136.707C48.3586 137.148 46.9733 137.044 46.7598 135.889C46.4511 134.213 46.4511 132.55 46.4511 132.55C46.4511 132.55 46.4511 134.545 48.9223 133.993C51.3935 133.441 49.231 130.682 49.231 130.682C49.231 130.682 46.1415 129.876 44.9059 131.15C43.6703 132.423 44.7618 133.748 44.2877 136.109C43.8136 138.469 47.0685 137.898 48.3041 140.282C49.5397 142.665 48.6127 144.286 49.8483 145.673C51.0839 147.059 53.2464 147.823 55.1003 148.572C56.9542 149.321 58.4984 148.101 60.6609 150.674C62.8235 153.247 65.1856 152.689 67.557 152.797C69.9293 152.905 71.7822 152.657 72.4005 154.681C73.0187 156.704 75.1813 158.797 71.4735 160.291C67.7658 161.784 64.986 165.98 64.986 165.98C64.986 165.98 70.5466 163.241 74.563 162.095C78.5794 160.948 80.7419 158.054 85.6852 162.269C90.6285 166.483 95.5672 164.687 97.1114 163.095C98.6566 161.503 101.132 162.973 100.206 161.933C99.2786 160.894 95.5718 159.063 92.791 157.938C90.0102 156.814 87.2304 155.357 85.6852 155.286C84.1409 155.215 79.1976 155.655 79.1976 155.655L82.2871 153.136C82.2871 153.136 81.0515 152.414 80.4332 150.059C79.8149 147.703 79.1976 147.343 80.7419 145.086C81.1966 144.422 81.6244 143.669 81.9784 142.929C82.8268 141.155 83.2491 139.45 82.5957 139.186C81.6688 138.811 79.1976 138.033 77.962 139.307C76.7264 140.58 78.889 142.009 78.889 142.009L74.2552 141.797C74.2552 141.797 73.9466 136.796 75.7995 136.548C77.6534 136.299 81.6697 136.483 83.214 136.553C84.7583 136.624 86.9217 138.384 86.3035 139.687C85.6852 140.988 80.4332 147.067 82.5957 148.827C84.7582 150.589 85.6233 150.335 88.5889 151.946C91.5545 153.558 93.4083 151.687 94.6439 152.222C95.8795 152.758 98.6603 154.879 99.2777 156.57C99.8959 158.261 102.367 158.706 102.367 158.706L105.457 155.522V150.867L109.476 157.698ZM80.3657 165.475C79.2337 165.464 78.267 165.862 77.219 166.749C78.2513 166.268 79.3492 165.837 80.3657 165.475Z" fill="#001525"/>
<path d="M77.8854 141.015C78.2717 141.593 78.8918 142.006 78.8918 142.006L77.6016 141.947C77.5554 141.644 77.6266 141.327 77.8854 141.015Z" fill="#6E352A"/>
<path d="M81.4169 153.846C81.8808 154.494 82.2902 154.746 82.2902 154.746L81.3947 155.476C80.1758 155.566 79.2008 155.653 79.2008 155.653L81.4169 153.846Z" fill="#6E352A"/>
<path d="M81.9803 144.538C81.6264 145.278 81.1985 146.03 80.7438 146.695C80.3048 147.337 80.0442 147.824 79.9056 148.248C79.6459 147.262 79.705 146.6 80.7438 145.082C81.1985 144.417 81.6264 143.665 81.9803 142.925C82.3204 142.214 82.5865 141.52 82.7473 140.92C83.1577 141.398 82.7474 142.934 81.9803 144.538Z" fill="#6E352A"/>
<path d="M12.7763 144.262C12.3641 143.623 12.3327 142.81 12.4972 141.963C12.5582 142.206 12.6404 142.439 12.7763 142.65C14.2651 144.961 15.7465 144.808 15.0229 146.839C14.6329 146.187 13.7069 145.706 12.7763 144.262Z" fill="#6E352A"/>
<path d="M11.8512 138.9C10.7755 139.546 10.3809 140.544 10.2626 141.514C10.136 140.239 10.1378 138.317 11.8512 137.288C14.9407 135.434 14.9406 135.434 14.9406 135.434C14.9406 135.434 14.0756 136.563 13.3548 137.998C12.9592 138.235 12.4695 138.529 11.8512 138.9Z" fill="#6E352A"/>
<path d="M67.19 164.946C69.177 164.047 72.1481 162.782 74.5657 162.091C78.5821 160.945 80.7446 158.051 85.6879 162.266C90.6312 166.482 95.5699 164.684 97.1142 163.092C97.5605 162.633 98.0836 162.432 98.5808 162.35C99.3266 162.796 99.9106 163.211 100.207 163.544C101.134 164.584 98.6584 163.114 97.1132 164.706C95.569 166.298 90.6303 168.095 85.687 163.879C80.7437 159.664 78.5812 162.558 74.5648 163.705C70.5484 164.852 64.9878 167.591 64.9878 167.591C64.9878 167.591 65.826 166.33 67.19 164.946Z" fill="#6E352A"/>
<path d="M9.9966 144.135C9.19443 143.236 7.61598 141.185 6.6031 139.853C6.04029 138.27 5.67066 137.006 5.67066 137.006C5.67066 137.006 8.7601 141.137 9.99569 142.523C10.1001 142.64 10.1703 142.699 10.2276 142.734C10.3062 143.984 10.6149 144.828 9.9966 144.135Z" fill="#6E352A"/>
<path d="M68.2976 184.585C67.8013 183.467 67.146 181.851 67.6691 181.36C67.8355 181.903 68.0813 182.484 68.2976 182.972C68.9177 184.368 74.7121 181.745 74.7121 181.745C74.7121 181.745 73.6641 182.274 70.6218 184.368C70.2641 184.613 70.0479 184.796 69.925 184.936C69.12 185.054 68.4805 184.998 68.2976 184.585Z" fill="#6E352A"/>
<path d="M77.2177 168.362C78.2657 167.476 79.2324 167.077 80.3644 167.088C79.3479 167.45 78.25 167.88 77.2177 168.362Z" fill="#6E352A"/>
<path d="M99.7953 171.931C99.7944 171.713 99.8091 171.482 99.8535 171.245C99.8711 171.515 99.8683 171.746 99.7953 171.931Z" fill="#6E352A"/>
<path d="M105.459 152.477V150.865L109.476 157.698C109.476 157.698 109.365 158.107 109.14 158.74L105.459 152.477Z" fill="#6E352A"/>
<path d="M72.4043 156.29C71.786 154.267 69.9331 154.515 67.5608 154.407C65.1894 154.299 62.8273 154.856 60.6648 152.284C58.5022 149.711 56.9571 150.932 55.1041 150.181C53.2503 149.432 51.0878 148.668 49.8522 147.282C48.6166 145.896 49.5435 144.276 48.3079 141.892C47.0723 139.508 43.8174 140.079 44.2915 137.718C44.3313 137.521 44.3562 137.335 44.3765 137.152C44.9551 138.356 47.3006 138.337 48.3079 140.28C49.5435 142.663 48.6166 144.283 49.8522 145.67C51.0878 147.056 53.2503 147.82 55.1041 148.569C56.958 149.319 58.5022 148.098 60.6648 150.671C62.8273 153.244 65.1894 152.687 67.5608 152.795C69.9331 152.903 71.786 152.655 72.4043 154.678C72.835 156.088 74.0096 157.53 73.4329 158.781C73.1723 157.969 72.6594 157.124 72.4043 156.29Z" fill="#6E352A"/>
<path d="M86.1489 139.966C85.5926 139.035 84.2646 138.21 83.2175 138.163C81.6723 138.092 77.6569 137.909 75.803 138.157C74.6487 138.312 74.3336 140.309 74.2597 141.795H74.2588C74.2588 141.795 73.9501 136.793 75.803 136.545C77.6569 136.297 81.6732 136.48 83.2175 136.551C84.7618 136.621 86.9252 138.382 86.3069 139.684C86.27 139.762 86.2164 139.857 86.1489 139.966Z" fill="#6E352A"/>
<path d="M105.458 157.132L102.369 160.316C102.369 160.316 99.8975 159.871 99.2793 158.18C98.661 156.489 95.8812 154.368 94.6456 153.832C93.41 153.297 91.5561 155.167 88.5905 153.556C85.6249 151.945 84.7599 152.198 82.5974 150.437C82.0281 149.973 81.9754 149.208 82.2148 148.311C82.2989 148.507 82.4218 148.681 82.5974 148.825C84.7599 150.586 85.6249 150.333 88.5905 151.944C91.5561 153.556 93.41 151.685 94.6456 152.22C95.8812 152.755 98.662 154.877 99.2793 156.567C99.8975 158.258 102.369 158.703 102.369 158.703L105.458 155.519V157.132Z" fill="#6E352A"/>
<path d="M68.2973 176.689C70.6899 177.175 72.1778 175.631 72.7683 173.528C72.8589 173.548 72.955 173.572 73.0363 173.584C72.8284 176.405 71.2527 178.902 68.2963 178.302C64.9204 177.616 64.1792 179.874 62.8198 181.153C62.4926 180.479 62.4067 179.917 62.7449 179.613C64.1543 178.349 64.8594 175.991 68.2973 176.689Z" fill="#6E352A"/>
<path d="M46.1433 158.467C48.3059 160.229 48.6145 162.238 48.6145 164.565C48.6145 166.893 49.2328 169.249 49.2328 169.249C49.2328 169.249 56.029 171.221 57.5742 167.966C59.1194 164.712 60.355 162.441 62.8262 161.224C64.3187 160.489 65.5802 159.274 66.0774 158.191C66.9525 159.346 65.1698 161.683 62.8262 162.837C60.355 164.054 59.1185 166.325 57.5742 169.579C56.03 172.834 49.2328 170.862 49.2328 170.862C49.2328 170.862 48.6145 168.506 48.6145 166.178C48.6145 163.851 48.3059 161.842 46.1433 160.08C43.9808 158.319 42.4356 160.244 40.2731 158.815C38.1106 157.387 35.9481 156.956 32.55 155.139C29.1518 153.321 26.9893 157.878 25.4441 158.472C23.8999 159.066 20.8104 156.931 19.8835 154.228C18.9565 151.526 16.4854 153.076 14.0133 150.968C12.0106 149.261 13.2527 150.319 14.2896 149.568C16.6665 151.345 18.9908 150.015 19.8826 152.616C20.8095 155.318 23.8989 157.454 25.4432 156.86C26.9875 156.265 29.1509 151.709 32.549 153.527C35.9471 155.344 38.1097 155.775 40.2722 157.203C42.4356 158.631 43.9808 156.707 46.1433 158.467Z" fill="#6E352A"/>
<path d="M46.366 146.167C46.3797 146.852 46.3678 147.589 46.3596 148.353C46.3476 147.61 46.3577 146.875 46.366 146.167Z" fill="#6E352A"/>
<path d="M48.9228 133.991C49.4136 133.881 49.7157 133.683 49.8941 133.438C50.2342 134.265 50.3257 135.289 48.9228 135.604C47.4146 135.941 46.8287 135.33 46.5995 134.801C46.4535 133.562 46.4507 132.548 46.4507 132.548C46.4507 132.548 46.4516 134.543 48.9228 133.991Z" fill="#6E352A"/>
<path d="M50.4681 129.688C48.6142 125.281 47.3786 129.214 45.5248 129.463C43.6709 129.711 42.1266 131.968 39.6545 134.515C39.4558 134.72 39.3071 134.902 39.1804 135.074C38.6232 134.64 38.5455 134.046 39.6545 132.903C42.1257 130.356 43.6709 128.099 45.5248 127.851C47.3786 127.602 48.6142 123.669 50.4681 128.076C52.041 131.814 54.4891 133.915 53.5021 135.202C52.9402 133.923 51.5096 132.164 50.4681 129.688Z" fill="#6E352A"/>
<path d="M44.3604 133.734C44.4083 134.262 44.4516 134.855 44.377 135.538C44.3189 134.851 44.2351 134.269 44.3604 133.734Z" fill="#6E352A"/>
<path d="M175.142 39.4847C175.142 39.4847 167.331 30.3953 167.331 20.237C167.331 14.2025 170.088 8.35568 172.326 4.60378C173.469 2.68845 171.774 0.454346 169.177 0.454346C168.01 0.454346 166.922 0.927908 166.27 1.72299C163.558 5.0288 156.36 14.2189 153.128 22.3749C149.105 32.5333 146.5 39.4838 146.5 39.4838H175.142V39.4847Z" fill="#211521"/>
<path d="M72.9981 115.995C72.6626 114.433 72.3992 112.873 72.1959 111.313C65.664 71.7304 83.9521 34.4258 115.867 34.4258C121.24 34.4258 126.523 35.5763 131.587 37.7087C139.859 35.5763 148.649 34.4258 157.765 34.4258C166.903 34.4258 175.715 35.5818 184.006 37.7252C189.081 35.5827 194.377 34.4258 199.763 34.4258C233.066 34.4258 251.399 74.7624 242.541 115.995C235.215 150.099 211.045 173.702 187.484 173.702C183.674 173.702 180.019 173.121 176.558 172.031C170.523 173.122 164.237 173.702 157.772 173.702C151.323 173.702 145.052 173.124 139.031 172.04C135.577 173.124 131.931 173.702 128.13 173.702C105.551 173.702 82.5474 152.147 74.1791 120.567C73.73 119.068 73.3307 117.544 72.9981 115.995Z" fill="#211521"/>
<path d="M133.1 118.453C132.98 125.581 135.516 137.548 138.102 147.804C138.954 151.17 139.806 154.36 140.574 157.125C142.25 163.143 147.068 167.786 153.182 169.272L153.943 169.461C156.492 170.082 159.155 170.117 161.726 169.573L164.142 169.064C170.474 167.716 175.532 162.99 177.243 156.797C177.941 154.269 178.708 151.413 179.476 148.391C182.117 138.009 184.752 125.714 184.632 118.453C184.414 105.725 179.039 83.3771 173.426 68.3457C172.693 66.3837 171.953 64.548 171.228 62.8718C163.064 44.1471 159.81 42.9251 158.866 43.1413C157.922 42.9251 154.667 44.1471 146.504 62.8718C145.3 65.6225 144.081 68.8202 142.898 72.2826C137.819 87.0713 133.297 106.794 133.1 118.453Z" fill="#B21E02"/>
<path d="M165.248 121.332L159.483 113.269C158.278 111.583 155.749 111.599 154.565 113.3L148.954 121.363C147.582 123.336 149.007 126.026 151.425 126.026H162.8C165.235 126.026 166.657 123.302 165.248 121.332Z" fill="#47161A"/>
<path d="M139.353 147.693C138.938 147.735 138.515 147.77 138.099 147.804C138.951 151.17 139.804 154.36 140.572 157.125C142.248 163.143 147.066 167.786 153.18 169.273L153.94 169.461C156.49 170.082 159.153 170.117 161.724 169.573L164.139 169.064C170.472 167.716 175.53 162.99 177.241 156.797C177.939 154.27 178.706 151.413 179.474 148.391C179.46 148.377 179.453 148.37 179.439 148.356C178.868 147.818 178.093 147.546 177.34 147.323C169.571 144.998 161.259 145.703 153.18 146.436C148.574 146.855 143.967 147.274 139.353 147.693Z" fill="#8B1803"/>
<path d="M94.7191 129.547C95.1349 130.838 95.5434 132.088 95.9445 133.282C105.102 160.371 112.3 163.757 115.851 166.201C126.769 173.699 136.278 169.538 137.687 166.201C138.046 165.356 135.285 158.214 132.46 148.258C128.804 135.357 125.042 117.735 127.825 102.975C129.769 92.6633 133.517 80.9908 137.341 70.6291C143.209 54.7247 149.259 41.9274 149.259 41.9274C149.259 41.9274 134.509 36.0211 125.972 43.6028C118.675 50.0816 112.37 57.0211 107.221 64.2895C92.9438 84.4386 87.5624 107.115 94.7191 129.547Z" fill="#B21E02"/>
<path d="M95.9441 133.282C105.102 160.371 112.3 163.757 115.85 166.201C126.768 173.7 136.278 169.538 137.686 166.201C138.046 165.357 135.284 158.215 132.459 148.259C132.008 148.294 131.557 148.329 131.1 148.357C121.718 142.813 110.75 138.08 100.269 135.015C98.7757 134.574 97.212 134.121 95.9441 133.282Z" fill="#8B1803"/>
<path d="M77.0169 113.413C83.145 143.657 103.876 160.615 103.876 160.615C103.876 160.615 98.9453 151.539 92.4854 135.272C91.4993 132.793 90.6685 130.266 89.9985 127.69C86.2298 113.364 87.2094 97.5989 92.4854 81.025C94.6267 74.2879 98.8177 67.2641 103.396 60.9456C112.095 48.9305 122.189 39.4839 122.189 39.4839C99.3029 39.4839 85.7437 51.4504 79.623 69.0649C78.8338 71.3338 78.1647 73.6934 77.6222 76.1373C74.4949 90.1428 74.8257 102.626 77.0169 113.413Z" fill="#7A1606"/>
<path d="M187.907 102.975C191.38 121.371 184.674 144.229 180.686 156.831C179.003 162.138 177.806 165.628 178.045 166.201C179.454 169.538 188.963 173.699 199.881 166.201C203.15 163.953 209.517 160.902 217.653 139.266C218.744 136.376 219.864 133.15 221.013 129.547C228.176 107.087 222.781 84.3836 208.461 64.2199C203.326 56.9799 197.029 50.0614 189.76 43.6028C181.222 36.0211 166.473 41.9274 166.473 41.9274C166.473 41.9274 171.791 53.1749 177.286 67.6759C181.476 78.7274 185.773 91.6712 187.907 102.975Z" fill="#B21E02"/>
<path d="M166.474 41.9276C166.474 41.9276 171.376 52.2939 176.629 65.9522C176.787 66.3635 177.398 66.2774 177.434 65.8386C177.434 65.8276 177.435 65.8166 177.436 65.8057C177.468 65.4072 177.985 65.2872 178.204 65.6234C178.977 66.8123 180.124 67.765 181.447 68.2972C181.719 68.4062 182.019 68.2275 182.033 67.9381C182.088 66.7931 182.147 65.6481 182.204 64.5031C182.224 64.101 182.76 63.9572 182.969 64.3025C182.978 64.319 182.989 64.3346 182.999 64.3502C183.77 65.5913 185.712 65.0289 185.719 63.5706C185.726 62.3798 185.732 61.1891 185.739 59.9992C185.741 59.598 186.255 59.4414 186.492 59.7656C187.665 61.3668 189.148 62.7472 190.829 63.8161C192.211 64.6946 194.043 63.8326 194.226 62.2159L194.233 62.1618C194.36 61.037 195.619 60.394 196.601 60.972C198.327 61.9878 199.886 63.2821 201.197 64.7889C201.965 65.6701 203.429 65.1755 203.522 64.014L203.526 63.9718C203.554 63.6008 204.029 63.4479 204.259 63.7419C205.191 64.9327 206.326 65.9696 207.606 66.794C207.866 66.9616 208.214 66.7839 208.243 66.478C208.31 65.7773 208.376 65.0774 208.446 64.3749C208.456 64.2741 208.43 64.1733 208.371 64.0909C203.253 56.8967 196.987 50.0213 189.761 43.6011C181.224 36.0213 166.474 41.9276 166.474 41.9276Z" fill="#8B1803"/>
<path d="M180.687 156.832C179.004 162.138 177.807 165.629 178.046 166.201C179.455 169.538 188.964 173.7 199.882 166.201C203.151 163.953 209.518 160.902 217.654 139.267C216.837 140.321 215.991 141.361 215.153 142.395C214.075 143.721 213.004 145.047 211.927 146.375C210.651 147.946 209.067 149.67 207.031 149.572C206.405 149.545 205.771 149.328 205.151 149.44C202.593 149.908 203.334 154.557 200.903 155.479C200.298 155.348 199.72 155.103 199.2 154.77C197.269 153.53 194.668 154.099 193.697 156.167C193.638 156.29 193.585 156.416 193.534 156.542C193.048 157.767 191.295 157.894 190.701 156.718C190.694 156.705 190.688 156.693 190.682 156.68C190.441 156.19 189.876 155.951 189.376 156.18C186.768 157.377 183.799 157.795 180.963 157.344C180.856 157.174 180.765 157.007 180.687 156.832Z" fill="#8B1803"/>
<path d="M146.525 90.6007L145.868 95.1825C136.692 93.3038 129.623 86.0309 128.071 76.8728C126.972 70.3866 119.84 66.8198 113.923 69.7977L113.224 70.1494C101.991 75.8029 96.7147 88.8237 100.881 100.607L101.26 101.679C104.196 109.982 111.271 116.178 119.946 118.042C126.528 119.456 133.359 117.146 137.696 112.04L147.661 100.311C149.217 98.4792 148.89 91.0844 146.525 90.6007Z" fill="#47161A"/>
<path d="M167.83 91.3223L168.342 90.2038C177.518 88.3251 185.259 86.0306 186.811 76.8716L187.458 65.2009C188.557 58.7148 195.044 66.8186 200.96 69.7965L201.66 70.1482C212.893 75.8017 218.169 88.8225 214.003 100.606L213.624 101.678C210.688 109.981 203.612 116.177 194.937 118.041C188.355 119.455 181.524 117.145 177.187 112.039L169.592 101.272C168.036 99.4407 165.466 91.8068 167.83 91.3223Z" fill="#47161A"/>
<path d="M100.879 94.9115L101.26 95.9796C104.197 104.288 111.269 110.481 119.947 112.345C121.229 112.624 122.518 112.757 123.8 112.757C129.097 112.757 134.204 110.46 137.697 106.348L147.657 94.6184C149.214 92.7818 148.227 89.9688 145.868 89.487C142.832 88.866 140.028 87.6578 137.584 85.9825C132.619 82.596 129.111 77.3108 128.068 71.181C127.3 66.6496 123.603 63.5498 119.426 63.0964C119.074 63.0616 118.722 63.0405 118.369 63.0405C116.883 63.0405 115.369 63.3758 113.925 64.1022L113.221 64.4512C101.992 70.1056 96.7156 83.1264 100.879 94.9115Z" fill="#EE4107"/>
<path d="M167.225 94.6185L177.185 106.348C180.678 110.46 185.785 112.757 191.082 112.757C192.364 112.757 193.653 112.624 194.935 112.345C203.613 110.481 210.685 104.288 213.622 95.9797L214.002 94.9117C218.165 83.1265 212.889 70.1057 201.661 64.4513L200.957 64.1023C199.154 63.1945 196.738 62.0981 194.222 61.205C188.482 59.1385 182.206 58.0916 181.445 62.601L183.669 66.155C186.154 70.1277 186.261 75.173 183.805 79.163C182.598 81.1242 181.098 82.8865 179.36 84.3897C176.48 86.8958 172.943 88.6838 169.012 89.4862C166.655 89.969 165.668 92.782 167.225 94.6185Z" fill="#EE4107"/>
<path d="M164.59 120.574L159.294 113.166C158.187 111.617 155.863 111.632 154.776 113.194L149.622 120.602C148.361 122.415 149.67 124.885 151.892 124.885H162.342C164.578 124.886 165.884 122.384 164.59 120.574Z" fill="#EE4107"/>
<path d="M162.426 119.96L158.663 114.697C157.876 113.597 156.225 113.607 155.452 114.717L151.79 119.98C150.894 121.268 151.824 123.023 153.403 123.023H160.828C162.418 123.023 163.346 121.245 162.426 119.96Z" fill="#FBFF00"/>
<path d="M90.0721 109.966C91.5461 109.702 92.9333 110.582 93.3076 112.018L93.3408 112.144C93.7206 113.574 94.2936 115.072 94.8685 116.4C95.2132 116.25 95.593 116.168 95.9922 116.168H96.2288C97.7823 116.168 99.0456 117.42 99.0456 118.96V123.783L99.6269 124.467C100.11 124.08 100.725 123.849 101.393 123.849H101.629C103.182 123.849 104.445 125.101 104.445 126.64V131.211L104.681 131.395V130.751C104.681 129.782 105.176 128.898 106.005 128.385L106.475 128.093C107.343 127.554 108.438 127.526 109.333 128.017C110.229 128.509 110.785 129.445 110.785 130.459V136.178L111.96 136.659V135.251C111.96 133.711 113.223 132.459 114.777 132.459H115.483C117.036 132.459 118.299 133.711 118.299 135.251V139.476L122.056 141.502V138.504C122.056 137.386 122.727 136.378 123.761 135.94L124.001 135.837C124.873 135.468 125.868 135.555 126.661 136.072C127.453 136.591 127.926 137.462 127.926 138.404V142.93H130.274V137.112C130.274 135.572 131.537 134.32 133.091 134.32H133.562C135.115 134.32 136.379 135.572 136.379 137.112V142.93H140.37V137.112C140.37 135.572 141.633 134.32 143.187 134.32H144.362C145.916 134.32 147.179 135.572 147.179 137.112V142H151.875V137.112C151.875 135.572 153.138 134.32 154.692 134.32H156.321C157.875 134.32 159.138 135.572 159.138 137.112V142H163.834V137.112C163.834 135.572 165.098 134.32 166.651 134.32H167.827C169.38 134.32 170.644 135.572 170.644 137.112V142.93H174.635V137.112C174.635 135.572 175.898 134.32 177.452 134.32H177.923C179.477 134.32 180.74 135.572 180.74 137.112V142.93H183.087V138.404C183.087 137.462 183.56 136.591 184.353 136.072C185.147 135.554 186.141 135.466 187.017 135.838L187.25 135.938C188.287 136.378 188.958 137.385 188.958 138.504V141.502L192.714 139.476V135.251C192.714 133.711 193.978 132.459 195.531 132.459H196.237C197.791 132.459 199.054 133.711 199.054 135.251V136.659L200.229 136.178V130.459C200.229 129.444 200.785 128.509 201.68 128.017C202.575 127.525 203.671 127.555 204.538 128.092L205.01 128.385C205.838 128.898 206.333 129.783 206.333 130.751V131.395L206.567 131.211V126.64C206.567 125.101 207.831 123.849 209.384 123.849H209.62C210.288 123.849 210.903 124.08 211.386 124.467L211.967 123.783V118.96C211.967 117.42 213.23 116.168 214.784 116.168H215.021C215.42 116.168 215.8 116.25 216.143 116.399C216.72 115.067 217.297 113.557 217.684 112.097L219.726 112.636L217.704 112.018C218.079 110.582 219.468 109.704 220.94 109.966C222.409 110.232 223.394 111.546 223.232 113.022C222.926 115.785 222.494 117.83 221.912 119.273C220.34 123.171 217.743 127.123 216.663 128.692V133.451C216.663 134.45 216.119 135.378 215.244 135.875L214.946 136.044C214.091 136.529 213.064 136.539 212.199 136.07C211.781 135.844 211.439 135.526 211.189 135.148L210.793 135.586V140.977C210.793 141.806 210.426 142.586 209.781 143.121L209.663 143.218C208.853 143.888 207.746 144.052 206.772 143.649C205.8 143.245 205.14 142.347 205.053 141.305L205.001 140.697L202.534 142.418L202.363 146.991C202.308 148.499 201.071 149.68 199.548 149.68H198.612C197.849 149.68 197.109 149.367 196.58 148.822C196.05 148.276 195.766 147.53 195.798 146.772L195.864 145.208L192.854 146.459L192.519 151.266C192.421 152.726 191.186 153.87 189.709 153.87H188.609C187.056 153.87 185.792 152.618 185.792 151.078V148.988L184.126 149.325L183.602 155.726C183.485 157.165 182.251 158.293 180.794 158.293H180.269C178.715 158.293 177.452 157.04 177.452 155.501V149.531L175.433 149.608L174.91 156.865C174.804 158.317 173.569 159.456 172.1 159.456H170.659C169.905 159.456 169.17 159.149 168.643 158.614C168.116 158.079 167.824 157.344 167.842 156.596L168.008 149.914H163.788L163.613 157.888C163.58 159.394 162.317 160.62 160.797 160.62H160.076C158.522 160.62 157.259 159.368 157.259 157.828V149.682H153.752V157.828C153.752 159.368 152.489 160.62 150.935 160.62H150.214C148.695 160.62 147.431 159.394 147.398 157.889L147.223 149.914H143.003L143.168 156.596C143.187 157.344 142.895 158.079 142.368 158.614C141.841 159.149 141.107 159.456 140.352 159.456H138.911C137.442 159.456 136.208 158.318 136.101 156.863L135.578 149.608L133.56 149.531V155.501C133.56 157.04 132.297 158.293 130.743 158.293H130.217C128.761 158.293 127.528 157.166 127.41 155.726L126.886 149.325L125.22 148.988V151.078C125.22 152.618 123.956 153.87 122.403 153.87H121.303C119.826 153.87 118.591 152.726 118.493 151.271L118.157 146.459L115.147 145.208L115.213 146.773C115.244 147.53 114.96 148.276 114.431 148.822C113.902 149.367 113.162 149.68 112.399 149.68H111.463C109.94 149.68 108.703 148.499 108.648 146.992L108.478 142.417L106.011 140.696L105.959 141.304C105.871 142.345 105.213 143.244 104.239 143.647C103.266 144.05 102.158 143.885 101.348 143.215L101.228 143.117C100.586 142.585 100.218 141.804 100.218 140.975V135.584L99.8228 135.146C99.5733 135.524 99.2295 135.843 98.8128 136.068C97.9477 136.536 96.9229 136.526 96.0643 136.041L95.7667 135.872C94.8925 135.376 94.3491 134.447 94.3491 133.449V128.69C93.2678 127.12 90.6728 123.169 89.0999 119.27C88.5167 117.828 88.0861 115.783 87.7802 113.019C87.6175 111.547 88.6027 110.232 90.0721 109.966Z" fill="#47161A"/>
<path d="M87.7794 110.361C88.089 113.126 88.5187 115.171 89.1037 116.617C90.6748 120.512 93.2671 124.464 94.3511 126.035V130.796C94.3511 131.795 94.8936 132.724 95.7669 133.219L96.0626 133.387C96.9221 133.868 97.9507 133.882 98.8101 133.414C99.2325 133.184 99.5707 132.87 99.8239 132.493L100.219 132.926V138.316C100.219 139.146 100.585 139.929 101.226 140.459L101.346 140.557C102.156 141.228 103.269 141.395 104.241 140.99C105.214 140.585 105.875 139.691 105.96 138.644L106.009 138.037L108.481 139.762L108.651 144.335C108.707 145.842 109.94 147.023 111.461 147.023H112.398C113.166 147.023 113.905 146.709 114.434 146.164C114.962 145.619 115.243 144.872 115.216 144.118L115.152 142.548L118.16 143.804L118.491 148.615C118.59 150.067 119.829 151.212 121.301 151.212H122.4C123.956 151.212 125.218 149.962 125.218 148.419V146.331L126.887 146.667L127.408 153.069C127.528 154.507 128.76 155.631 130.218 155.631H130.747C132.297 155.631 133.557 154.381 133.557 152.845V146.876L135.579 146.953L136.101 154.206C136.206 155.658 137.446 156.797 138.911 156.797H140.355C141.11 156.797 141.842 156.49 142.37 155.959C142.899 155.421 143.187 154.688 143.173 153.941L143.018 147.909L143.004 147.253H147.224L147.4 155.233C147.435 156.734 148.696 157.963 150.218 157.963H150.936C152.493 157.963 153.754 156.706 153.754 155.17V147.022H157.262V155.17C157.262 156.706 158.523 157.963 160.08 157.963H160.798C162.319 157.963 163.58 156.734 163.616 155.233L163.792 147.253H168.012L167.998 147.909L167.843 153.941C167.829 154.688 168.117 155.421 168.646 155.959C169.174 156.489 169.906 156.797 170.66 156.797H172.105C173.57 156.797 174.81 155.659 174.915 154.206L175.436 146.953L177.458 146.876V152.845C177.458 154.381 178.718 155.631 180.268 155.631H180.797C182.255 155.631 183.487 154.507 183.607 153.069L184.128 146.667L185.797 146.331V148.419C185.797 149.962 187.058 151.212 188.615 151.212H189.714C191.186 151.212 192.426 150.067 192.524 148.608L192.855 143.804L195.863 142.548L195.799 144.118C195.771 144.872 196.052 145.62 196.581 146.164C197.11 146.709 197.849 147.023 198.617 147.023H199.554C201.075 147.023 202.308 145.843 202.364 144.335L202.534 139.762L205.006 138.037L205.055 138.644C205.139 139.691 205.801 140.585 206.774 140.99C207.746 141.395 208.858 141.228 209.669 140.557L209.782 140.466C210.43 139.929 210.796 139.146 210.796 138.316V132.926L211.191 132.493C211.444 132.87 211.782 133.184 212.205 133.414C213.064 133.882 214.093 133.868 214.945 133.387L215.248 133.219C216.121 132.724 216.664 131.795 216.664 130.796V126.035C217.749 124.464 220.341 120.512 221.911 116.617C222.496 115.171 222.926 113.126 223.236 110.368C223.334 109.474 223.01 108.643 222.419 108.064C222.031 107.687 221.524 107.415 220.939 107.31C219.467 107.045 218.079 107.925 217.706 109.363L219.728 109.978L217.686 109.44C217.299 110.899 216.721 112.414 216.144 113.741C215.805 113.594 215.425 113.511 215.023 113.511H214.784C213.234 113.511 211.974 114.767 211.974 116.303V121.128L211.389 121.812C210.903 121.421 210.29 121.191 209.621 121.191H209.389C207.832 121.191 206.571 122.448 206.571 123.984V128.557L206.338 128.738V128.096C206.338 127.126 205.838 126.239 205.014 125.729L204.542 125.436C203.676 124.898 202.576 124.871 201.681 125.359C200.787 125.854 200.231 126.791 200.231 127.803V133.52L199.054 134.002V132.592C199.054 131.056 197.794 129.799 196.236 129.799H195.532C193.982 129.799 192.714 131.056 192.714 132.592V136.823L188.96 138.847V135.845C188.96 134.729 188.29 133.723 187.248 133.283L187.015 133.185C186.142 132.808 185.148 132.898 184.353 133.415C183.563 133.932 183.092 134.805 183.092 135.747V140.271H180.739V134.456C180.739 132.92 179.479 131.663 177.921 131.663H177.449C175.899 131.663 174.639 132.92 174.639 134.456V140.271H170.645V134.456C170.645 132.92 169.384 131.663 167.827 131.663H166.65C165.101 131.663 163.833 132.92 163.833 134.456V139.342H159.142V134.456C159.142 132.92 157.874 131.663 156.324 131.663H154.69C153.14 131.663 151.872 132.92 151.872 134.456V139.342H147.181V134.456C147.181 132.92 145.913 131.663 144.364 131.663H143.187C141.63 131.663 140.369 132.92 140.369 134.456V140.271H136.375V134.456C136.375 132.92 135.115 131.663 133.565 131.663H133.093C131.536 131.663 130.275 132.92 130.275 134.456V140.271H127.922V135.747C127.922 134.805 127.45 133.932 126.661 133.415C125.866 132.898 124.872 132.808 123.999 133.178L123.76 133.282C122.724 133.722 122.054 134.728 122.054 135.844V138.846L118.3 136.822V132.591C118.3 131.055 117.032 129.798 115.482 129.798H114.778C113.221 129.798 111.96 131.055 111.96 132.591V134.001L110.783 133.52V127.802C110.783 126.79 110.227 125.855 109.333 125.358C108.438 124.869 107.339 124.897 106.473 125.435L106.001 125.728C105.177 126.237 104.677 127.124 104.677 128.095V128.737L104.444 128.556V123.983C104.444 122.447 103.183 121.19 101.626 121.19H101.393C100.724 121.19 100.111 121.42 99.6252 121.811L99.0403 121.127V116.303C99.0403 114.766 97.7797 113.51 96.2299 113.51H95.9905C95.5894 113.51 95.2087 113.593 94.8704 113.74C94.2928 112.413 93.7227 110.919 93.3419 109.488L93.3068 109.362C92.9334 107.924 91.5462 107.045 90.0741 107.309C89.4891 107.414 88.9827 107.687 88.5945 108.063C88.0049 108.644 87.6805 109.475 87.7794 110.361Z" fill="#EE4107"/>
<path d="M223.247 81.025C227.903 95.6653 229.214 109.678 226.854 122.628C226.072 126.971 224.874 131.187 223.247 135.272C216.789 151.539 211.857 160.615 211.857 160.615C211.857 160.615 236.63 140.334 240.026 104.609C240.652 98.0881 240.561 91.0579 239.477 83.5449C239.131 81.1294 238.681 78.6581 238.117 76.1373C233.327 54.7315 219.373 39.4839 193.543 39.4839C193.543 39.4839 205.342 50.5289 214.421 63.9198C218.162 69.4286 221.437 75.3285 223.247 81.025Z" fill="#7A1606"/>
<path d="M215.17 63.1897C215.177 63.1796 215.182 63.1696 215.188 63.1595C215.437 62.7299 215.988 62.5953 216.37 62.9159C218.494 64.7039 220.361 66.7887 221.907 69.0869C222.369 69.7739 223.452 69.3003 223.268 68.4952C223.034 67.4711 222.801 66.4461 222.567 65.422C222.392 64.6517 223.388 64.1634 223.89 64.7762C224.768 65.8498 225.606 66.9526 226.404 68.0848C226.897 68.7837 227.993 68.2579 227.745 67.4409C227.42 66.3655 227.094 65.291 226.769 64.2157C226.529 63.427 227.571 62.8811 228.085 63.5277C231.535 67.8705 234.494 72.597 236.903 77.5836C237.289 78.3842 238.511 77.9747 238.326 77.1073C238.258 76.7849 238.186 76.4615 238.114 76.1373C233.324 54.7315 219.371 39.4839 193.541 39.4839C193.541 39.4839 204.912 50.1295 213.919 63.1888C214.221 63.6267 214.895 63.6431 215.17 63.1897Z" fill="#47161A"/>
<path d="M146.506 62.8727C145.301 65.6234 144.082 68.8211 142.899 72.2836C142.936 73.1189 142.973 73.9543 143.012 74.7906C143.054 75.6975 144.201 76.0886 144.785 75.3888C146.435 73.4093 148.461 71.7386 150.726 70.4965C151.367 70.1456 152.161 70.5908 152.202 71.3145C152.249 72.1636 152.332 73.0118 152.451 73.8545C152.743 75.9384 155.665 76.2828 156.442 74.3244C156.854 73.2847 157.196 72.2185 157.463 71.1331C157.728 70.0595 158.682 69.2434 159.797 69.215C159.897 69.2122 160 69.204 160.104 69.1912C161.297 69.0382 162.455 69.597 162.954 70.6815C163.224 71.2686 163.535 71.8512 163.876 72.3797C164.339 73.097 165.439 72.944 165.688 72.1287L165.756 71.9098C165.981 71.1734 166.917 70.9664 167.453 71.5242C168.038 72.1334 168.695 72.6756 169.405 73.1363C170.061 73.5623 170.937 73.107 170.966 72.3303C171.01 71.1056 171.053 69.8827 171.097 68.6581C171.124 67.9033 171.958 67.4453 172.616 67.8273C172.894 67.9885 173.165 68.1616 173.429 68.3457C172.696 66.3837 171.957 64.548 171.231 62.8718C163.067 44.1471 159.813 42.9251 158.869 43.1413C157.923 42.9261 154.669 44.148 146.506 62.8727Z" fill="#961E06"/>
<path d="M107.221 64.2897C109.309 63.2418 111.161 61.7332 112.621 59.9177C112.723 59.7913 112.917 59.8792 112.89 60.0386C112.886 60.0606 112.882 60.0826 112.879 60.1045C112.46 62.6592 115.776 64.1303 117.474 62.1646C119.812 59.4578 121.69 56.359 122.992 53.0358C122.374 54.5289 121.972 56.1072 121.796 57.7092C121.496 60.4242 124.834 62.1087 126.851 60.2465C126.87 60.2282 126.89 60.2108 126.909 60.1925C127.222 59.8966 127.715 60.1888 127.632 60.6092C127.448 61.5399 127.441 62.477 127.822 63.3737C128.097 64.0186 128.648 64.4885 129.284 64.7908C130.619 65.4237 131.446 66.7739 131.229 68.2239C131.224 68.2559 131.219 68.2871 131.215 68.3182C131.034 69.5228 132.398 70.3719 133.4 69.6684C134.595 68.8303 135.875 68.3466 136.425 68.9319C136.883 69.4138 137.165 69.9936 137.341 70.6284C143.209 54.724 149.259 41.9267 149.259 41.9267C149.259 41.9267 134.509 36.0204 125.972 43.602C118.674 50.0827 112.369 57.0222 107.221 64.2897Z" fill="#8B1803"/>
<path d="M78.9179 73.4054C78.5482 75.9775 82.1108 76.9989 83.206 74.6384C85.0552 70.6529 86.2936 66.388 86.8471 62.0362C87.5292 61.7037 87.5061 61.7146 88.1881 61.3821C89.0466 61.8942 90.2286 61.853 91.0594 61.0249C91.8764 60.2115 92.7229 59.4283 93.5981 58.6772C94.684 57.7447 96.3789 58.4903 96.414 59.9138L96.4149 59.9486C95.8678 64.0376 103.085 60.402 103.389 58.8806C103.389 59.5712 103.396 60.2554 103.396 60.947C112.095 48.932 122.189 39.4854 122.189 39.4854C99.3029 39.4854 85.7437 51.4519 79.623 69.0664C79.3596 70.5072 79.1268 71.9554 78.9179 73.4054Z" fill="#47161A"/>
<path d="M219.912 164.176C219.898 164.189 219.891 164.203 219.877 164.218L220.476 163.967C220.285 164.036 220.095 164.1 219.912 164.176Z" fill="#47161A"/>
<path d="M223.247 135.272C216.788 151.539 211.856 160.615 211.856 160.615C211.856 160.615 236.629 140.333 240.025 104.609C239.173 106.556 238.313 108.512 237.461 110.459C237.094 110.613 236.693 110.551 236.355 110.36C235.747 110.018 234.99 110.297 234.767 110.954C234.414 111.995 234.129 113.06 233.916 114.138C233.742 115.015 232.652 115.34 232.047 114.675C232.032 114.657 232.016 114.64 231.999 114.623C231.44 114.008 230.421 114.224 230.161 115.011C229.877 115.872 229.676 116.76 229.558 117.658C229.389 118.94 228.839 120.167 227.944 121.109C227.519 121.557 227.161 122.073 226.852 122.628C226.072 126.971 224.874 131.188 223.247 135.272Z" fill="#47161A"/>
<path d="M77.0155 113.412C83.1436 143.657 103.874 160.615 103.874 160.615C103.874 160.615 98.9438 151.539 92.484 135.272C91.4979 132.793 90.6671 130.266 89.9971 127.69C89.8224 127.708 89.6542 127.744 89.4981 127.798C88.8188 128.033 88.0721 127.76 87.7819 127.107C87.0897 125.547 86.3079 124.026 85.4401 122.556C84.7313 121.355 82.8238 121.89 82.9366 123.276L82.9393 123.312C79.1142 122.279 79.6844 115.326 77.0155 113.412Z" fill="#47161A"/>
<path d="M174.159 93.5924C172.745 94.3829 172.245 96.1654 173.133 97.5128C175.194 100.64 179.693 104.214 182.701 106.425C186.822 109.462 192.647 110.788 197.141 108.323C199.924 106.801 201.628 103.541 201.622 100.469C201.608 98.6047 202.911 96.9779 204.721 96.4686C207.792 95.5957 210.645 92.6636 211.067 89.3614C211.75 84.1046 210.229 78.2257 206.925 74.0433C203.742 70.0148 201.525 68.3294 194.226 63.9967L194.164 63.9747C191.666 63.0752 189.11 65.1445 189.487 67.7523C189.579 68.3889 189.707 69.0347 189.856 69.6685C191.059 74.7688 190.011 80.1429 186.786 84.2923C183.532 88.4793 177.272 91.8538 174.159 93.5924Z" fill="#FBFF00"/>
<path d="M139.285 94.8057C140.7 95.5962 141.2 97.3788 140.312 98.7262C138.25 101.853 133.751 105.428 130.743 107.638C126.622 110.674 120.798 112.002 116.303 109.537C113.521 108.014 111.817 104.754 111.823 101.682C111.837 99.818 110.534 98.1912 108.723 97.6819C105.652 96.809 102.8 93.8769 102.377 90.5748C101.694 85.3179 103.216 79.4391 106.519 75.2566C109.703 71.2281 111.919 69.5427 119.219 65.2101L119.281 65.1871C121.779 64.2876 124.335 66.3569 123.958 68.9647C123.866 69.6013 123.738 70.2471 123.588 70.8809C122.385 75.9812 123.433 81.3553 126.659 85.5047C129.912 89.6927 136.173 93.0672 139.285 94.8057Z" fill="#FBFF00"/>
<path d="M90.4832 107.269C91.8075 107.213 92.9701 108.156 93.3222 109.42L93.3435 109.489C93.7233 110.921 94.2944 112.415 94.872 113.741C95.2103 113.595 95.5901 113.511 95.9921 113.511H96.225C97.7748 113.511 99.0428 114.768 99.0428 116.304V121.129L99.6277 121.813C100.114 121.422 100.727 121.192 101.396 121.192H101.629C103.185 121.192 104.446 122.442 104.446 123.985V128.558L104.664 128.725L104.678 128.53V128.097C104.678 127.846 104.713 127.594 104.777 127.364C104.96 126.694 105.39 126.107 106.003 125.73L106.475 125.437C107.342 124.899 108.44 124.872 109.334 125.36C110.229 125.855 110.785 126.791 110.785 127.804V133.521L111.962 134.003V132.592C111.962 131.056 113.222 129.8 114.779 129.8H115.483C117.033 129.8 118.301 131.056 118.301 132.592V136.823L122.056 138.848V135.846C122.056 134.748 122.707 133.752 123.719 133.304L124 133.18C125.164 132.69 126.53 133.013 127.37 134.063C127.76 134.551 127.924 135.18 127.924 135.802V140.273H130.277V134.457C130.277 132.921 131.538 131.665 133.095 131.665H133.56C135.11 131.665 136.378 132.921 136.378 134.457V140.273H140.372V134.457C140.372 132.921 141.632 131.665 143.19 131.665H144.366C145.916 131.665 147.184 132.921 147.184 134.457V139.344H151.875V134.457C151.875 132.921 153.143 131.665 154.693 131.665H156.326C157.876 131.665 159.144 132.921 159.144 134.457V139.344H163.835V134.457C163.835 132.921 165.103 131.665 166.653 131.665H167.829C169.387 131.665 170.647 132.921 170.647 134.457V140.273H174.641V134.45C174.641 132.911 175.9 131.665 177.452 131.665H177.924C179.481 131.665 180.742 132.921 180.742 134.457V140.273H183.095V135.749C183.095 134.429 184.024 133.243 185.448 132.985C185.983 132.887 186.539 132.985 187.046 133.201L187.251 133.284C188.287 133.709 188.962 134.711 188.962 135.822V138.849L192.196 137.11C192.513 136.936 192.717 136.594 192.717 136.231V132.593C192.717 131.057 193.985 129.801 195.535 129.801H196.239C197.795 129.801 199.057 131.057 199.057 132.593V134.004L200.233 133.522V127.805C200.233 126.792 200.789 125.857 201.684 125.361C202.579 124.872 203.677 124.9 204.544 125.438L205.016 125.731C205.841 126.24 206.341 127.127 206.341 128.098V128.74L206.574 128.558V124.488V123.985C206.574 122.442 207.835 121.192 209.391 121.192H209.623C210.292 121.192 210.905 121.422 211.391 121.813L211.976 121.129V116.298C211.976 114.759 213.235 113.512 214.787 113.512H215.026C215.428 113.512 215.808 113.596 216.146 113.742C216.724 112.416 217.301 110.901 217.688 109.442L219.731 109.979L217.709 109.365C218.082 107.927 219.47 107.047 220.941 107.312C221.526 107.416 222.033 107.689 222.421 108.066C222.266 108.652 222.097 109.176 221.914 109.637C220.343 113.533 217.75 117.484 216.666 119.055V123.803C216.666 124.818 216.115 125.755 215.222 126.253L214.947 126.407C214.095 126.896 213.067 126.902 212.207 126.434C211.785 126.211 211.447 125.889 211.194 125.513L210.799 125.952V131.342C210.799 132.166 210.433 132.948 209.784 133.486L209.717 133.544C209.408 133.813 209.051 134.034 208.653 134.136C208.033 134.293 207.417 134.248 206.88 134.051C205.864 133.678 204.74 133.742 203.84 134.341C203.829 134.348 203.818 134.356 203.807 134.363C202.951 134.933 202.421 135.875 202.383 136.897L202.366 137.354C202.31 138.854 201.067 140.042 199.552 140.042H198.619C198.078 140.042 197.552 139.89 197.104 139.608C196.661 139.33 196.12 139.254 195.601 139.331L194.502 139.497C193.422 139.66 192.6 140.546 192.526 141.627C192.427 143.093 191.187 144.231 189.715 144.231H188.616C188.015 144.231 187.458 144.045 186.999 143.726C186.346 143.272 185.507 143.175 184.798 143.539C184.159 143.866 183.737 144.496 183.68 145.206L183.608 146.089C183.488 147.527 182.256 148.658 180.798 148.658H180.277C178.727 148.658 177.459 147.401 177.459 145.865C177.459 145.24 176.948 144.734 176.318 144.734C175.627 144.734 175.054 145.263 175.006 145.946L174.916 147.226C174.81 148.678 173.57 149.817 172.105 149.817H170.661C169.907 149.817 169.175 149.51 168.646 148.979C168.351 148.678 168.125 148.308 167.999 147.911C167.921 147.701 167.872 147.477 167.858 147.255C167.844 147.157 167.844 147.06 167.844 146.962L167.869 145.979C167.887 145.296 167.333 144.734 166.645 144.734H164.893C164.227 144.734 163.684 145.262 163.669 145.921L163.617 148.252C163.582 149.76 162.321 150.982 160.799 150.982H160.081C158.525 150.982 157.264 149.732 157.264 148.189V145.947C157.264 145.276 156.716 144.733 156.039 144.733H154.981C154.304 144.733 153.756 145.276 153.756 145.947V148.189C153.756 149.732 152.495 150.982 150.939 150.982H150.221C148.699 150.982 147.438 149.76 147.403 148.252L147.361 145.926C147.349 145.263 146.805 144.733 146.137 144.733H144.385C143.702 144.733 143.15 145.288 143.161 145.966L143.177 146.96C143.177 147.058 143.177 147.155 143.163 147.253C143.149 147.476 143.099 147.7 143.022 147.909C142.896 148.306 142.67 148.676 142.375 148.977C141.846 149.507 141.114 149.815 140.36 149.815H138.915C137.436 149.815 136.208 148.68 136.104 147.217L135.999 145.731H133.562V145.87C133.562 147.409 132.304 148.655 130.751 148.655H130.223C128.754 148.655 127.532 147.538 127.412 146.087L127.229 143.852L124.828 142.861C124.341 143.678 123.433 144.229 122.404 144.229H121.306C119.823 144.229 118.595 143.092 118.494 141.626L118.389 140.089L115.022 138.295C114.882 138.622 114.691 138.923 114.437 139.181C113.909 139.733 113.169 140.04 112.401 140.04H111.469C109.954 140.04 108.71 138.853 108.654 137.352L108.534 134.175L105.85 132.228C105.625 133.024 105.033 133.687 104.244 134.009C103.272 134.413 102.159 134.246 101.349 133.583L101.228 133.478C100.588 132.918 100.221 132.112 100.221 131.265V125.952L99.8264 125.512C99.5732 125.889 99.235 126.21 98.8126 126.433C97.9532 126.901 96.9246 126.887 96.0651 126.406L95.7445 126.22C94.8831 125.72 94.3536 124.806 94.3536 123.816V119.055C93.2686 117.484 90.6764 113.533 89.1062 109.637C88.9232 109.176 88.7542 108.652 88.5989 108.066C89.0739 107.604 89.7291 107.296 90.4832 107.269Z" fill="#FBFF00"/>
<path d="M214.208 41.4625C214.208 41.4625 208.338 39.1349 202.938 37.9716C197.537 36.8083 189.32 37.9716 189.32 37.9716C189.32 37.9716 196.129 35.1787 203.173 36.343C210.217 37.5063 214.208 41.4625 214.208 41.4625Z" fill="#1E4154"/>
<path d="M100.542 41.4625C100.542 41.4625 106.413 39.1349 111.813 37.9716C117.213 36.8083 125.431 37.9716 125.431 37.9716C125.431 37.9716 118.622 35.1787 111.578 36.343C104.534 37.5063 100.542 41.4625 100.542 41.4625Z" fill="#1E4154"/>
<path d="M162.318 42.1861C162.318 42.1861 167.374 39.8586 172.026 38.6953C176.678 37.532 183.757 38.6953 183.757 38.6953C183.757 38.6953 177.891 35.9024 171.824 37.0657C165.755 38.2299 162.318 42.1861 162.318 42.1861Z" fill="#1E4154"/>
<path d="M152.575 42.1861C152.575 42.1861 147.519 39.8585 142.867 38.6952C138.215 37.5319 131.137 38.6952 131.137 38.6952C131.137 38.6952 137.002 35.9024 143.07 37.0666C149.137 38.2299 152.575 42.1861 152.575 42.1861Z" fill="#1E4154"/>
<path d="M176.962 62.1181L169.256 44.5714C169.256 44.5714 169.107 43.9879 172.674 49.3034C176.241 54.6198 176.962 62.1181 176.962 62.1181Z" fill="#A14836"/>
<path d="M136.901 63.9655L144.608 46.4188C144.608 46.4188 144.756 45.8353 141.189 51.1508C137.623 56.4672 136.901 63.9655 136.901 63.9655Z" fill="#A14836"/>
<path d="M162.32 21.6807C162.32 21.6807 159.099 29.3484 160.826 32.5022C162.555 35.6559 164.667 36.7826 164.667 36.7826L157.825 39.7367L152.578 36.059C152.578 36.059 155.89 24.8912 158.87 19.9696C161.849 15.0489 164.667 10.8591 164.667 10.8591C164.667 10.8591 157.447 24.9965 156.743 29.5353C156.038 34.0731 157.825 36.7826 157.825 36.7826C157.825 36.7826 158.856 33.3751 159.384 30.0592C159.913 26.7424 162.32 21.6807 162.32 21.6807Z" fill="#1E4154"/>
<path d="M249.179 192.862C249.179 192.862 248.424 194.684 246.769 195.672C245.113 196.661 245.123 195.999 243.832 197.003C242.541 198.007 244.898 199.035 241.257 198.483C237.616 197.93 238.17 197.424 235.264 196.505C235.083 196.447 234.908 196.393 234.741 196.342C233.7 196.602 232.401 196.937 231.717 197.156C230.464 197.558 229.62 198.382 229.57 198.893C229.52 199.404 228.737 200.828 227.312 201.325C225.887 201.822 225.627 201.392 224.746 201.294C223.866 201.197 224.369 202.07 224.728 202.631C225.086 203.192 228.521 202.189 228.521 202.189C228.521 202.189 227.899 202.391 226.092 203.204C224.283 204.016 228.338 203.138 224.283 204.016C224.081 204.06 220.629 201.749 221.468 201.255C222.307 200.761 222.736 199.828 224.762 200.13C226.504 200.391 227.447 199.408 227.586 198.286C227.246 198.248 226.78 198.137 226.121 197.93C222.852 196.902 220.299 196.788 218.277 197.896C216.255 199.004 215.884 199.386 213.884 198.903C211.885 198.42 212.251 198.304 210.993 196.925C209.735 195.548 210.112 194.636 208.48 193.905C206.848 193.173 205.034 192.434 203.938 192.519C202.842 192.605 202.465 193.516 200.822 193.578C199.178 193.641 199.173 194.037 198.449 193.609C197.726 193.182 196.639 192.606 195.921 191.78C195.203 190.955 193.181 192.06 191.744 190.41C190.307 188.759 191.412 188.012 190.325 187.437C189.238 186.86 188.003 183.894 188.003 183.894C188.003 183.894 189.804 185.561 190.526 186.121C191.247 186.682 189.814 184.766 191.648 184.05C193.483 183.334 193.483 183.334 193.483 183.334C193.483 183.334 191.268 185.225 192.166 186.191C193.065 187.156 193.978 187.063 193.418 187.966C192.858 188.869 191.411 188.013 192.858 188.869C194.305 189.726 195.774 189.126 196.306 190.208C196.838 191.29 198.651 192.162 199.567 191.937C200.481 191.711 201.784 189.913 203.781 190.66C205.777 191.407 207.051 191.594 208.321 192.178C209.59 192.761 210.512 192.006 211.78 192.723C213.047 193.439 213.219 194.241 213.206 195.168C213.193 196.094 213.545 197.036 213.545 197.036C213.545 197.036 217.548 197.869 218.478 196.585C219.407 195.3 220.149 194.405 221.616 193.938C223.082 193.471 224.191 192.475 223.467 192.039C222.743 191.603 221.647 191.689 219.286 190.926C216.925 190.163 215.291 189.563 214.197 189.517C213.103 189.47 212.173 190.754 212.008 189.423C211.845 188.092 212.229 186.652 211.691 185.967C211.154 185.283 210.434 184.59 209.529 184.021C208.624 183.453 206.617 183.5 208.09 182.503C209.563 181.506 210.488 180.619 211.583 180.534C212.679 180.448 213.431 178.891 214.501 180.658C215.571 182.425 217.383 183.297 215.736 183.756C215.223 183.899 214.711 184.016 214.243 184.09C213.207 184.253 212.389 184.201 212.27 183.741C212.097 183.071 212.106 182.41 212.106 182.41C212.106 182.41 212.095 183.204 213.557 183.001C215.019 182.799 213.758 181.686 213.758 181.686C213.758 181.686 211.938 181.343 211.202 181.842C210.465 182.34 211.102 182.875 210.81 183.811C210.517 184.747 212.442 184.543 213.158 185.5C213.874 186.457 213.318 187.096 214.041 187.656C214.762 188.217 216.035 188.536 217.125 188.847C218.216 189.159 219.135 188.684 220.397 189.723C221.659 190.763 223.058 190.557 224.457 190.617C225.857 190.676 226.953 190.591 227.306 191.401C227.66 192.211 228.925 193.059 226.728 193.628C224.532 194.196 222.866 195.846 222.866 195.846C222.866 195.846 226.165 194.796 228.542 194.367C230.92 193.939 232.213 192.802 235.109 194.514C238.004 196.227 240.93 195.547 241.85 194.924C242.771 194.301 244.224 194.904 243.683 194.483C243.141 194.063 240.962 193.308 239.327 192.841C237.692 192.374 236.058 191.775 235.146 191.735C234.235 191.697 231.314 191.836 231.314 191.836L233.152 190.855C233.152 190.855 232.427 190.559 232.075 189.618C231.722 188.676 231.36 188.528 232.284 187.64C232.557 187.379 232.814 187.082 233.026 186.79C233.537 186.09 233.796 185.414 233.411 185.304C232.866 185.148 231.411 184.821 230.675 185.32C229.938 185.818 231.207 186.401 231.207 186.401L228.471 186.284C228.471 186.284 228.316 184.291 229.412 184.206C230.508 184.12 232.879 184.221 233.79 184.261C234.701 184.3 235.969 185.016 235.597 185.529C235.225 186.043 232.09 188.425 233.357 189.141C234.624 189.858 235.136 189.762 236.879 190.425C238.621 191.087 239.727 190.355 240.453 190.578C241.179 190.799 242.81 191.664 243.165 192.341C243.521 193.018 244.978 193.213 244.978 193.213L246.819 191.967L246.845 190.114L249.179 192.862Z" fill="#001525"/>
<path d="M30.4946 175.5L29.5159 177.114L29.9882 178.817C29.9882 178.817 30.9946 179.141 31.5787 178.675C32.1627 178.209 33.6358 178.012 34.2051 178.066C34.7744 178.12 35.0655 179.128 36.5007 179.144C37.935 179.16 38.2021 179.416 39.3711 179.225C40.5402 179.033 39.8776 175.908 39.9238 175.337C39.9691 174.767 41.1381 174.575 41.724 174.85C42.3099 175.125 43.832 175.84 44.4651 176.285C45.0981 176.73 43.9318 178.405 43.9318 178.405L42.175 177.58C42.175 177.58 43.2748 177.504 43.0862 176.822C42.8977 176.141 41.8211 175.932 41.3996 175.881C41.1021 175.846 40.8997 176.52 40.8405 177.298C40.8156 177.623 40.8156 177.967 40.8442 178.286C40.9403 179.368 40.6363 179.373 39.9127 180.07C39.1891 180.767 38.581 180.777 38.581 180.777L39.1928 182.249C39.1928 182.249 37.459 181.139 36.8731 180.863C36.2872 180.589 34.9536 180.555 33.6903 180.405C32.427 180.256 30.672 180.173 30.1102 180.353C29.5492 180.534 30.7728 180.504 31.0094 181.355C31.245 182.207 32.6923 183.787 35.4056 183.283C38.118 182.781 38.3093 184.202 39.5513 185.378C40.7943 186.554 42.273 188.581 42.273 188.581C42.273 188.581 42.1279 186.588 41.0725 185.352C40.0171 184.115 41.2564 183.808 41.9098 183.227C42.5631 182.645 43.1962 183.09 44.0954 183.512C44.9946 183.935 45.7496 184.586 47.0897 184.113C48.4297 183.641 48.7439 184.363 49.5867 184.462C50.4296 184.562 51.3888 184.716 52.1365 184.475C52.8841 184.234 52.8832 183.492 53.8406 182.906C54.798 182.319 55.8811 183.148 56.2018 182.238C56.5234 181.328 57.2055 181.08 57.016 180.399C56.8275 179.717 55.5161 179.399 55.5161 179.399C55.5161 179.399 54.1372 179.935 54.9339 180.607C55.7305 181.277 56.1501 180.586 56.1501 180.586C56.1501 180.586 55.8007 181.162 55.334 181.683C55.0124 182.042 54.4783 181.81 53.9247 181.318C53.6743 181.095 53.4201 180.82 53.1789 180.524C52.4045 179.567 53.995 179.426 55.6067 178.257C57.2184 177.089 56.8478 178.692 57.4809 179.138C58.1139 179.583 58.21 180.665 58.5871 182.027C58.965 183.389 57.7461 182.669 56.8811 182.855C56.0161 183.041 55.1982 183.397 54.4968 183.808C53.7962 184.22 53.2612 185.597 52.4451 186.695C51.6291 187.793 51.7428 186.366 51.0395 186.035C50.3371 185.705 49.0036 185.671 47.1312 185.532C45.2589 185.394 44.6268 184.948 43.9438 185.082C43.2609 185.214 43.4134 186.453 44.0705 187.353C44.7275 188.254 44.7072 189.281 44.5935 190.709C44.4798 192.137 47.4057 192.771 47.4057 192.771C47.4057 192.771 48.1293 192.074 48.6191 191.267C49.108 190.46 49.645 189.824 50.814 189.632C51.9831 189.441 52.1494 190.407 53.2491 190.331C54.3489 190.255 55.2379 190.524 56.8765 190.554C58.5141 190.582 58.3551 192.581 58.8006 193.086C59.246 193.592 60.8365 193.45 61.7477 192.693C62.6589 191.936 63.2457 192.953 64.6024 192.701C65.959 192.449 64.6024 192.701 64.7401 191.729C64.8778 190.757 65.3935 191.147 66.4683 190.615C67.543 190.083 67.1863 187.694 67.1863 187.694C67.1863 187.694 67.1863 187.694 67.9377 188.935C68.689 190.177 66.7732 191.351 67.5218 191.11C68.2703 190.869 70.2804 190.035 70.2804 190.035C70.2804 190.035 67.9219 192.186 66.9405 192.317C65.9581 192.448 66.2409 193.47 64.4656 194.413C62.6894 195.356 62.0305 193.714 61.1424 194.186C60.2542 194.657 59.2719 194.788 58.5935 194.914C57.9152 195.039 58.125 194.694 57.1407 194.084C56.1565 193.474 56.4116 192.557 55.7785 192.112C55.1455 191.667 53.6253 191.693 52.2215 191.775C50.8177 191.856 50.5626 192.773 49.0433 193.541C47.524 194.308 47.6885 194.534 46.1904 194.274C44.6924 194.015 44.6684 193.56 44.0104 191.915C43.3524 190.27 41.7102 189.504 39.1336 189.288C38.6142 189.244 38.2668 189.182 38.0357 189.101C37.5191 190.119 37.5764 191.29 38.7954 191.656C40.213 192.08 39.9774 193.034 40.2315 193.746C40.4866 194.458 37.1079 195.291 37.0053 195.184C34.9657 193.051 37.0053 195.184 36.3214 193.868C35.6375 192.551 35.3612 192.166 35.3612 192.166C35.3612 192.166 36.9508 194.198 37.4738 193.835C37.9969 193.471 38.7778 192.884 38.1799 192.67C37.5829 192.455 37.1901 192.74 36.5737 191.827C35.9582 190.914 36.2373 189.414 36.4813 188.955C36.7253 188.496 36.6449 187.497 36.0839 186.724C35.778 186.303 35.1533 185.572 34.6478 184.994C34.5165 184.983 34.3788 184.971 34.2356 184.959C31.9419 184.771 32.0139 185.397 29.4623 184.643C26.9107 183.889 28.9226 183.796 28.662 182.489C28.4014 181.182 28.0521 181.758 27.5577 180.341C27.0632 178.924 27.5734 177.09 27.5734 177.09L30.4946 175.5Z" fill="#001525"/>
<path d="M64.4729 190.551L64.4988 192.404L66.3406 193.65C66.3406 193.65 67.7971 193.456 68.1529 192.778C68.5087 192.101 70.138 191.236 70.8653 191.014C71.5917 190.793 72.697 191.525 74.439 190.861C76.181 190.199 76.693 190.294 77.9609 189.578C79.2279 188.862 76.0932 186.48 75.7217 185.966C75.3493 185.453 76.6172 184.736 77.5284 184.698C78.4406 184.658 80.8101 184.558 81.9061 184.643C83.0022 184.728 82.8469 186.721 82.8469 186.721L80.1124 186.838C80.1124 186.838 81.3812 186.255 80.6447 185.757C79.9081 185.258 78.4535 185.585 77.9083 185.741C77.5238 185.851 77.7826 186.527 78.2927 187.227C78.5062 187.519 78.7631 187.816 79.0348 188.077C79.959 188.964 79.5967 189.112 79.2446 190.054C78.8925 190.996 78.167 191.292 78.167 191.292L80.0051 192.273C80.0051 192.273 77.0839 192.133 76.1727 192.171C75.2605 192.211 73.6276 192.81 71.9918 193.277C70.3561 193.744 68.1778 194.499 67.6363 194.919C67.0947 195.34 68.5484 194.737 69.4689 195.36C70.3893 195.983 73.3152 196.663 76.2106 194.95C79.106 193.238 80.3989 194.374 82.7767 194.803C85.1546 195.231 88.4529 196.282 88.4529 196.282C88.4529 196.282 86.7885 194.632 84.5908 194.064C82.3932 193.496 83.6593 192.647 84.0132 191.837C84.3672 191.027 85.4623 191.113 86.8624 191.053C88.2625 190.993 89.6598 191.199 90.9222 190.159C92.1846 189.119 93.1032 189.595 94.1937 189.283C95.2842 188.972 96.5568 188.653 97.2785 188.092C98.0003 187.532 97.4449 186.893 98.1611 185.936C98.8773 184.979 100.802 185.183 100.509 184.247C100.216 183.311 100.854 182.776 100.118 182.278C99.381 181.779 97.5613 182.122 97.5613 182.122C97.5613 182.122 96.2999 183.235 97.7619 183.437C99.2239 183.64 99.2128 182.846 99.2128 182.846C99.2128 182.846 99.222 183.507 99.0492 184.177C98.93 184.638 98.1121 184.689 97.0761 184.526C96.6085 184.452 96.0956 184.335 95.5836 184.192C93.9349 183.733 95.7481 182.861 96.8183 181.094C97.8885 179.327 98.6398 180.884 99.7359 180.97C100.832 181.056 101.756 181.942 103.229 182.939C104.702 183.936 102.695 183.889 101.79 184.457C100.885 185.025 100.166 185.718 99.6277 186.403C99.0899 187.089 99.4743 188.528 99.3108 189.859C99.1472 191.19 98.2165 189.906 97.1233 189.953C96.0291 190 94.3952 190.599 92.034 191.362C89.6728 192.125 88.5767 192.039 87.8531 192.475C87.1295 192.911 88.2375 193.907 89.7041 194.374C91.1699 194.841 91.912 195.736 92.8426 197.021C93.7723 198.305 97.7748 197.472 97.7748 197.472C97.7748 197.472 98.1269 196.531 98.114 195.604C98.101 194.678 98.2729 193.875 99.5399 193.159C100.807 192.442 101.73 193.198 102.999 192.614C104.268 192.03 105.542 191.843 107.539 191.096C109.536 190.349 110.838 192.147 111.753 192.373C112.668 192.598 114.481 191.727 115.013 190.644C115.545 189.563 117.013 190.162 118.461 189.305C119.908 188.449 118.461 189.305 117.901 188.402C117.341 187.499 118.255 187.592 119.153 186.627C120.052 185.661 117.836 183.77 117.836 183.77C117.836 183.77 117.836 183.77 119.671 184.486C121.505 185.203 120.072 187.118 120.795 186.557C121.516 185.997 123.318 184.33 123.318 184.33C123.318 184.33 122.082 187.296 120.995 187.873C119.908 188.449 121.014 189.196 119.577 190.846C118.139 192.497 116.117 191.391 115.399 192.216C114.681 193.042 113.594 193.618 112.87 194.045C112.146 194.473 112.141 194.077 110.498 194.014C108.854 193.952 108.477 193.042 107.381 192.955C106.285 192.87 104.471 193.609 102.839 194.341C101.207 195.073 101.585 195.984 100.326 197.361C99.0686 198.739 99.4346 198.856 97.4347 199.339C95.4348 199.822 95.0642 199.44 93.0422 198.332C91.0201 197.225 88.4677 197.338 85.198 198.366C84.5391 198.573 84.0742 198.684 83.7341 198.723C83.8727 199.844 84.8163 200.827 86.5583 200.567C88.5841 200.265 89.0129 201.198 89.852 201.692C90.6911 202.186 87.2394 204.497 87.0371 204.453C82.9828 203.575 87.037 204.453 85.2285 203.64C83.4199 202.828 82.7989 202.626 82.7989 202.626C82.7989 202.626 86.234 203.629 86.5934 203.069C86.952 202.508 87.4548 201.634 86.575 201.732C85.6952 201.829 85.4336 202.259 84.0086 201.763C82.5835 201.266 81.7999 199.841 81.7509 199.331C81.701 198.82 80.8582 197.996 79.605 197.594C78.9211 197.375 77.6218 197.04 76.5812 196.78C76.413 196.831 76.2392 196.886 76.0581 196.943C73.1516 197.862 73.7061 198.367 70.065 198.92C66.4238 199.473 68.7813 198.446 67.4903 197.441C66.1992 196.437 66.2084 197.098 64.5533 196.11C62.8972 195.122 62.1431 193.3 62.1431 193.3L64.4729 190.551Z" fill="#001525"/>
<path d="M214.646 196.247L214.247 201.651L211.416 198.098L210.653 205.348L207.723 201.28L203.917 201.996L207.636 196.144L201.161 197.896L203.132 194.149L198.397 190.954L204.963 190.607L205.839 185.823L209.097 191.605L209.991 185.042L213.333 189.388L217.789 189.26L213.889 192.706L218.8 193.6L214.646 196.247Z" fill="#001525"/>
<path d="M100.284 194.977L99.1049 189.686L102.844 192.287L101.48 185.124L105.462 188.19L108.903 186.423L107.03 193.086L112.729 189.569L111.923 193.719L117.382 195.436L111.192 197.632L111.734 202.465L106.942 197.849L107.982 204.392L103.525 201.177L99.2916 202.564L102.034 198.156L97.0699 198.693L100.284 194.977Z" fill="#001525"/>
<path d="M46.788 180.036L45.6079 174.744L49.3479 177.345L47.983 170.182L51.9661 173.248L55.4058 171.481L53.5334 178.143L59.2318 174.627L58.4259 178.776L63.8858 180.494L57.6949 182.689L58.2383 187.522L53.4456 182.906L54.4853 189.449L50.0281 186.234L45.7955 187.622L48.5365 183.213L43.5729 183.75L46.788 180.036Z" fill="#001525"/>
<path d="M133.101 193.774C133.101 194.559 135.488 195.194 138.431 195.194C141.376 195.194 143.763 194.559 143.763 193.774C143.763 192.989 141.376 192.353 138.431 192.353C135.488 192.353 133.101 192.99 133.101 193.774Z" fill="#401A19"/>
<path d="M167.366 191.916C167.366 192.701 169.754 193.337 172.697 193.337C175.641 193.337 178.028 192.7 178.028 191.916C178.028 191.131 175.641 190.496 172.697 190.496C169.754 190.496 167.366 191.131 167.366 191.916Z" fill="#401A19"/>
<path d="M12.4062 166.216C12.4062 167.124 14.4606 167.859 16.9947 167.859C19.5287 167.859 21.5831 167.124 21.5831 166.216C21.5831 165.308 19.5287 164.573 16.9947 164.573C14.4606 164.573 12.4062 165.308 12.4062 166.216Z" fill="#211521"/>
<path d="M10.213 179.306C4.84827 179.306 0.499212 177.748 0.499212 175.827C0.499212 173.905 4.84827 172.348 10.213 172.348C15.5778 172.348 19.9268 173.905 19.9268 175.827C19.9268 177.748 15.5778 179.306 10.213 179.306Z" fill="#211521"/>
</svg>
