<svg width="64" height="51" viewBox="0 0 64 51" fill="none" xmlns="http://www.w3.org/2000/svg">
<path d="M62.5947 25.4743C60.8401 17.9536 58.6801 7.07357 51.9266 1.00469L48.3525 4.2254L41.6828 0.772195L38.3477 5.00107L30.566 1.58413L23.5253 4.22469L19.0788 0.771484L9.81483 6.32988L7.51909 3.20017C4.49034 6.97474 2.00975 12.9227 0.899207 22.1491C-3.20667 56.2822 17.5083 50.7573 36.3953 49.8643C55.2831 48.972 65.6406 38.5321 62.5947 25.4743Z" fill="#E73D01"/>
<path d="M46.0855 17.5271C45.03 18.0069 43.8923 18.3221 42.7135 18.4729C43.9197 17.7464 44.8518 16.595 45.2904 15.2106C44.1527 15.8959 42.8917 16.3757 41.5621 16.6498C40.4792 15.471 38.9577 14.7856 37.2306 14.7856C34.0094 14.7856 31.3776 17.4174 31.3776 20.6661C31.3776 21.1321 31.4324 21.5845 31.5283 22.0094C26.6485 21.7627 22.3033 19.4187 19.4111 15.8685C18.9039 16.7321 18.6161 17.7464 18.6161 18.8156C18.6161 20.858 19.6441 22.6673 21.2342 23.6954C20.2609 23.6954 19.3563 23.4212 18.5612 23.01V23.0511C18.5612 25.9022 20.5899 28.2873 23.2766 28.8219C22.4141 29.0589 21.5084 29.0918 20.631 28.9178C21.0033 30.0864 21.7325 31.1088 22.7159 31.8415C23.6994 32.5742 24.8878 32.9803 26.114 33.0026C24.0355 34.6482 21.459 35.5376 18.808 35.5248C18.3419 35.5248 17.8759 35.4973 17.4098 35.4425C20.0142 37.1148 23.1121 38.088 26.4292 38.088C37.2306 38.088 43.1658 29.1235 43.1658 21.3514C43.1658 21.091 43.1658 20.8443 43.1521 20.5838C44.3035 19.7614 45.2904 18.7196 46.0855 17.5271Z" fill="#0D0A18"/>
</svg>
