<svg width="64" height="51" viewBox="0 0 64 51" fill="none" xmlns="http://www.w3.org/2000/svg">
<path d="M62.5947 25.4345C60.8401 17.9138 58.6801 7.03377 51.9266 0.964891L48.3525 4.18561L41.6828 0.7324L38.3477 4.96128L30.566 1.54433L23.5253 4.18489L19.0788 0.731689L9.81483 6.29009L7.51909 3.16038C4.49034 6.93494 2.00975 12.883 0.899207 22.1093C-3.20667 56.2424 17.5083 50.7175 36.3953 49.8245C55.2831 48.9322 65.6406 38.4923 62.5947 25.4345Z" fill="#E73D01"/>
<mask id="mask0_3_486" style="mask-type:luminance" maskUnits="userSpaceOnUse" x="17" y="14" width="28" height="23">
<path d="M31.4377 15.9771C43.6173 15.9771 43.6173 15.9771 43.6173 25.45C43.6173 34.923 43.6173 34.923 31.4377 34.923C19.2581 34.923 19.2581 34.923 19.2581 25.45C19.2581 15.9771 19.2581 15.9771 31.4377 15.9771Z" fill="white" stroke="white" stroke-width="2.70657" stroke-linecap="round" stroke-linejoin="round"/>
<path d="M28.7312 20.7139L36.8509 25.4504L28.7312 30.1869V20.7139Z" fill="black"/>
</mask>
<g mask="url(#mask0_3_486)">
<path d="M47.6772 9.21045H15.1983V41.6893H47.6772V9.21045Z" fill="#0D0A18"/>
</g>
</svg>
