<svg xmlns="http://www.w3.org/2000/svg" width="239" height="85" viewBox="0 0 239 85" fill="none">
  <g filter="url(#filter0_d_865_9866)">
    <path fill-rule="evenodd" clip-rule="evenodd" d="M40.3915 12.3369L71.5006 11.1849C73.4812 11.1116 75.4585 11.3999 77.3357 12.0359L77.9483 12.2434C82.112 13.654 86.6688 13.3235 90.5853 11.3268L91.5841 10.8177C93.7809 9.69771 96.2032 9.09062 98.6685 9.04209L144.187 8.14598C146.067 8.10896 147.939 8.39754 149.721 8.99894L159.667 12.3556C162.146 13.1921 164.789 13.42 167.374 13.0199L177.09 11.5164C179.446 11.1516 181.855 11.3303 184.133 12.0388L184.237 12.0711C187.883 13.2056 191.821 12.9418 195.284 11.3313C197.543 10.2803 200.025 9.79451 202.514 9.91594L212.774 10.4164C214.609 10.5059 216.415 10.9047 218.116 11.596L221.762 13.0771C226.152 14.8603 229.548 18.4647 231.068 22.9522L231.959 25.5809C232.62 27.5338 232.573 29.6573 231.826 31.5789L231.163 33.2825C229.785 36.8267 225.809 38.5992 222.252 37.2552L221.457 36.9552C220.172 36.4697 219.145 35.4743 218.62 34.205C217.679 31.9295 218.545 29.3075 220.656 28.0404L222.11 27.1681L221.052 28.9321C220.216 30.3248 220.378 32.0983 221.453 33.3162L221.686 33.5799C222.338 34.3192 223.308 34.697 224.289 34.5938C225.664 34.449 226.77 33.3951 226.98 32.0278L227.173 30.7716C227.348 29.6394 227.102 28.4825 226.482 27.5189L226.074 26.8832C224.659 24.6819 222.09 23.5077 219.5 23.8778L218.841 23.9719C217.376 24.1811 216.034 24.9065 215.057 26.0174C213.271 28.0469 213.002 30.9984 214.393 33.3166L216.845 37.4025C218.132 39.5485 220.078 41.2221 222.392 42.175C226.596 43.906 231.423 43.0299 234.75 39.9319L235.239 39.4766L232.139 64.1037C231.752 67.1787 230.497 70.0797 228.52 72.4667L225.344 76.3014C222.374 79.8885 218.011 82.0341 213.356 82.1968L193.045 82.907C191.911 82.9467 190.775 82.8678 189.658 82.6717L183.414 81.5763C180.936 81.1415 178.39 81.2863 175.977 81.9993L172.881 82.9139C171.381 83.357 169.825 83.5821 168.261 83.5821H157.51C156.019 83.5821 154.554 83.1897 153.262 82.4444C151.127 81.2126 148.562 80.9682 146.233 81.7745L140.369 83.8041C139.615 84.0651 138.829 84.2199 138.032 84.2642C136.404 84.3546 134.785 83.9809 133.361 83.1864L125.599 78.854C120.794 76.1722 114.96 76.0949 110.086 78.6486L104.459 81.5969C101.971 82.9001 99.1895 83.5387 96.3828 83.451L24.6426 81.2091L27.9609 75.1077C28.6262 73.8845 28.9747 72.5141 28.9747 71.1217C28.9747 69.4973 28.5005 67.9082 27.6103 66.5495L25.6598 63.5724C24.3589 61.5868 22.4975 60.0323 20.3117 59.1062L17.9932 58.1237C16.3543 57.4293 14.4981 57.46 12.883 58.2085C10.8984 59.1282 9.5323 61.011 9.27372 63.1831L9.25279 63.3589C9.08291 64.7859 9.38188 66.2294 10.1046 67.4715L12.3783 71.3794C13.076 72.5786 14.1973 73.4731 15.5215 73.8869L16.3065 74.1323C17.3409 74.4555 18.4646 74.315 19.3876 73.747C20.7024 72.9379 21.3863 71.405 21.1101 69.8861L20.9027 68.7453C20.7903 68.1268 20.4841 67.5602 20.0284 67.1273C18.8635 66.0207 17.0289 66.0442 15.8928 67.1803L15.2796 67.7935L15.4373 65.9008C15.5814 64.1715 17.1067 62.8907 18.8349 63.0478C19.7688 63.1327 20.6152 63.6324 21.1406 64.4092L22.1795 65.9449C23.0516 67.234 23.4716 68.7759 23.3739 70.3292L23.2515 72.2754C23.1712 73.5524 22.7264 74.7796 21.9697 75.8114C19.983 78.5205 16.2952 79.3359 13.3516 77.7169L12.6218 77.3156C10.982 76.4136 9.73029 74.941 9.10442 73.1772L6.06653 64.6159C5.65318 63.451 5.37364 62.2429 5.23329 61.0148L4.00682 50.2837C3.84316 48.8517 3.8701 47.4043 4.08694 45.9794L6.15426 32.3942C6.51858 30.0001 7.41162 27.7172 8.76851 25.7114L12.7325 19.8517C15.0813 16.3795 18.6773 13.9454 22.7737 13.0549L24.3641 12.7092C25.502 12.4618 26.6632 12.337 27.8276 12.337L40.3915 12.3369ZM220.754 75.6039L213.052 75.6039C215.594 73.1946 218.769 71.56 222.207 70.8917L223.669 70.6076L220.754 75.6039ZM221.341 18.7086L211.901 14.2372C209.268 13.5789 206.656 15.3858 206.344 18.0821L205.94 21.5652L209.063 19.2231C210.565 18.0963 212.446 17.5968 214.309 17.8297L221.341 18.7086Z" fill="black"/>
  </g>
  <defs>
    <filter id="filter0_d_865_9866" x="0.278116" y="0.896319" width="238.584" height="83.3811" filterUnits="userSpaceOnUse" color-interpolation-filters="sRGB">
      <feFlood flood-opacity="0" result="BackgroundImageFix"/>
      <feColorMatrix in="SourceAlpha" type="matrix" values="0 0 0 0 0 0 0 0 0 0 0 0 0 0 0 0 0 0 127 0" result="hardAlpha"/>
      <feOffset dy="-3.62325"/>
      <feGaussianBlur stdDeviation="1.81163"/>
      <feComposite in2="hardAlpha" operator="out"/>
      <feColorMatrix type="matrix" values="0 0 0 0 0.333333 0 0 0 0 0.658824 0 0 0 0 0.14902 0 0 0 1 0"/>
      <feBlend mode="normal" in2="BackgroundImageFix" result="effect1_dropShadow_865_9866"/>
      <feBlend mode="normal" in="SourceGraphic" in2="effect1_dropShadow_865_9866" result="shape"/>
    </filter>
  </defs>
</svg>