<svg width="108" height="42" viewBox="0 0 108 42" fill="none" xmlns="http://www.w3.org/2000/svg">
<path d="M13.3347 34.2256C16.1697 21.9395 16.4183 11.7035 13.3347 2.60176C8.88945 3.03481 4.44472 3.53927 0 4.11463C2.98065 8.12327 4.43031 12.2355 4.42722 16.4038C4.43649 20.5369 3.02595 24.7781 0 28.7643C2.07873 29.7355 4.15747 30.6505 6.2362 31.51C7.46038 29.3478 8.12241 27.408 8.40039 25.7656C8.67272 24.1201 8.49357 23.1061 8.02408 22.674C7.86244 22.5113 7.65652 22.4083 7.40684 22.3614C7.07377 22.2997 6.76541 22.3833 6.47455 22.6057C6.20429 22.8327 6.03235 23.1765 5.94792 23.6493C5.81253 23.4101 5.75178 23.1402 5.76105 22.8388C5.77649 22.5134 5.85938 22.2058 6.00918 21.91C6.16413 21.5901 6.36696 21.3157 6.62076 21.0831C6.89926 20.8301 7.23027 20.6669 7.621 20.596C7.96951 20.519 8.32215 20.5527 8.68096 20.7052C9.03874 20.8572 9.35843 21.1484 9.63024 21.5907C9.92676 22.0099 10.1435 22.5884 10.2603 23.3371C10.4024 24.063 10.4204 24.9831 10.2732 26.1053C10.1533 27.0265 9.94477 28.0232 9.62921 29.0933C9.31364 30.1629 8.91519 31.2652 8.42511 32.3939C10.0616 33.0392 11.6982 33.6497 13.3347 34.2256ZM11.1767 17.1765C10.8637 17.5234 10.4971 17.6799 10.0863 17.6539C9.65392 17.6264 9.29099 17.4249 8.98777 17.0617C8.68405 16.6981 8.52909 16.2767 8.51365 15.7901C8.49357 15.1816 8.49769 14.6506 8.53784 14.1916C8.59653 13.708 8.63205 13.2245 8.64441 12.7414C8.67426 12.2339 8.65264 11.6795 8.56976 11.0817C8.48173 10.4599 8.27376 9.71367 7.90877 8.85573C7.6421 8.46961 7.56849 8.08247 7.6941 7.68767C7.84081 7.29084 8.09152 7.07457 8.45496 7.04039C8.81738 7.00673 9.19575 7.16485 9.57464 7.52088C9.97463 7.87538 10.1558 8.26558 10.1219 8.68435C10.2495 9.60554 10.369 10.3849 10.5131 11.0205C10.6727 11.63 10.822 12.1839 10.9713 12.6802C11.1206 13.1765 11.2554 13.6657 11.378 14.1467C11.5211 14.6282 11.6091 15.2041 11.6281 15.8753C11.6426 16.392 11.4892 16.8297 11.1767 17.1765ZM14.3128 34.5658C16.5578 28.3272 17.6399 22.4369 17.6682 17.0954C17.7099 11.7172 16.6325 6.83483 14.3128 2.5074C14.9429 2.44772 15.573 2.38906 16.2031 2.33193C16.9429 3.47194 17.7084 4.6451 18.495 5.86315C19.2749 7.05621 20.0255 8.16918 20.7832 9.18779C21.54 10.2059 22.2864 11.0766 23.0591 11.7718C23.8282 12.4395 24.5942 12.8006 25.3819 12.82C26.2287 12.8103 26.8006 12.5185 27.0894 11.9493C27.3988 11.3811 27.5131 10.7751 27.4266 10.1426C27.3582 9.48108 27.143 8.92204 26.7847 8.46196C26.4259 8.00239 26.0403 7.85753 25.6408 8.0131C26.099 8.65324 26.2251 9.24135 26.0346 9.75907C25.8442 10.2778 25.4761 10.5624 24.9386 10.6068C24.6061 10.6175 24.2241 10.4574 23.787 10.136C23.3665 9.7861 22.9479 9.23166 22.5078 8.49307C22.0671 7.75449 21.6275 6.84504 21.1544 5.7897C20.6957 4.70784 20.2566 3.43828 19.7856 2.02283C22.4064 1.80758 25.0267 1.61733 27.647 1.45206C28.5443 6.0835 28.9993 11.4867 28.9823 17.6111C28.9921 23.7085 28.519 30.5903 27.647 38.3755C26.9947 38.2271 26.3425 38.0726 25.6902 37.9129C25.7716 36.9147 25.8395 35.5676 25.8684 33.9221C25.9245 32.2425 25.9162 30.4848 25.8297 28.6771C25.7433 26.8699 25.5672 25.1045 25.2969 23.3902C25.0504 21.6437 24.6828 20.137 24.2174 18.8383C23.7726 17.5412 23.2285 16.5313 22.6144 15.7708C21.9987 14.9807 21.3387 14.6052 20.6597 14.6017C20.1861 14.6007 19.7645 14.8001 19.3892 15.1979C19.0926 15.5101 18.8986 15.8794 18.8028 16.3104C18.7066 16.7414 18.6664 17.1612 18.6834 17.5723C18.721 17.9554 18.8054 18.3145 18.9398 18.6506C19.0741 18.9867 19.2507 19.2102 19.4731 19.3157C19.2739 18.6353 19.296 18.0589 19.5467 17.5647C19.818 17.0725 20.2051 16.8628 20.7199 16.9383C21.1915 17.0143 21.6718 17.5478 22.1232 18.5935C22.5737 19.6101 22.9454 20.9837 23.1842 22.7766C23.4426 24.5725 23.5549 26.6898 23.4668 29.182C23.404 31.6416 23.107 34.2863 22.5387 37.0978C19.7969 36.3516 17.0546 35.5074 14.3128 34.5658ZM33.581 4.26153C32.9921 2.98584 32.4237 1.9856 31.9089 1.20468C30.8145 1.26232 29.7195 1.32455 28.6251 1.39137C30.2698 5.83051 31.0425 11.1597 31.0322 17.3673C31.0348 23.5361 30.2796 30.6459 28.6251 38.5944C30.3501 38.9739 32.0073 39.0794 33.5774 38.903C35.1748 38.6892 36.6383 37.8874 37.9284 36.5362C37.7673 37.7344 37.5959 38.9529 37.4152 40.1904C39.1181 40.4352 40.7531 40.4005 42.3016 40.0878C43.8511 39.7767 45.2308 38.8963 46.4127 37.4997C47.6189 36.0613 48.5759 33.9655 49.2765 31.3544C49.9782 28.748 50.336 25.3351 50.354 21.4387C50.373 17.2785 50.4008 13.4805 50.442 10.0442C50.4837 6.57623 50.5769 3.4291 50.7499 0.632381C48.8369 0.647173 46.9239 0.675227 45.0115 0.716542C45.4336 1.94173 45.8341 3.41328 46.2011 5.20567C46.5672 6.97 46.8415 8.91286 47.0305 11.0572C47.2395 13.1694 47.3409 15.3831 47.3414 17.684C47.3414 19.9492 47.1998 22.0977 46.9239 24.0579C46.6681 25.9798 46.248 27.61 45.6678 28.8765C45.0892 30.1037 44.3155 30.7077 43.3662 30.65C42.9652 30.6266 42.646 30.4159 42.4087 30.0247C42.1734 29.5916 42.004 29.104 41.8995 28.5643C41.795 28.0247 41.7631 27.4947 41.8022 26.9734C41.8429 26.4123 41.9407 25.9599 42.0972 25.6105C42.0972 26.2838 42.194 26.8117 42.3906 27.1856C42.5868 27.5595 42.8308 27.7564 43.1237 27.7707C43.395 27.7844 43.673 27.6136 43.9551 27.2596C44.4539 26.6317 44.7937 25.5687 44.9662 24.1226C45.1386 22.6389 45.1916 20.976 45.118 19.1816C45.0645 17.3882 44.8951 15.5183 44.5965 13.6152C44.3185 11.7121 43.9659 9.95953 43.534 8.34311C43.1216 6.6961 42.663 5.2475 42.1616 3.96416C41.6576 2.65379 41.1737 1.62957 40.7325 0.830798C39.2288 0.878235 37.7251 0.934342 36.2214 0.998611C36.7537 2.20391 37.2654 3.64945 37.7307 5.4046C38.1935 7.13272 38.5446 9.03273 38.785 11.1255C39.0445 13.1873 39.1706 15.3448 39.1711 17.582C39.1716 19.7845 39.0079 21.8676 38.6985 23.7579C38.4108 25.6121 37.9506 27.1729 37.3354 28.3685C36.7228 29.5268 35.9279 30.068 34.9786 29.967C34.5776 29.9257 34.2646 29.7089 34.0386 29.3254C33.8162 28.9025 33.6608 28.4307 33.5707 27.913C33.4806 27.3953 33.4621 26.8908 33.5141 26.3965C33.5681 25.864 33.6757 25.4371 33.8394 25.1091C33.826 25.7508 33.9099 26.2563 34.0973 26.6199C34.2847 26.9836 34.5246 27.181 34.817 27.206C35.0888 27.23 35.3714 27.0775 35.6623 26.749C36.156 26.1645 36.5107 25.154 36.7078 23.7676C36.9266 22.3456 37.0105 20.7434 36.9452 19.0107C36.8787 17.278 36.6929 15.4693 36.3686 13.6264C36.0638 11.784 35.6659 10.085 35.1738 8.51654C34.6996 6.91849 34.1653 5.51069 33.581 4.26153ZM65.0621 0.766019C64.6693 1.30261 64.3744 2.14882 64.189 3.37554C64.0063 4.57624 63.8683 5.89121 63.7757 7.33521C63.7113 8.63283 63.6598 9.98656 63.6223 11.3974C63.5883 12.6813 63.5142 13.5224 63.3849 13.856C63.1713 14.392 62.9196 14.7843 62.6297 15.024C62.3389 15.2291 62.0506 15.3331 61.7628 15.3331C61.474 15.3326 61.2079 15.2291 60.9618 15.022C60.7374 14.8154 60.5747 14.5231 60.4753 14.1498C60.6596 14.2518 60.8243 14.3033 60.968 14.3038C61.3186 14.3053 61.5991 14.084 61.8107 13.6484C62.0434 13.2133 62.1345 12.6654 62.0856 12.0141C62.0022 11.0041 61.8086 10.0697 61.4998 9.20258C61.2125 8.33546 60.8702 7.59739 60.4691 6.97408C60.0697 6.3217 59.6311 5.82949 59.1528 5.48213C58.6967 5.10774 58.2741 4.92207 57.89 4.9185C57.2918 4.91442 56.8877 5.32605 56.6839 6.19266C56.6159 6.48238 56.5768 7.00469 56.5675 7.78663C56.5789 8.56856 56.5907 9.44639 56.6031 10.4324C56.6159 11.3867 56.6303 12.3528 56.6463 13.327C56.6623 14.3018 56.6602 15.0995 56.6381 15.6942C57.3176 15.38 57.9153 15.2255 58.4295 15.226C59.3145 15.228 59.9914 15.555 60.4614 16.2211C60.9319 16.8883 61.2182 17.6692 61.3232 18.5777C61.386 19.2321 61.3582 19.8416 61.2383 20.4037C61.1188 20.9653 60.9582 21.4228 60.7549 21.7687C60.552 22.1145 60.3173 22.3486 60.0501 22.468C59.8035 22.5868 59.5657 22.5511 59.3371 22.3609C59.6656 22.1262 59.8998 21.758 60.0398 21.2637C60.1804 20.7312 60.1773 20.2446 60.0316 19.8003C59.7402 18.9123 59.3083 18.4808 58.7328 18.4818C58.2602 18.4838 57.7979 18.7929 57.3469 19.4244C56.8754 20.0931 56.5583 20.975 56.3966 22.0931C56.2355 23.2117 56.219 24.3557 56.3503 25.5238C56.4816 26.6521 56.7487 27.6814 57.1554 28.596C57.5621 29.511 58.096 30.0573 58.7513 30.2119C59.2378 30.3282 59.7423 30.2287 60.2612 29.917C60.8007 29.5631 61.3031 29.0413 61.7685 28.3634C62.2333 27.686 62.6303 26.8536 62.9613 25.8829C63.3134 24.9112 63.5605 23.8625 63.7077 22.7475C63.7937 25.506 63.9471 28.395 64.1705 31.4049C64.3939 34.4138 64.6884 37.565 65.0621 40.8509C61.3747 41.2039 57.6872 41.3804 53.9997 41.3804C53.2425 41.3804 52.4852 41.3727 51.728 41.3579C52.2752 32.2608 52.5012 24.3864 52.5048 17.6611C52.5207 10.8996 52.2942 5.22505 51.728 0.62575C52.4852 0.621669 53.2425 0.619629 53.9997 0.619629C57.6872 0.619629 61.3747 0.668596 65.0621 0.766019ZM68.2713 22.4996C67.5275 21.6243 66.7115 20.8118 65.8189 20.0579C65.8081 23.1025 65.8251 26.3455 65.8647 29.7926C65.9234 33.1973 65.9857 36.8423 66.0402 40.753C70.485 40.2903 74.9302 39.5706 79.3749 38.5944C78.6866 35.7267 78.2794 33.4447 78.0617 31.6824C77.845 29.9201 77.69 28.4577 77.5711 27.2611C77.4527 26.0645 77.3219 25.0449 77.1675 24.1839C77.011 23.2861 76.717 22.3394 76.2918 21.3387C75.8851 20.3022 75.3045 19.1092 74.5626 17.7667C73.8208 16.392 72.8278 14.6624 71.6072 12.641C71.0847 11.7432 70.7115 10.9088 70.486 10.1386C70.2621 9.33775 70.154 8.63181 70.1601 8.01412C70.1895 7.36735 70.313 6.80984 70.5292 6.33446C70.746 5.85958 71.0106 5.49335 71.3205 5.22811C71.7251 4.88433 72.1447 4.72518 72.5735 4.74202C73.0234 4.76089 73.3869 4.93839 73.6628 5.27963C73.9398 5.62087 74.0587 6.01311 74.0262 6.46146C73.7879 6.14318 73.53 5.97996 73.254 5.96874C72.9776 5.95802 72.7176 6.0733 72.4777 6.31813C72.2378 6.56297 72.0628 6.91084 71.9557 7.36939C71.8487 7.82743 71.8986 8.35535 72.103 8.95622C72.3078 9.55657 72.6275 10.1993 73.0641 10.8833C73.5207 11.5678 74.0736 12.2778 74.7227 13.0097C75.393 13.7422 76.141 14.4487 76.9678 15.1204C77.1639 9.98809 77.9289 5.39236 79.3749 1.39137C74.9302 1.12103 70.485 0.921591 66.0402 0.793563C66.0974 2.50791 66.1514 4.13146 66.1895 5.57037C66.2518 6.98276 66.3424 8.30894 66.4521 9.5076C66.5633 10.6752 66.711 11.7754 66.8896 12.7863C67.0904 13.7652 67.3699 14.7674 67.7288 15.7906C68.1092 16.7792 68.5988 17.8376 69.2036 18.9643C69.808 20.0916 70.5895 21.4111 71.5707 22.9255C72.2033 23.8982 72.6826 24.8663 73.0059 25.838C73.3271 26.7714 73.5315 27.6666 73.6128 28.5266C73.7122 29.3458 73.7091 30.1267 73.5984 30.8699C73.4842 31.5732 73.2968 32.1522 73.0332 32.5995C72.7166 33.1779 72.3331 33.5008 71.8826 33.5528C71.4548 33.6033 71.0487 33.3937 70.6708 32.9259C70.3141 32.4562 70.1045 31.8869 70.0407 31.2279C70.3661 31.6559 70.659 31.8568 70.9138 31.8313C71.1902 31.8043 71.4209 31.5926 71.6057 31.2029C71.7915 30.8132 71.9027 30.2904 71.9434 29.6406C71.9634 28.9923 71.8111 28.268 71.4934 27.4641C71.1964 26.6592 70.7707 25.8518 70.2178 25.0362C69.6839 24.1808 69.0348 23.3371 68.2713 22.4996ZM80.353 38.3755C79.5283 30.395 79.099 23.4932 79.1098 17.4259C79.133 11.3321 79.5834 6.0177 80.353 1.45206C81.7352 1.53929 83.117 1.63365 84.4992 1.73464C84.3319 2.19269 84.1563 2.74356 83.9813 3.39594C83.8027 4.06107 83.639 4.74049 83.4892 5.43367C83.3641 6.11513 83.2549 6.79658 83.1602 7.4765C83.0917 8.13092 83.0526 8.68741 83.0336 9.13576C83.0104 10.2314 83.1036 11.174 83.2858 11.9366C83.4917 12.6705 83.7533 13.252 84.059 13.6698C84.3849 14.088 84.7329 14.3579 85.0979 14.4772C85.4629 14.5971 85.8129 14.5971 86.1486 14.4808C86.5264 14.3359 86.8281 14.0901 87.0572 13.7478C87.3069 13.4051 87.4896 13.0526 87.6054 12.6879C87.7238 12.2946 87.7728 11.9325 87.7486 11.5969C87.7274 11.2337 87.6384 10.9531 87.4762 10.7527C87.4489 11.2781 87.3094 11.6927 87.05 11.9957C86.8111 12.2992 86.529 12.4497 86.1975 12.4415C85.8459 12.4334 85.5684 12.2834 85.3676 11.9911C85.1669 11.6994 85.0248 11.3515 84.945 10.9511C84.8678 10.5226 84.8287 10.084 84.8271 9.63716C84.8508 9.16331 84.8827 8.75015 84.9203 8.39463C84.9573 8.03962 85.016 7.57852 85.1041 7.01795C85.224 6.40587 85.3553 5.80398 85.4984 5.21128C85.6688 4.59461 85.849 4.00139 86.0374 3.43063C86.2546 2.8369 86.4744 2.32887 86.6886 1.90042C89.0216 2.08302 91.3542 2.28552 93.6872 2.5074C88.9707 11.5209 89.2054 22.7307 93.6872 34.5658C92.4378 34.9948 91.1884 35.4034 89.939 35.792C89.7027 34.2817 89.3315 32.4735 88.9074 30.3965C88.4981 28.2812 88.0713 26.3384 87.6121 24.5215C87.174 22.7031 86.6912 21.2086 86.1028 19.9865C85.5159 18.7363 84.7787 18.1293 83.831 18.1599C83.502 18.1717 83.2045 18.2446 82.9388 18.3818C82.5708 18.5542 82.2768 18.8378 82.0596 19.2377C81.8619 19.6044 81.7291 20.0217 81.6647 20.4904C81.5978 20.9265 81.5968 21.3632 81.6606 21.7988C81.7435 22.1992 81.8876 22.5297 82.091 22.7863C82.0086 22.1441 82.076 21.633 82.2856 21.2525C82.4946 20.8715 82.7659 20.6751 83.0959 20.6547C83.2601 20.6445 83.4696 20.7133 83.7244 20.8602C84.0245 21.0699 84.284 21.5238 84.5177 22.2303C84.7504 22.9046 84.9615 23.7324 85.1663 24.7271C85.3681 25.6891 85.5561 26.75 85.7403 27.9237C85.9241 29.0974 86.1084 30.2598 86.2876 31.41C86.4817 32.5199 86.6603 33.5625 86.8121 34.5322C86.9784 35.4595 87.0979 36.1613 87.1529 36.625C84.8863 37.2753 82.6197 37.8588 80.353 38.3755ZM108 4.11463C101.894 12.67 102.215 21.4254 108 28.7643C106.363 29.5289 104.727 30.2588 103.091 30.9535C102.655 29.9329 102.246 28.9612 101.861 28.0283C101.476 27.0953 101.118 26.243 100.771 25.46C100.351 24.5057 99.96 23.7406 99.5543 23.154C99.1651 22.5389 98.778 22.0747 98.3698 21.7636C97.978 21.4239 97.5955 21.2209 97.2099 21.1617C96.8244 21.103 96.4743 21.1576 96.1598 21.3341C95.804 21.5157 95.5317 21.7865 95.3479 22.1507C95.1811 22.4843 95.0849 22.8556 95.0632 23.2642C95.037 23.6442 95.088 24.0166 95.2177 24.3756C95.3423 24.7062 95.5235 24.9678 95.7582 25.1576C95.6064 24.6256 95.6141 24.1849 95.7685 23.8411C95.9441 23.4932 96.2004 23.2958 96.533 23.2407C96.7832 23.1989 97.0133 23.2305 97.2249 23.3325C97.8344 23.5917 98.36 24.4899 98.9643 26.0471C99.5739 27.6095 100.179 29.5034 100.902 31.863C98.8228 32.7066 96.744 33.4942 94.6653 34.2256C93.1549 27.8574 92.3982 22.239 92.4126 17.0592C92.4393 11.8616 93.228 7.05468 94.6653 2.60176C99.11 3.03481 103.555 3.53927 108 4.11463ZM98.099 17.8365C98.5103 17.8121 98.8634 17.6141 99.1662 17.2535C99.4699 16.8924 99.6254 16.4736 99.6408 15.9875C99.6614 15.355 99.6496 14.8113 99.5888 14.3502C99.5497 13.8896 99.5229 13.4158 99.5106 12.9297C99.4982 12.4436 99.5275 11.8973 99.6099 11.2934C99.7185 10.6665 99.9497 9.90138 100.344 9.00926C100.611 8.61753 100.675 8.22325 100.529 7.81876C100.404 7.41632 100.165 7.19647 99.8009 7.16179C99.439 7.1266 99.0493 7.28676 98.6483 7.64687C98.2694 8.00902 98.0974 8.40585 98.1309 8.83074C97.9878 9.73866 97.8473 10.5124 97.6815 11.1521C97.5204 11.7667 97.3572 12.3354 97.1837 12.8588C97.0344 13.3571 96.8872 13.86 96.742 14.3681C96.6205 14.8506 96.5443 15.4142 96.5258 16.0589C96.5114 16.5751 96.6648 17.0123 96.9772 17.3586C97.2908 17.706 97.6676 17.8626 98.099 17.8365Z" fill="#50FF00"/>
</svg>
